<svg xmlns="http://www.w3.org/2000/svg" xmlns:xlink="http://www.w3.org/1999/xlink" width="2053.917" height="2244.766" viewBox="0 0 2053.917 2244.766">
  <defs>
    <clipPath id="clip-path">
      <path id="Path_16" data-name="Path 16" d="M1416.011-8.708C1486.376-7.516,1556-21.292,1625.748-30.663s141.754-14.219,209.623,4.4c49.023,13.445,95.85,41.424,127.666,82.2,38.534,49.39,37.515,109.09,60.06,165.06,24.132,59.913,65.13,113.887,120.346,148.188,60.049,37.305,128.566,57.731,190.832,90.727,8.057,4.27,16.013,8.735,23.808,13.47,15.093,9.163,31.435,23.368,28.473,40.773-1.788,10.514-10.338,18.455-18.89,24.825a197.847,197.847,0,0,1-61.457,30.848c-18.694,5.583-38.527,8.517-55.4,18.321s-30.344,29.3-25.374,48.168c1.385,5.252,4.107,10.155,4.777,15.545,1.353,10.917-5.922,21-13.88,28.59-44.783,42.723-113.773,42.512-173.323,59.391-45.2,12.812-86.588,36.427-131,51.762-75.13,25.945-156.4,27.41-235.791,23.6a1893.494,1893.494,0,0,1-266.3-31.838q-66.566-12.791-132.1-30.324c-19.442-5.2-21.24-5.994-21.24-24.738V-87.662C1281.416-30,1353.238-9.772,1416.011-8.708Z" transform="translate(-1256.582 87.662)" fill="none"/>
    </clipPath>
    <linearGradient id="linear-gradient" x1="0.5" x2="0.5" y2="1" gradientUnits="objectBoundingBox">
      <stop offset="0" stop-color="#a2ebff"/>
      <stop offset="0.053" stop-color="#a8ebfb"/>
      <stop offset="0.478" stop-color="#d6f0de"/>
      <stop offset="0.806" stop-color="#f2f2cc"/>
      <stop offset="0.995" stop-color="#fdf4c6"/>
    </linearGradient>
    <linearGradient id="linear-gradient-2" x1="7.88" x2="7.88" y2="1" gradientUnits="objectBoundingBox">
      <stop offset="0" stop-color="#fff" stop-opacity="0.2"/>
      <stop offset="0.243" stop-color="#fdfdff" stop-opacity="0.216"/>
      <stop offset="0.467" stop-color="#f6faff" stop-opacity="0.259"/>
      <stop offset="0.683" stop-color="#ecf5ff" stop-opacity="0.333"/>
      <stop offset="0.894" stop-color="#deeeff" stop-opacity="0.435"/>
      <stop offset="1" stop-color="#d6eaff" stop-opacity="0.498"/>
    </linearGradient>
    <linearGradient id="linear-gradient-3" x1="0.5" y1="1" x2="0.5" gradientUnits="objectBoundingBox">
      <stop offset="0" stop-color="#b9e1f9"/>
      <stop offset="1" stop-color="#a2ebd3"/>
    </linearGradient>
    <linearGradient id="linear-gradient-4" x1="0.5" x2="0.5" y2="1" gradientUnits="objectBoundingBox">
      <stop offset="0" stop-color="#fff" stop-opacity="0.702"/>
      <stop offset="0.248" stop-color="#fcfdff" stop-opacity="0.69"/>
      <stop offset="0.478" stop-color="#f6faff" stop-opacity="0.659"/>
      <stop offset="0.699" stop-color="#ebf5ff" stop-opacity="0.604"/>
      <stop offset="0.915" stop-color="#ddedff" stop-opacity="0.533"/>
      <stop offset="1" stop-color="#d6eaff" stop-opacity="0.498"/>
    </linearGradient>
    <linearGradient id="linear-gradient-7" x1="0.5" y1="1" x2="0.5" gradientUnits="objectBoundingBox">
      <stop offset="0.226" stop-color="#01a7c2"/>
      <stop offset="0.419" stop-color="#36b4c6"/>
      <stop offset="0.602" stop-color="#62bec9"/>
      <stop offset="0.766" stop-color="#81c6cb"/>
      <stop offset="0.904" stop-color="#95cbcd"/>
      <stop offset="1" stop-color="#9ccdce"/>
    </linearGradient>
    <clipPath id="clip-path-2">
      <path id="Path_41" data-name="Path 41" d="M1416.011-8.708C1486.376-7.516,1556-21.292,1625.748-30.663s141.754-14.219,209.623,4.4c49.023,13.445,95.85,41.424,127.666,82.2,38.534,49.39,37.515,109.09,60.06,165.06,24.132,59.913,65.13,113.887,120.346,148.188,60.049,37.305,128.566,57.731,190.832,90.727,8.057,4.27,16.013,8.735,23.808,13.47,15.093,9.163,31.435,23.368,28.473,40.773-1.788,10.514-10.338,18.455-18.89,24.825a197.847,197.847,0,0,1-61.457,30.848c-18.694,5.583-38.527,8.517-55.4,18.321s-30.344,29.3-25.374,48.168c1.385,5.252,4.107,10.155,4.777,15.545,1.353,10.917-5.922,21-13.88,28.59-44.783,42.723-113.773,42.512-173.323,59.391-45.2,12.812-86.588,36.427-131,51.762-75.13,25.945-156.4,27.41-235.791,23.6a1893.494,1893.494,0,0,1-266.3-31.838q-66.566-12.791-132.1-30.324c-19.442-5.2-21.24-5.994-21.24-24.738V-87.662C1281.416-30,1353.238-9.772,1416.011-8.708Z" transform="translate(-1040.582 51.662)" fill="none"/>
    </clipPath>
  </defs>
  <g id="Group_58" data-name="Group 58" transform="translate(1719.017 -1643.412)">
    <g id="Group_59" data-name="Group 59">
      <g id="Group_61" data-name="Group 61">
        <g id="Group_60" data-name="Group 60">
          <path id="Path_1" data-name="Path 1" d="M-59,8.265,1989.348-66l-.43,1213.575L-59,1066.537Z" transform="translate(-1660.017 2740.603)" fill="#effcef" opacity="0.57"/>
          <path id="Path_1-2" data-name="Path 1" d="M1600.684-107.712c42.21,70.934,134.708,95.274,217.143,91.046S1980.587-46.9,2063.1-49.108s174.572,27.219,211.464,101.06c14.583,29.191,19.483,61.838,22.846,93.948,2.845,27.175,9.628,52.655,12.938,79.32,17.26,138.979,144.372,225.218,257.464,287.046,22.935,12.54,46.168,24.54,68.841,37.55,9.833,5.64,20.2,11.837,25.253,21.987,11.521,23.155-12.586,49.882-37.76,55.819-36.536,8.616-79.748-7.533-109.045,22.905-6.771,7.035-12,16.218-11.8,25.982.341,16.391,15.268,26.819,13.613,43.759-1.371,14.031-10.741,27.67-22.942,34.453-9.846,5.474-21.1,7.76-32.169,9.858-37.681,7.139-117.207,3.815-152.57,19.224-78.16,34.057-113.84,77.22-197.5,95.731a900.039,900.039,0,0,1-229.743,20.223c-154-6.1-234.509-44.976-365.744-126.194" transform="translate(-3233.454 1751.124)" fill="#00b9be" opacity="0.14"/>
          <g id="Group_7" data-name="Group 7" transform="translate(-1719.017 1693.012)">
            <g id="Group_6" data-name="Group 6" clip-path="url(#clip-path)">
              <rect id="Rectangle_1" data-name="Rectangle 1" width="1259.815" height="918.124" transform="translate(-10.05 -8.176)" fill="url(#linear-gradient)"/>
              <g id="Group_2" data-name="Group 2" transform="translate(-121.679 109.405)">
                <g id="Group_1" data-name="Group 1" transform="translate(408.33)">
                  <circle id="Ellipse_1" data-name="Ellipse 1" cx="85.759" cy="85.759" r="85.759" fill="#fff" opacity="0.11"/>
                  <circle id="Ellipse_2" data-name="Ellipse 2" cx="56.898" cy="56.898" r="56.898" transform="translate(28.861 28.861)" fill="#fff" opacity="0.11"/>
                  <circle id="Ellipse_3" data-name="Ellipse 3" cx="34.633" cy="34.633" r="34.633" transform="translate(51.125 51.125)" fill="#fff" opacity="0.11"/>
                  <circle id="Ellipse_4" data-name="Ellipse 4" cx="24.12" cy="24.12" r="24.12" transform="translate(61.639 61.639)" fill="#fff"/>
                </g>
                <path id="Path_2" data-name="Path 2" d="M1614.634,36.091c23.7-10.417,50.893,1.91,76.762.96,10.984-.4,21.72-3.233,32.612-4.708a133.489,133.489,0,0,1,67.169,8.307c8.549,3.421,16.792,7.75,25.72,10.012,20.906,5.3,42.856-1.257,64.418-.8,12.785.272,25.374,3.016,38.077,4.478,37.563,4.329,75.436-2.573,112.459-10.249,22.922-4.752,40.449-5.237,63.04.27,16.131,3.933,36.627,6.212,53.12,3.5,19.348-3.181,36.175-2.459,55.572.821,5.257.888,11.827,4.354,5.657,9.378a18.608,18.608,0,0,1-10.8,3.708c-7.458.292-14.655-2.508-22.034-3.641-15.662-2.4-30.717,2.79-46.053,4.819-13.858,1.831-28.9-5.153-42.3-.759-18.234,5.982-23.474,12.911-43.445,8.856a197.631,197.631,0,0,0-58.669-3c-25.383,2.511-50.888,9.94-75.99,5.413-9.5-1.714-18.991-5.136-28.541-3.755-10.959,1.583-19.934,9.161-29.787,14.212-18.13,9.294-39.457,10-59.74,8.079-23.308-2.207-46.174-6.39-69.658-6.746-32.221-.487-63.987,6.862-96.026,10.345-55.878,6.076-112.291.371-168.207-5.334" transform="translate(-1457.997 153.372)" fill="url(#linear-gradient-2)"/>
                <path id="Path_3" data-name="Path 3" d="M2471.334,389.4c-24.473-24.018-58.679-34.757-87.987-52.559-28.228-17.146-51.957-40.919-80.064-58.266-42.45-26.2-94.811-37.827-129.135-74.029l-2.135,11.543a43.349,43.349,0,0,1-17.106-23.514c1.62.408,1.166,3.169-.408,3.731s-3.271-.289-4.7-1.153a98.052,98.052,0,0,1-39.744-46.263c-1.875-4.554-4.806-10.195-9.7-9.68a9.816,9.816,0,0,0-4.668,2.229c-13.052,9.772-20.228,25.574-32.246,36.59a58.861,58.861,0,0,1-30.22,14.62l-7.679-6.763c-12.483,28.276-48.3,33.028-68.878,53.123-18.722,18.286-45.214,61.833-77.025,40.8-7.134-4.718-12.678-12.641-18.469-19.882-14.823-18.529-44.333-28.654-63.948-42.347a513.529,513.529,0,0,1-66.142-54.928c-4.644-4.564-9.8-9.507-16.3-9.955-3.411-.235-6.894.831-10.222.037-3.968-.947-6.833-4.3-9.405-7.468q-37.571-46.191-75.14-92.387c-1.484-1.823-3.859-3.837-5.873-2.625s2.162,4.379,1.885,2.046q-12.924-18.472-25.852-36.946-3.477-.794-6.951-1.591l-6.079,40.444c-6.11-4.359-14.736-.5-20.251,4.586s-10.375,11.664-17.643,13.544c-3.2.826-6.605.641-9.776,1.578-5.47,1.613-9.411,6.254-13.111,10.6a386.942,386.942,0,0,1-40.615,41.478c-10.034,8.7-10.234,10.093-19.761,1.863-8.718-7.53-15.714-19.442-22.971-28.419l-3.543,12.775A571.418,571.418,0,0,0,1393.1,63.056c-16.114,17.891-25.972,40.4-35.563,62.488q-11.982,27.6-23.966,55.2a150.518,150.518,0,0,1-14.8-21.426c-27.749,116.989-55.547,234.161-93.562,348.226" transform="translate(-1141.729 127.738)" fill="#b9e1f9" opacity="0.25" style="mix-blend-mode: multiply;isolation: isolate"/>
                <path id="Path_4" data-name="Path 4" d="M2318.826,341.673c-36.031-19.949-154.371-67.092-190.963-84.238-7.258-3.4-15.568-6.241-21.92-11.055-5.8-4.393-8.433-9.413-16.421-10.622-2.276-.344-4.658-.371-6.739-1.373-2.771-1.336-4.5-4.141-6.457-6.543a31.361,31.361,0,0,0-17.01-10.692c-3.235-.762-6.625-1-9.667-2.358-4.161-1.853-7.2-5.549-10.726-8.463-6.283-5.193-14.123-7.9-21.505-11.273-17.089-7.8-30.45-19.2-45.275-30.267-11.078,6.991-18.407,18.106-28.5,26.158-11.825,9.433-28.028,11.8-40.845,19.951-2.761,1.756-5.5,3.659-8.608,4.636-2.635.824-5.423.947-8.134,1.447-6.283,1.158-12.022,4.3-17.626,7.424-12.136,6.773-23.786,14.385-35.546,21.8-8.886,5.606-25.428,20.278-35.961,20.919-8.567.522-15.474-15.38-22.228-22.707a137.065,137.065,0,0,0-29.678-24.332c-6.073-3.683-12.53-6.959-17.5-12.077-4.812-4.958-8.139-11.545-13.954-15.219-5.668-3.577-12.911-3.844-18.509-7.533-8.844-5.826-12.208-19.2-22.371-22.009-3.6-.994-7.79-.524-10.667-2.941-1.731-1.457-2.612-3.688-3.928-5.546-2.85-4.022-7.582-6.1-12.08-7.993l-32.409-13.65c-2.105-.886-4.384-1.932-5.386-4.017-1.435-2.986.408-6.57-.116-9.851-.9-5.665-7.748-7.612-13.272-8.71-26.8-5.329-60-34.054-74-33.067s-33.77,35.281-54.449,43.957c-34.423,14.44-60.3,44.338-92.807,62.827-18.593,10.573-39.024,17.228-58.753,25.379A420.454,420.454,0,0,0,1141.34,343.85c-8.873,11.716-17.408,24.565-19.184,39.259-2.533,20.961,9.687,41.614,26.428,54.043s37.374,18,57.7,22.017c54.191,10.714,109.721,12.183,164.921,11.7,278.447-2.432,557.01-53.578,834.129-25.725,50.05,5.032,100.689,12.619,150.343,4.478" transform="translate(-770.309 221.597)" fill="url(#linear-gradient-3)"/>
                <path id="Path_5" data-name="Path 5" d="M1790.773,139.849a464.017,464.017,0,0,1-51.915,2.419c-6.979,0-13.88,1.032-20.548-.784-8.2-2.234-15.248-4.262-23.894-2.711-4.463.8-8.787,2.323-13.282,2.914-7.075.93-14.222-.477-21.245-1.747a569.09,569.09,0,0,0-169.307-4.935c.651,3.325,4.876,4.282,8.257,4.52q27.768,1.941,55.609,2.474c8.745.168,19.239,1.257,23.184,9.064-8.869,5.826-20.327,5.081-30.927,4.626-48.615-2.085-97.141,6.452-145.8,5.761-45.547-.646-90.687-9.373-136.233-10.115-5.756-.092-12.035.119-16.461,3.8,19.088.6,37.639,6.086,56.453,9.366,38.109,6.647,77.17,4.243,115.742,7.191,27.927,2.137,55.839,7.092,83.773,5.027,24.9-1.843,50.08-9.22,74.414-3.641,7.55,1.729,14.954,4.7,22.7,4.6,10.539-.136,12.681-6.734,19.65-12.344,15.493-12.473,39.4-2.367,56.361-.745,4.606.44,9.319.584,13.792-.6,4.171-1.1,7.956-3.3,12-4.809,18.234-6.793,38.3,1.269,57.739,2.076,15.481.641,31.207-3.379,46.347-.084" transform="translate(-534.47 300.371)" fill="url(#linear-gradient-4)"/>
                <path id="Path_6" data-name="Path 6" d="M2217.019,351.146Q2164.093,325,2112.792,295.732c-48.1-27.444-95.029-56.893-141.94-86.333q-19.44-12.2-38.883-24.4c-9.683-6.078-19.415-12.188-28-19.743-21.3-18.747-36.662-46.926-64.032-54.419a22.17,22.17,0,0,1-13.776,11.1c-22.23,5.9-36.348-13.457-48.044-29-29.142-38.715-21.755-13.673-50.364,12.391-38.77,35.324-107.559,86.675-137.677,128.183-32,44.093-88.315,65.093-121.531,108.274-26.628,34.614-35.344,79.337-43.289,122.28-.849,4.577-1.638,9.571.564,13.675,3.058,5.7,10.39,7.216,16.794,8.1a3609.963,3609.963,0,0,0,585.521,32.862" transform="translate(-1380.154 215.009)" fill="url(#linear-gradient-3)"/>
                <path id="Path_7" data-name="Path 7" d="M1598.631,94.543a118.235,118.235,0,0,1,45.706-1.633c6.009.97,11.963,2.4,18.039,2.763s12.181-.369,18.262-.866a240.263,240.263,0,0,1,55.638,1.939c-2.573,5.257-9.935,5.017-15.785,4.977a52.126,52.126,0,0,0-28.149,8.1c1.27,3.565,5.6,4.819,9.346,5.356,24.089,3.453,48.931-2.127,72.838,2.432,6.256,1.195,12.379,3.072,18.683,3.99,9.695,1.413,19.555.519,29.344.052a458.753,458.753,0,0,1,59.29,1.5c9.71.8,19.4,1.8,29.085,2.862,7.664.841,14.786-3.758,21.792,1.939a352.146,352.146,0,0,1-66.271,4.955c-17.46-.349-34.5-.646-51.92-1.056-2.08-.049-4.955.7-4.715,2.771.151,1.3,1.562,2.019,2.8,2.452a47.041,47.041,0,0,0,12.614,2.528,8.707,8.707,0,0,1,4.129.873c1.212.745,1.939,2.489,1.091,3.632l-51.833-2.568c-13.928-.69-28.184.411-42.013-.562-11.781-.829-22.279-7.434-34.666-6.486-9.984.764-19.034,5.945-28.689,8.6-10.328,2.835-21.2,2.739-31.912,2.622l-94.358-1.024" transform="translate(-1399.097 242.189)" fill="url(#linear-gradient-4)"/>
                <path id="Path_8" data-name="Path 8" d="M1470.217,191.243c70.338-37.706,153.233-46.616,232.714-39.393s156.678,29.651,233.4,51.638c126.531,36.266,255.243,71.916,386.866,72.121-91.256,7.664-177.668,42.906-267.02,62.976-61.2,13.747-123.769,20.357-186.255,25.869-87.855,7.748-176.662,13.351-263.977.94a648.486,648.486,0,0,1-296.88-123.047" transform="translate(-1201.015 327.863)" fill="url(#linear-gradient-7)"/>
                <path id="Path_9" data-name="Path 9" d="M2155.3,212.253c-64.826,12.117-138.375-2.506-203.023-15.545-68.235-13.762-138.335-19.33-207.691-13.4-58.256,4.982-115.495,18-173.333,26.569-70.541,10.454-142.5,11.078-213.648,14.788q-111.948,5.841-223.9,11.679c-17.18.9-34.9,1.927-50.364,9.465-6.414,3.127-12.71,7.889-14.566,14.783-3.013,11.194,6.682,21.542,15.929,28.535,50.683,38.327,114.223,56.136,177.335,63.522,53.6,6.276,113.2,11.29,167.049,6.232,16.1-1.514,30.863-8.369,46.938-9.992,21.844-2.2,44.62-.218,66.565-.183,91.808.143,183.623-1.756,275.367-5.2,158.784-5.972,319.027-13.74,476.351-37.211,34.151-5.094,70.323-9.759,102.676-22.477" transform="translate(-678.986 374.145)" fill="url(#linear-gradient-7)"/>
              </g>
              <g id="Group_5" data-name="Group 5" transform="translate(130.421 655.084)">
                <path id="Path_10" data-name="Path 10" d="M1578.381,196.085c-.057.143-.134.277-.2.421-.027-.178-.037-.359-.067-.537Z" transform="translate(-1373.901 -149.405)" fill="#0f2e60"/>
                <path id="Path_11" data-name="Path 11" d="M1334.419,220.916c.007-.04.017-.079.027-.116l.008.069Z" transform="translate(-527.106 -112.808)" fill="#0f2e60"/>
                <path id="Path_12" data-name="Path 12" d="M1372.5,220.641c-.171-.233-.314-.48-.495-.705A3.388,3.388,0,0,1,1372.5,220.641Z" transform="translate(-658.147 -114.082)" fill="#0f2e60"/>
                <path id="Path_13" data-name="Path 13" d="M1423.981,220.857l-.032-.074C1424,220.745,1424,220.81,1423.981,220.857Z" transform="translate(-838.126 -112.85)" fill="#0f2e60"/>
                <path id="Path_14" data-name="Path 14" d="M1635.82,186.783a16.26,16.26,0,0,1,.549-1.754Q1636.094,185.908,1635.82,186.783Z" transform="translate(-1574.63 -165.528)" fill="#0f2e60"/>
                <g id="Group_4" data-name="Group 4">
                  <g id="Group_3" data-name="Group 3">
                    <path id="Path_15" data-name="Path 15" d="M1286.261,241.467c-4.492-3.661,13.284-22.883,11.313-28.251-4.2-11.441.759-23.937.933-36.071a97.544,97.544,0,0,0,4.047,13.03c.571,1.474,1.816,3.246,3.342,2.734.94-.317,1.348-1.366,1.643-2.293q1.143-3.614,2.288-7.233c-.1,3.993-.151,8.181,1.732,11.733a50.379,50.379,0,0,0,1.95-9.549q1.458,5.1,2.917,10.207a53.733,53.733,0,0,0-.757-10.17,78.848,78.848,0,0,0,4.289,13.1c2.083-3.243,1.912-7.35,1.675-11.174q1.967,5.855,3.936,11.706c.371,1.108,1.319,2.486,2.4,1.994.636-.289.809-1.081.881-1.761a30.963,30.963,0,0,0-.413-9.128,25.227,25.227,0,0,1,3.547,13.027,27.338,27.338,0,0,0,3.1-8.693c.94,4.1,1.946,8.344,4.584,11.671q.333-6.03.269-12.075a60.766,60.766,0,0,1,1.972,13.378q1.447-4.627,2.9-9.252a16.9,16.9,0,0,0,1.187,11.558q.237-3.3.477-6.608,1.629,4.69,3.26,9.386a15.74,15.74,0,0,0,1.519-9.915,54.942,54.942,0,0,1,3.862,12.456,23.307,23.307,0,0,0-.52-11.026q3.192,6.271,6.378,12.542a22.8,22.8,0,0,0,1.222-10.237,45.175,45.175,0,0,1,2.754,10.43,29.9,29.9,0,0,0,.277-11.857,23.462,23.462,0,0,1,3.3,13.665c1.833-3.075,2.368-6.7,2.865-10.229a32.2,32.2,0,0,1-.067,12.136,66.842,66.842,0,0,1,7.424-11.006,17.994,17.994,0,0,0-.787,14.276,40.261,40.261,0,0,0,1.439-10.7,31.736,31.736,0,0,1,3.29,11.934,19.111,19.111,0,0,0,.327-9.715,14.112,14.112,0,0,1,2.4,11.805c1.61,0,2.278-1.977,2.486-3.533q.545-4.093,1.1-8.186c1.2,3.985,1.613,5.715,1.227,9.848l1.687.045a21.442,21.442,0,0,0,4.831-11.862,13.89,13.89,0,0,0,1.123,8.008l1.4-7.694a37.216,37.216,0,0,0,.465,9.737,14.084,14.084,0,0,0,3.181-12.248,29.88,29.88,0,0,1,2.585,12.362,19.059,19.059,0,0,0,2.229-11.892,19.347,19.347,0,0,1,2.214,13.6,13.127,13.127,0,0,0,5.026-10.338,43.231,43.231,0,0,1,1.044,9.9,15.707,15.707,0,0,0,4.106-8.569q.509,4.642,1.015,9.284a16.146,16.146,0,0,0,2.068-11.043,16.177,16.177,0,0,1,3.3,12.933,11.09,11.09,0,0,0,3.988-5.45q.138,2.649.275,5.3a9.432,9.432,0,0,0,4.072-9.175,14.512,14.512,0,0,1,1.744,8.238,20.4,20.4,0,0,0,3.911-11.37,17.991,17.991,0,0,1,2.073,11.676,33.391,33.391,0,0,1,8.126-8.28,14.8,14.8,0,0,0-2.629,8.948,28.272,28.272,0,0,0,6-11.018,82.847,82.847,0,0,1,.52,12.233,17.1,17.1,0,0,0,5.62-11.048q.4,5.058.811,10.118a12.569,12.569,0,0,0,2.969-11.006,14.8,14.8,0,0,1,2.909,11.827,9.881,9.881,0,0,0,3.273-7.978l.086,6.605a31.036,31.036,0,0,1,7.617-9.069,18.311,18.311,0,0,0-2.189,10.14,6.87,6.87,0,0,0,3.159-3.592,17.332,17.332,0,0,0-.3,5.749,11.844,11.844,0,0,0,4.512-8.062l-.5,9.833a26,26,0,0,0,5.368-8.015,69.751,69.751,0,0,1,.455,11.966q2.572-6.52,5.141-13.039c-1.022,4.614-1.321,10.039,2.056,13.433q.531-3.269,1.056-6.543a15.149,15.149,0,0,1,2.2,6.014q-1.121-5.11-2.239-10.219a44.708,44.708,0,0,1,6.3,10.308c1.214-4.643-1.682-9.284-4.448-13.265a11.747,11.747,0,0,1,6.133,6.793c.566,1.687.8,3.619,2.142,4.824a52.942,52.942,0,0,0,.7-9.485c2.427,2.1,1.371,6.036,2.692,8.925a.973.973,0,0,0,.485.559c.564.205.974-.532,1.083-1.108a23.946,23.946,0,0,0-.1-9.316c2.561,2.763,2.179,7.191,4.45,10.185a58.549,58.549,0,0,0,1.442-11.733c2.828,3.335,1.87,8.349,3.565,12.344.93-.017,1.212-1.225,1.212-2.13q0-4.379,0-8.755c3.053,2.231,1.262,10,3.956,12.639a79.493,79.493,0,0,0-.007-12.228c2.058,3.961,2.7,8.451,3.305,12.847,1.855-4.589,1.677-9.69,1.469-14.623,3.206,3.948,3.775,9.272,4.22,14.281,2.17-3.533,2.538-7.81,2.854-11.921.483,3.926.973,12.8,1.455,16.725a33.332,33.332,0,0,0,2.14-15.921c2.491,4.436,2.6,9.72,2.647,14.766,1.618-1.561,1.88-3.985,2.014-6.2q.233-3.893.319-7.795c1.853,5.462,1.84,11.328,1.808,17.074,3.206-5.93,3.129-13.265,6.9-18.863q-.464,7.574-.3,15.169c1.544-2.266,2.068-5.032,2.558-7.713q1.191,4.512,2.382,9.022a39.419,39.419,0,0,0,1.135-9,31.854,31.854,0,0,1,3.333,8.705c.514-3.619.974-7.55-.906-10.721a44.269,44.269,0,0,1,5.888,10.091l-1.885,3.577a25.474,25.474,0,0,0,4.139-14.732c1.72,1.393,2.429,3.636,2.776,5.786s.425,4.371,1.259,6.39c1.526-.552,2.029-2.375,2.251-3.946a55.059,55.059,0,0,0,.542-8.173c2.12,3.582,2.783,7.783,3.406,11.869,2.073-2.961,1.922-6.843,1.692-10.427a21.524,21.524,0,0,1,1.843,11.493q2.709-6.1,5.423-12.2-.063,5.514-.124,11.031a4.575,4.575,0,0,0,.6,2.867,3.316,3.316,0,0,0,1.247-2.214l1.472-5.855a77.955,77.955,0,0,1,2.011,9.348,10.066,10.066,0,0,0,1.947-6.392,22.083,22.083,0,0,0-1.351-6.647,14.939,14.939,0,0,1,3.563,13.861c1.066.183,1.724-1.074,2.018-2.088q1.359-4.7,2.722-9.405a7.3,7.3,0,0,1,.663,3.943q-.086,4.223-.171,8.441a29.52,29.52,0,0,0,3.463-14.224,11.422,11.422,0,0,1,2.459,6.776,33.517,33.517,0,0,1-.624,7.258c2.717-2.523,3.362-6.464,3.654-10.113a16.411,16.411,0,0,1,1.716,10.746,10.559,10.559,0,0,0,3.13-6.321q.6,3.314,1.2,6.63a73.345,73.345,0,0,1,4.121-10.7q1.035,5.336,2.068,10.674a11.92,11.92,0,0,0-.475-7.98c2.907,2.922,5.964,6.13,6.546,10.155a11.425,11.425,0,0,0-1.511-7.815,26.044,26.044,0,0,1,4.942,8.688,45.156,45.156,0,0,0,.173-10.763,8.963,8.963,0,0,1,3.521,5.024,40.693,40.693,0,0,0,2.026,5.878q.353-3.6.426-7.209c1.744,2.568,1.222,6.266,3.354,8.54a21.909,21.909,0,0,0-.252-13.608,14.064,14.064,0,0,1,4.381,7.365,41.007,41.007,0,0,1,1.015,8.569q2.949-5.722,5.9-11.441a63.205,63.205,0,0,0-1.02,13.646c2.315-2.236,2.172-5.863,1.87-9.032a12.493,12.493,0,0,1,2.9,10.125c1.378-.047,1.979-1.695,2.157-3.025a40.224,40.224,0,0,0,.238-8.347c3.29,3.713,3.4,9.086,3.347,13.982q3.2-4.917,6.212-9.95c-.97,3.773-1.947,7.669-1.314,11.513a5.153,5.153,0,0,0,2.179-3.975,40.911,40.911,0,0,1,.433-4.651c2.187,2.741,2.582,6.4,2.9,9.856a14.128,14.128,0,0,0,2.239-9.809c1.672,1.148,2.291,3.3,2.3,5.291s-.475,3.956-.47,5.945l5.01-7.674a34.3,34.3,0,0,0-1.678,8.97,23.017,23.017,0,0,0,1.9-3.844l-.248-.364c2.135-2.956,1.662-12,1.2-14.793a14.719,14.719,0,0,1,2.7,6.076c.423,2.231.342,4.53.579,6.783.186.294.367.589.542.888a23.114,23.114,0,0,0,2.13-6.348l.628,8.141a27.2,27.2,0,0,1,3.417-8.643,17.825,17.825,0,0,0,2.283,11.516c2.251-4.109.492-5.593.435-10.244a7.834,7.834,0,0,1,2.118,5.1c.215,1.865.238,1.323,1,3.045a5.066,5.066,0,0,0,1.086-3.2,31.14,31.14,0,0,0-.131-6.167,19.044,19.044,0,0,1,3.508,10.7,11.631,11.631,0,0,0,1.274-9.133c2.978,3.275,4.609,5.207,4.46,9.586,2.7-3.928,2.509-5.848,1.526-10.467,3.617,3.488,5.326,6.271,4.428,11.157,1.657-1.791,4.2-.22,3.112-9.452,2.051,2.8,1.717,6.575,1.294,9.994a19.872,19.872,0,0,0,2.595-13.774c1.994,1.793,2.6,4.643,2.506,7.285s-.782,5.239-.918,7.882c1.9-4.829,5.274-11.58,9.578-14.625a20,20,0,0,0-4.4,13.215,9.188,9.188,0,0,0,3.315-4.463c.685-1.739,1.071-3.577,1.67-5.346a7.92,7.92,0,0,1,1.153,5.376,40.543,40.543,0,0,0-.44,5.588c1.593-.7,2.281-2.5,2.734-4.139a55.34,55.34,0,0,0,1.227-5.554c.876,3.463.23,7.1-.42,10.613,1.774-.809,2.647-2.776,3.092-4.631s.641-3.832,1.692-5.442c.828,4.158-.124,8.438-1.074,12.579,1.8-3.919,6.036-6.283,8.27-9.987q-.657,4.65-1.311,9.3c-.121.866-.242,1.729-.339,2.6,2.664-1.413,3.505-7.152,4.079-10.046,1.341,2.2.262,4.98.22,7.538a6.942,6.942,0,0,0,1.976-8.327,7.517,7.517,0,0,1,1.786,9.42l-1.969,2.073a4.516,4.516,0,0,0,2.353-2.058,13.88,13.88,0,0,0,1.981-9.994c2.261,3.649,2.1,8.248,1.269,12.438l.092-.487c2.118-3.693,1.84-7.288,2.449-11.469.863.324,1.333,3.681,1.727,4.495q1.361,2.805,2.726,5.613a14.376,14.376,0,0,0,.363-7.3,17.155,17.155,0,0,1,4.614,8.846,6.358,6.358,0,0,0,1.835-6.128,5.179,5.179,0,0,1,2.454,2.761,14.95,14.95,0,0,1,.846,3.634,12.38,12.38,0,0,0,1.341-6.5c1.353,2.046,1.435,4.626,1.474,7.06,1.892-2.845,1.511-6.528.99-9.871a15.228,15.228,0,0,1,4.663,10.311l5.166-6.175-.913,5.739a2.356,2.356,0,0,0,.359,2.132c1.217-1.742,2.321-1.084,3.307-2.956a21.771,21.771,0,0,1,.631,5.727,14.611,14.611,0,0,0,2.429-9.663c2.588,2.6,3.186,6.462,3.659,10.054,1.526-1.7,1.054-4.29.495-6.476a8.651,8.651,0,0,1,3.038,7.429,11.7,11.7,0,0,0,1.848-8.228,22.228,22.228,0,0,1,4.817,10.692c-1.049-3.721,2.243-3.938,2-7.792a14.317,14.317,0,0,1,4.561,6.6c1.141-.606.232-2.647,1.269-3.414a13.111,13.111,0,0,0,1.051,4.111c.841-2.494.238-5.2-.374-7.748,2.259,2.085,2.865,5.309,3.35,8.307l5.054-7.362a44.719,44.719,0,0,0,.583,7.815.844.844,0,0,0,.213.517.631.631,0,0,0,.826-.092,1.712,1.712,0,0,0,.383-.806l1.319-4.782a45.9,45.9,0,0,0,2.283,5.524c.144.292.371.628.7.6.385-.04.5-.524.519-.9a23.781,23.781,0,0,0-.859-7.206,12.907,12.907,0,0,1,4.772,6.066c.257.688.524,1.479,1.215,1.774a15.426,15.426,0,0,0,.9-5.556,16.737,16.737,0,0,1,2.539,6.575,10.683,10.683,0,0,0-1.086-11.112,13.942,13.942,0,0,1,6.264,10.484c1.333-1.427-.149-3.956.967-5.549l2.308,6.434a13.291,13.291,0,0,1,2.011-4.948,3.243,3.243,0,0,0,.494,2.335,48.5,48.5,0,0,0,2.942,5.009l.022.438c.356-4.727.042-3.923-.25-8.653a16.148,16.148,0,0,1,4.037,7.691,6.081,6.081,0,0,0,.416-4.062,44.239,44.239,0,0,0-1.336-6.115c2.63,2.137,5.438,4.569,5.945,7.867.012.086.045.2.173.158l.72,1.655a57.821,57.821,0,0,1,2.18-5.6,12.89,12.89,0,0,0,2.805,6.951A20.981,20.981,0,0,0,1873.3,277.5a13.152,13.152,0,0,1,6.266,8.985,5.776,5.776,0,0,0,.787-3.9l-.1-2.692c2.239,2.024,3.377,4.933,4.208,7.793a12.34,12.34,0,0,0-.356-9.769,9.943,9.943,0,0,1,4.374,6.536c.235,1.338.225,2.82,1.108,3.872a19.013,19.013,0,0,1,3.144-5.744c.391,3.055,1.131,6.375,3.627,8.267.984-3.127-.942-7.412-1.92-10.533,2.971,1.311,4.534,4.544,5.133,7.664.074.4.284.9.693.849a29.981,29.981,0,0,0-.6-10.026,9.012,9.012,0,0,1,5.086,6c.326,1.336.342,2.776,1.029,3.973a17.463,17.463,0,0,0,.831-7.263c1.434.423,1.885,2.142,2.105,3.582s.44,2.9.658,4.346q1.325-3.83,2.286-7.768c1.8,2.273.188,5.742,1.38,8.369a37.184,37.184,0,0,1,3.819-10A38.765,38.765,0,0,0,1918,290.466a13.578,13.578,0,0,0,.695-8.49c2.486,2.061,3.4,5.353,4.193,8.438a8,8,0,0,0,1.086-5.262,44.388,44.388,0,0,1-.443-5.445c2.862,2.513,4.332,6.155,5.7,9.66a26.413,26.413,0,0,0,1.445-4.468,6.876,6.876,0,0,0,1.984,4.121,23.2,23.2,0,0,1,.861-5.047,13.98,13.98,0,0,0,5.153,7.2c-.037-3-1.813-5.316-2.427-8.253a5.257,5.257,0,0,0-1.467-3.092c2.385,2.12,4.874,4.4,5.74,7.429.2.688.646,1.61,1.343,1.375.475-.161.574-.764.579-1.254a27.854,27.854,0,0,0-.309-4.379c1.915,1.269,2.378,3.755,3.137,5.883.1.28.262.6.564.626a.634.634,0,0,0,.46-.19,2.361,2.361,0,0,0,.561-1.717,33.255,33.255,0,0,0-.141-4.713q1.477,3.117,2.951,6.239a3.6,3.6,0,0,0,.507-2.877,33.8,33.8,0,0,0-1.457-6.471,12.782,12.782,0,0,1,3.439,5.064c.582,1.586.853,3.317,1.836,4.7a15.619,15.619,0,0,0,1.576-4.247q.876,2.4,1.784,4.794a25.608,25.608,0,0,0,1.719-4.844,22.727,22.727,0,0,0,2.9,5.823l.069-1.751a37.885,37.885,0,0,0-1.311-7.98c2.867,1.539,4.235,4.73,5.746,7.553.122.225.289.477.549.487.406.017.544-.517.532-.91-.136-3.679-1.747-7.132-3.33-10.474a24.785,24.785,0,0,1,6.578,9.2,1.969,1.969,0,0,0,.513.839.693.693,0,0,0,.915.007.86.86,0,0,0,.166-.49,7.915,7.915,0,0,0-.131-2.048,31.3,31.3,0,0,0-1.8-6.506c2.632,2.494,4.006,5.95,5.307,9.292a23.663,23.663,0,0,1,.848-2.781,9.963,9.963,0,0,1,1.764,5.064q1.224-2.664,2.454-5.329a14.042,14.042,0,0,0,2.5,7.013c-.24-4.294-.994-6.422-1.541-11.273l3.08,5.878c.257.49,1.323,2.1,1.811,1.818.327-.19.342-.636.317-1.007l-.359-5.46a28.144,28.144,0,0,1,3.874,7.807,16.4,16.4,0,0,0-.806-10.684c2.961,2.338,4.2,6.113,5.3,9.668q.594-1.915,1.259-3.807a8.9,8.9,0,0,1,1.487,3.889,11.709,11.709,0,0,0,.69-3.122,4.528,4.528,0,0,0-.48-2.266,18.476,18.476,0,0,1,3.315,7.874c.173-2.884.366-7.429,1.929-9.89q1.276,3.058,2.551,6.115c.183.44.529.97,1,.856l-1.17-3.943a5.569,5.569,0,0,1,3.33,2.147,23.165,23.165,0,0,0,2.637,3.03,7.568,7.568,0,0,0-3.231-7.592,14.223,14.223,0,0,1,7.036,6.5,4.876,4.876,0,0,0,.21-3.9c-.384-1.281-1.022-2.486-1.356-3.782a6.925,6.925,0,0,1,4.218,5.282,8.337,8.337,0,0,0,.547,2.855,19.873,19.873,0,0,1,4.443-10.776c-.97,1.774-.678,3.924-.28,5.89.369,1.816.809,3.622,1.318,5.405,1.5-1.613,1.623-4.013,1.427-6.177-.168-1.86-.51-3.7-.851-5.536a24.82,24.82,0,0,1,3.6,9.193c.081.475.3,1.079.794,1.064.539-.017.678-.732.648-1.257q-.137-2.549-.277-5.1a13.321,13.321,0,0,1,1.841,6.39c.786-.166,1.031-1.123,1.091-1.9a30.889,30.889,0,0,0-.084-5.638,6.145,6.145,0,0,1,1.853,4.252,29.915,29.915,0,0,0,.463,4.713,22.7,22.7,0,0,0,2.7-14.573c3.253,3.461,4.329,8.337,4.816,13a15.432,15.432,0,0,0,1.4-6.019c1.068.5,1.38,1.808,1.568,2.949q.293,1.785.586,3.567a2.323,2.323,0,0,0,.9-2,14.9,14.9,0,0,0-.643-5.237c1.816,2.466,3.661,5.346,3.052,8.329l.034,4.074c.32-2.6,1.7-5.158,2.192-7.8a11.93,11.93,0,0,0-.94-7.246,16.338,16.338,0,0,1,5.838,8,2.807,2.807,0,0,0,.937,1.611,12.519,12.519,0,0,0-1.331-11.335,15.51,15.51,0,0,1,6.363,11.565c.62-3.79,3.112-7.085,3.9-10.848a24.589,24.589,0,0,0,2.708,11.325,12.5,12.5,0,0,0,.4-5.771,7.684,7.684,0,0,1,2.184,4.346,1.089,1.089,0,0,0,.245.665.736.736,0,0,0,1.046-.228,1.854,1.854,0,0,0,.185-1.158,19.571,19.571,0,0,0-1.091-5.264,20.546,20.546,0,0,1,2.929,5.507c.361-.208.383-.7.349-1.106a29.326,29.326,0,0,0-2.249-9.141,22,22,0,0,1,7.029,10.308c.495-.025.613-.678.586-1.158q-.115-2.026-.23-4.052a30.091,30.091,0,0,1,2.687,5.544c.871-1.959.722-4.181.557-6.3,1.815,1.868,3.008,6.848,3.032,9.42q2.1-2.753,4.206-5.509a3.106,3.106,0,0,0-.054.618q.066,2.776.27,5.546l-.332,3.335a4.072,4.072,0,0,0,.712-2.823,46.424,46.424,0,0,0-.561-6.724l.643-.841c-.376.067-.559.393-.651.772a46.681,46.681,0,0,0-1.571-6.714,19.055,19.055,0,0,1,5.979,14.165l-.166,1.751a15.621,15.621,0,0,0,.868-9.658,15.9,15.9,0,0,1,2.587,4.648,9.275,9.275,0,0,1,.594,1.826c.02-.245.042-.49.047-.727.045-3.164-.329-6.486-2.155-9.1,2.231,2.518,4.156,7.835,5.41,10.927a2.715,2.715,0,0,1,.1,2.541l.5.413c.875-2.456-.334-5.079-.994-7.595a18,18,0,0,1-.213-8.216c.767.873.48,2.194.765,3.308a7.772,7.772,0,0,0,1.524,2.565,19.012,19.012,0,0,1,3.317,7.31c.551-.381.536-3.552.557-4.21.054-1.818-.149-1.215-.856-2.9,2.249,1.915,3.807,2,4.71,4.77a4.314,4.314,0,0,0,.4-2.8,24.171,24.171,0,0,0-2.459-8.384c1.7,1.375,3.688,7.627,5.114,9.277a11.976,11.976,0,0,1,2.909,5.724c.96-2.526.139-5.588,1.675-7.83a12.73,12.73,0,0,0,3.483,6.763,4.484,4.484,0,0,0-1.083-4.9,27.052,27.052,0,0,1,5.066,6.907l.082,4.129a23.756,23.756,0,0,0-3.431-15.159,33.272,33.272,0,0,1,5.313,5.2c.871,1.155,1.672,4.114,2.175,6.865a19.743,19.743,0,0,0-3.186-14.217c3.824,4.376,7.095,11.718,9.8,16.819l.663.28a29.539,29.539,0,0,0,1.247-11.523c2.929,2.719,4.21,6.852,4.421,10.689,1.146-2.7,1.949-5.576,3.2-8.225,1.571,3.723,2.642,7.689,4.626,11.256a30.181,30.181,0,0,1,2.1-9.2c.438,3.458,1.111,7.127,3.035,10.133-1.207-1.888,4.213-11.261,5.44-12.757-.544,5.19.208,5.655,2.637,10.3,1.682-4.356,4.975-5.737,9-8.268-2.813,4.47-3.891,5.217-2.447,10.251.747-1.232,2.051-3.374,6.464-10.635-.008,3.931-.151,5.43-.159,9.361.849-2.273,2.323-6.224,4.7-12.594.51,3.154-.371,8.765-.732,11.941s.037,4.418,2.721,6.254a1.438,1.438,0,0,0,.938.324,1.542,1.542,0,0,0,1.014-.814c2.719-4.107,3.367-9.68,7.424-12.567-1.806,4.723-3.871,5.2-1.712,9.762,1.487-3.968,3.785-2.884,6.283-6.345-3.53,4.888.178,10.665,5.076,11.869l12.9,3.164c-.04.717-.962.967-1.677,1.012-11.263.73-22.445-.267-33.515,2.424-10.667,2.593-22.262,2.4-33.129,1.027-4.6-.581-9.16-1.761-13.8-1.608-6.907.23-13.319,3.374-20,5.1a170.7,170.7,0,0,1-42.72,5.841c-17.01-.022-33.711,3.587-50.315,7.948-54.441,17.477-105.968,46.508-158.863,69.316l-567.857,31.647-9.739-169.453C1279.891,261.812,1290.756,245.126,1286.261,241.467ZM2130.6,298.454l-.072-.156C2130.352,298.877,2130.431,298.87,2130.6,298.454Zm-31.957-5.207-.873.863A2.252,2.252,0,0,0,2098.64,293.247ZM1688.908,266.46l-.982-1.442c.025.848.027,1.7.015,2.538A6.876,6.876,0,0,0,1688.908,266.46Z" transform="translate(-1283.613 -177.146)" fill="#0f2e60"/>
                  </g>
                </g>
              </g>
            </g>
            <g id="Mask_Group_1" data-name="Mask Group 1" transform="translate(-216 36)" clip-path="url(#clip-path-2)">
              <g id="Group_56" data-name="Group 56" transform="translate(-2615.211 -275.314)">
                <path id="Path_32" data-name="Path 32" d="M3767.168,1705.6c-6.3-7.345-4.9-9.3-4.9-9.3s-2.738-15.573-1.863-17.972,6.329-6.55,6.109-9.6-1.309-8.73-2.183-13.749-4.8-11.785-8.075-10.693.656,5.893,0,6.547-4.144-.219-5.892,3.492-6.984,8.73-5.02,12.22,3.05,22.723,1.523,24.034-1.086.63-.867,2.811c.107,1.09-.846,5.263-.219,8.728s-.869,5.644-1.086,6.627c-.437,1.962-3.06,6.033-4.587,10.615s-1.746,10.7-4.148,11.349-4.146-.654-5.673,2.62-20.515,15.273-23.571,14.839-7.418-5.02-7.418-5.02a3.437,3.437,0,0,1-.873-4.473c.479-.827.655-1.8,5.074-5.893s4.747-11.621,4.747-11.621,15.677-43.276-17.829-42.913a27.96,27.96,0,0,0,3.971-12.353c.9-8.835-13.163-29.48-14.215-31.849s-4.738-18.954-4.738-18.954l-1.514-1.12s1.184-4.739-1.382-11.649-16.387-15.005-16.387-15.005l-3.357-27.51-52.651-21.06.923,22.639c-9.215,4.87-9.872,17.9-9.872,17.9,11.188,12.636,42.119,24.878,42.119,24.878l6.846-10.135,3.948,1.579,2.9,6.449a10.376,10.376,0,0,0,1.58,6.976c1.011,1.547,3.995,2.787,6.185,4.608a26.954,26.954,0,0,1,4.476,4.869c-.132,1.844-2.5-1.184-.132,18.954s-8.028,34.88-10.267,36.065-6.844.66-10.662,1.055c-2.414.25-3.928,5.21-7.633,8.292-2.155,1.789-5.821,2.4-8.819,2.5a9.791,9.791,0,0,1-10-7.107s-1.447-6.186-.791-8.95,4.608-9.083,4.608-9.083c1.316,1.317,3.553-7.24,3.423-9.082s-2.5-1.052-2.5-1.052c.528-2.9.789-13.426-.262-16.322s-3.949-10.794-9.743-14.743c-4.367-2.979-9.933-1.913-13.647-1.436l-47.461-33.98-24.084,6.713,11.751,8.98-7.707,9.043s6.366,7.77,9.385,13.362a43.234,43.234,0,0,0,3.573,5.41,29.959,29.959,0,0,0,3,10.667c1.788,3.35,9.39,5.814,9.167,8.942a20.724,20.724,0,0,0,.67,6.261s-3,5.929-4.93,11.212c-3.221,1.956-8.41,10.639-9.085,14.518-.79,4.541.2,15.005,0,15.6-.085.256-1.315,2.1-2.683,4.108a6.009,6.009,0,0,0-2.308.628c-1.187.73-4.088,3.249-5.539,4.27l-.725-.121a5.389,5.389,0,0,0-.579.187,17.443,17.443,0,0,1-2.661-5.346c-.111-1.007,15.094-16.992,10.51-36.78-1.313-5.673-6.2-11.8-9.39-14.313-7.938-6.244-17.834-3.208-25.493-3.687a18.853,18.853,0,0,0-11.1,2.842c.548-6.212,1.326-11.264,2.344-14.188,4.163-11.955-1.814-33.478-3.966-45.673s-11.478-40.889-11.478-40.889a25.756,25.756,0,0,0-.9-5.918c-.9-3.407-8.25-17.934-8.43-22.776s-.717-6.635-2.331-7.891-6.276-6.456-10.4-9.684c-3.68-2.879-8.351-3.473-10.593-2.676l-67.478-24.354.381,6.852-2.609,1.5c-2-1.918-18.914,5.607-18.914,5.607l2.044,6.067c2.459-3.277,8.789-6.3,8.789-6.3a51.006,51.006,0,0,0-5.634,5.311l1.074,1.866c3.056-4.036,11.852-8.889,13.314-9.94s.062-1.692.062-1.692l1.944-1.118.985,17.712,6.608.335-6.043,17.547a93.271,93.271,0,0,0,22.644,14.9c13.545,6.276,29.652,6.939,29.652,6.939s4.393-18.253,6.26-19.327a2.827,2.827,0,0,1,1.727-.071c1.719,3.759,8.106,8.424,12.5,14.434,4.544,6.218,9.085,7.413,9.085,10.282s-4.542,42.555-5.259,49.251,2.511,31.332-3.227,37.789-10.762,13.629-10.762,18.293-2.152,5.022-4.3,7.174-9.326,15.423-12.913,18.65-3.706,6.336-11.359,2.272a71.863,71.863,0,0,0,2.869-11.478c1.2-6.932-1.671-18.413-2.869-23.672s-9.8-9.324-15.541-12.671-9.326-3.109-10.521-2.632a49.049,49.049,0,0,0-4.784,2.87s-4.233-.343-5.977.476c-4.066,1.914-6.276,7.714-7.233,8.43-.483.362-1.879,4.191-3.1,8.414a7.9,7.9,0,0,0-1.922-1.093c-1.952-.765-5.075-2.4-4.757-3.292s-.124-.955-.253-1.466,2.1-1.019,1.974-2.23,1.083-4.2,0-4.394-2.356,3.565-2.356,3.565l.719-32.827a12.636,12.636,0,0,0-4.754-.723,11.674,11.674,0,0,0-5.522,1.444l-.084,31.151-.426.15-.02,3.821.338-.021v1.041c-1.422,0-2.652,1.911-2.652,1.911a14.954,14.954,0,0,0-2.5-.892c-3.169-.913-3.951,1.529-4.206,3.438s4.885,5.225,4.885,5.225-1.019-.042-1.148,3.059,2.255,3.652,2.042,3.864a5.43,5.43,0,0,0-1.489,3.184,3.826,3.826,0,0,0,1.19,2.678s-.51,0-.595,2.377,3.99,4.247,3.99,4.247l.171,4.33c.085.938,1.445,1.108,1.445,1.108-.758,4.547,3.287,20.729,1.75,27.538-2.237,1.314-4.366,2.675-6.257,4.049-5.342.05-12.448-2.566-14.1-3.392-2.375-1.186-11.123-3.308-15.33-3.563s-8.152-.255-9.938-1.148-2.675-.129-4.714-1.02-3.441-7.2-5.095-7.516-5.288,1.211-5.288,1.211l-.318-3.188c1.146-.7,5.988-11.145,6.879-14.078a42.156,42.156,0,0,0,1.148-10.572c-.129-1.786,2.292-8.155,1.784-10.068s-2.424-7.643-2.166-11.083-3.06-8.918-3.06-8.918c-.636-1.021-2.036-3.314-2.036-3.314l1.526-.126,3.7-26.926-64.34,18.134-.383,12.232s-2.548-3.059-3.821-3.187-2.548,1.53-2.548,1.53a6.344,6.344,0,0,0-2.676-1.146c-2.547-.126-3.229,2.592-3.229,2.592a5.647,5.647,0,0,0-3.225-1.359c-1.7,0-3.568,3.057-6.8,5.266s-5.1,8.154-5.1,8.154-2.327,5.895-5.363,6.8a39.014,39.014,0,0,0-9.174,4.842,64.209,64.209,0,0,0-5.637,4.334c-1.09-2.117-1.007-8.528-1.223-10.077-.236-1.679,3.971-7.717,3.389-13.534a4.792,4.792,0,0,0-.431-2.017c-.462-7.132-2.691-17.835-11.42-23.169-5.566-3.4-14.557-3.445-21.86-1.359.652-15.543,1.555-30.4,4.751-38.677,2.739-7.1,4.506-28.373,7.178-33.712s7.177-11.019,7.008-14.188-5.507-10.35-12.348-9.68l.712-18.33-2.1-4.931s1.391-7.783,2.723-10.455c1.313-2.628,5.728-7.12,6.846-13.8.631-3.789.669-7.119,2.446-10.9s7.118-15.134,3.78-15.8-7.113,14.189-9.23,12.129,5.675-22.589,2.117-24.147-6.346,20.03-9.017,19.807,4.671-24.59-.782-26.036-4.561,29.151-7.788,28.928-5.228-21.53-8.9-20.8,1.422,16.718,1.259,20.724.3,10.542-2.818,9.873-4.567-4.228-4.567-4.228-.273-1.057-1.888-5.117-5.619-4.675-6.9-3,2.06,4.673,3.395,6.51,1.722,9.513,3.172,13.519,9.346,10.683,9.346,10.683l-1.5,11.516-2.625,4.611-4.052,16.25s-13.645,29.94-25.161,34.448-6.03,19.94-14.374,29.677c-12.232,14.27-16.5,12.212-16.5,18.442s-5.557,5.339-8.453,6.452-12.1,5.086-19.14,12.128c-4.336,4.337-9.144,2.25-9.678-3.34s-1.006-10.955-1.677-15.962,3.012-4.733,4.013-8.074,4,0,3.672-9.679l-.332-9.681v-2.67l23.03-15.021-46.4-43.4-56.745,39.389L2987,1567.19s1.333,13.352,5.338,15.691c2.842,1.656,3.156.966,3.106.424.384,1.632,1.937,7.719,4.239,10.59l-.666,15.023s-1,11.35-6.679,10.68c-4.06-.477-12.394-6.254-16.317-11.091l-9.383-43.4-27.462-4.664a71.3,71.3,0,0,1-8.591-9.945c-5.676-8.344-16.942-10.491-18.945-11.493-1.478-.739-8.6-9.659-17-21.33-3-4.166-10.91-4.761-11.788-7.572l-4.262-8.823s5.3-8.88,5.37-13.139-2.05-11.648-1.387-13.816,2.849-6.1,1.1-7.259-5.342.717-5.55,5.083-.123,5.451-.123,5.451-.216,3.837-2.949,5.482-4.414-4.686-5.869-8.425-1.825-20.519-5.535-20.01,1.315,21.31-1.667,22.568-12.067-27.974-16.755-24.836,10.164,23.806,7.713,24.881-12.088-18.439-14.959-15.808,11.174,19.52,9.841,22.152-9.729-10.191-12.667-8.476,5.791,10.717,8.7,13.718,4.024,6.14,5.851,9.52c3.228,5.954,8.863,8.768,10.957,10.829,2.127,2.094,6.392,8.862,6.392,8.862l-.7,7.036c1.168,7.01,3.253,13.608,3.923,16.944s10.9,12.318,16.469,28.713c3.338,9.823,2.6,64.729,7.276,70.732,1.475,1.9,2.976,6.025,4.417,11.014-.161,2.462-.2,8.5-1.453,9.8a29.3,29.3,0,0,1-3.04,2.687s-3.214.582-5.491,6.133c0,0-1.4.5-3.714,1.231-4.12-8.506-3.759-8.886-12.083-14.821a39.022,39.022,0,0,0-9.174-4.842c-3.037-.9-5.363-6.8-5.363-6.8s-1.869-5.947-5.1-8.154-5.1-5.266-6.8-5.266a5.646,5.646,0,0,0-3.225,1.359s-.682-2.717-3.229-2.592a6.347,6.347,0,0,0-2.676,1.146s-1.273-1.656-2.548-1.53-3.821,3.187-3.821,3.187l-.383-12.232-64.34-18.134,3.7,26.926,1.526.126s-1.4,2.293-2.036,3.314c0,0-3.312,5.477-3.06,8.918s-1.655,9.174-2.166,11.083,1.913,8.281,1.784,10.068a42.125,42.125,0,0,0,1.148,10.572,90.6,90.6,0,0,0,4.807,10.813,220.132,220.132,0,0,0-27.442-13.206s-1.044.522-.262-6.245,12.491-9.5,14.053-31.489c.315-4.414-4.619-19.977-5.66-20.758s-3.447-7.092-7.872-9.175c-1.9-.892-6.506-.518-6.506-.518a53.375,53.375,0,0,0-5.207-3.124c-1.3-.519-5.205-.781-11.451,2.864-1.8,1.053-3.871,2.171-5.927,3.368l-.006-2.093a11.674,11.674,0,0,0-5.522-1.444,12.634,12.634,0,0,0-4.753.723l.241,10.985a7.546,7.546,0,0,0-.948,2.253c-1.3,5.724-4.425,18.22-3.122,25.765.07.4.141.8.214,1.19-.371.169-.731.322-1.058.45-1.954.764-3.822,2.462-3.822,4.16,0,1.078-.341,4.986-.764,8.007-1.2-.861-2.171-2.312-3.81-3.787-3.9-3.513-11.713-17.957-14.055-20.3s-4.684-2.733-4.684-7.808-5.466-12.885-11.712-19.909-2.733-33.843-3.513-41.13-5.724-50.481-5.724-53.6,4.944-4.423,9.889-11.191c4.779-6.541,11.73-11.619,13.6-15.711a3.077,3.077,0,0,1,1.88.077c2.032,1.169,6.813,21.035,6.813,21.035s17.53-.721,32.273-7.552a101.505,101.505,0,0,0,24.645-16.22l-6.577-19.1,7.192-.365,1.072-19.277,2.116,1.217s-1.528.7.067,1.841,11.165,6.425,14.492,10.818l1.169-2.031a55.467,55.467,0,0,0-6.133-5.78s6.889,3.289,9.566,6.855l2.225-6.6s-18.408-8.19-20.585-6.1l-2.84-1.633.415-7.457L2670.231,1460c-2.44-.867-7.524-.222-11.529,2.912-4.489,3.513-9.563,9.173-11.32,10.54s-2.342,3.319-2.537,8.588-8.2,21.082-9.175,24.79a28.025,28.025,0,0,0-.976,6.441s-10.15,31.231-12.493,44.5-8.846,36.7-4.315,49.71,4.707,64.673,1.193,83.41a76.9,76.9,0,0,0-.839,20.931c-6.8.553-12.164,5.333-16.383,4.754-4.277-.588-10.76-7.609-10.76-7.609,4.191-.669,5.729-4.214,5.893-7.232a115.865,115.865,0,0,1,3.438-16.934c1.342-4.529.256-9.983.507-11.912s1.427-3.1.924-3.937.52-2.314,1.007-9.815c.5-7.647-8.387-16.548-19.117-15.874-7.659.48-17.556-2.556-25.494,3.688-3.186,2.511-8.077,8.64-9.39,14.313a33.533,33.533,0,0,0-.819,9.228c-1.209-1.046-2.788-2.22-5.018-3.81a40.913,40.913,0,0,0-7.952-4.36c-1.877-4.715-4.21-9.33-4.21-9.33a20.733,20.733,0,0,0,.67-6.261c-.223-3.129,7.379-5.592,9.167-8.942a29.979,29.979,0,0,0,3-10.667,43.279,43.279,0,0,0,3.572-5.41c3.019-5.591,9.385-13.362,9.385-13.362l-7.707-9.043,11.751-8.98-24.083-6.713-49.723,35.6,22.49,6.724s3.972,8.011,10.965,11.453a27.141,27.141,0,0,1-.907,6.119,3.174,3.174,0,0,0-1.885-.97,5.443,5.443,0,0,0-3.108,1.309s-.656-2.618-3.111-2.5a6.108,6.108,0,0,0-2.578,1.105s-1.227-1.6-2.455-1.474-3.683,3.071-3.683,3.071l-.368-11.786-61.991-17.472,3.56,25.942,1.471.122s-1.349,2.21-1.962,3.193c0,0-3.192,5.277-2.948,8.592s-1.594,8.84-2.086,10.678,1.843,7.979,1.719,9.7a40.6,40.6,0,0,0,1.106,10.186c.858,2.826,5.523,12.891,6.627,13.565l-.307,3.071s-3.5-1.473-5.095-1.166-2.943,6.383-4.909,7.242-2.822.124-4.542.982-5.524.86-9.574,1.107-12.483,2.29-14.772,3.433-15.551,5.894-18.822,1.311,1.717-23.568.9-28.477c0,0,1.31-.164,1.392-1.068l.165-4.172s3.929-1.8,3.845-4.092-.574-2.29-.574-2.29a3.686,3.686,0,0,0,1.146-2.581,5.235,5.235,0,0,0-1.434-3.067c-.205-.2,2.088-.735,1.968-3.722s-1.106-2.947-1.106-2.947,4.951-3.192,4.706-5.034-1-4.193-4.052-3.313a14.451,14.451,0,0,0-2.414.859s-1.185-1.841-2.556-1.841v-1l.326.021-.02-3.681-.41-.145-.082-30.014a11.252,11.252,0,0,0-5.32-1.391,12.18,12.18,0,0,0-4.581.7l.693,31.628s-1.227-3.62-2.27-3.435.122,3.068,0,4.233,2.026,1.657,1.9,2.148-.551.553-.243,1.413-2.7,2.435-4.584,3.172-3.683,2.372-3.683,4.008-.818,10.066-1.474,11.212-1.8.819-2.454,2.128-11.212,28.991-14.158,32.919-5.565,17.166-4.908,24.532-2.4,17.091-2.947,19.968c-1.792,9.328,7.213,17.29,11.619,24.878,5.593,9.631,5.649,20.743,15.221,20.743s18.711-17.8,24.795-15.344c5.167,2.085,5.16.737,5.16.737s-.125,9.7,1.841,14.607c0,0,4.3,8.715,3.8,12.4s-5.891,26.026-5.4,36.583.245,7.121-1.473,22.586-3.933,41.737-3.933,41.737h938.869s-1.02-12.106-2.228-24.933c2.453,5.339,6.555,11.481,11.029,12.972,7.174,2.393,10.521,8.614,10.521,11.961h392.159s-8.511-57.4-7.857-65.907a8.786,8.786,0,0,0,7.857,2.619c5.237-.657,4.583-17.678,7.2-33.391s1.31-38.627,10.475-58.27S3775.026,1714.769,3767.168,1705.6Zm-1207.8-7.554a15.915,15.915,0,0,1-1.568,3.682,42.1,42.1,0,0,1-1.352-8.077C2558.145,1696.2,2559.405,1697.758,2559.373,1698.05Zm-73.071,7.629a50.567,50.567,0,0,1-4.421-3.313c1.228-2.579,2.21-13.5,2.21-13.5a31.56,31.56,0,0,0,3.562-5.769l.858-1.843c.859-1.838,3.193-3.557,4.42-9.327s-3.069-5.032-3.069-5.032c-.736-2.823.736-11.417.736-11.417l10.19,2.947a33.527,33.527,0,0,1,4.226,6.223c1.055,2.005,1.388,3.374,2.707,4.42-3.358,8.956-7.96,15.769-5.477,22.4,1.041,2.776-3.488,9.269-4.741,13.224C2491.348,1704.949,2486.3,1705.679,2486.3,1705.679Zm325.188-25.135a32.717,32.717,0,0,0,3.7-5.987l.891-1.913c.891-1.908,3.314-3.691,4.587-9.68s-3.185-5.223-3.185-5.223c-.764-2.93.764-11.85.764-11.85l10.576,3.058a34.827,34.827,0,0,1,4.387,6.459c1.273,2.421,1.529,3.95,3.567,5.094,1.342.755,4.933,1.086,4.969,1.146a22.857,22.857,0,0,0,1.272,4.97c1.274,2.96,3.306,5.692,4.205,7.9.573,1.405,1.207,3.086,1.838,4.865-9.809,4-17.343,13.755-19.5,17.935a16.772,16.772,0,0,0-3.615-.377c-6.626.256-12.157,1.057-12.157,1.057a52.506,52.506,0,0,1-4.588-3.438C2810.47,1691.884,2811.489,1680.544,2811.489,1680.544Zm-178.1,112.336c.941-1.551,2.728-6.727,7.872-9.57a6.9,6.9,0,0,0,1.337-.961c.261,3.126.578,5.837.942,7.843,1.5,8.243-5.365,25.387-10.88,40.558A175.413,175.413,0,0,1,2633.393,1792.88Zm313.457,95.929c-.686-9.92-1.307-21.252-1.137-27.911.35-13.757.7-57.417,0-63.455a71.04,71.04,0,0,1,6.6-10.48c.985,14.778,2,27.823,2,36.294C2954.3,1832.94,2949.871,1866.832,2946.849,1888.808Zm172.531-46.077c-.38-2.274,2.1-36.433,2.782-47.3.294-4.727.389-9.584.341-14.437,6.93,5.959,12.1,16.446,12.1,16.446-.7,6.038-.351,49.7,0,63.455.243,9.571-1.146,28.794-2.014,39.6C3129.542,1891.667,3124.632,1874.241,3119.381,1842.731Zm26.2-161.53c-2.8.839-7.713.168-9.465,1.344a16.612,16.612,0,0,1-3.538,1.7,131.277,131.277,0,0,1,11.53-18.6,19.055,19.055,0,0,0,2.906-6.114,98.385,98.385,0,0,0,7.157,8.758c-.7,3.354.877,8.386.877,8.386S3148.387,1680.363,3145.583,1681.2Zm72.737-14.582a22.85,22.85,0,0,0,1.272-4.97c.036-.06,3.628-.391,4.97-1.146,2.037-1.144,2.292-2.673,3.566-5.094a34.8,34.8,0,0,1,4.387-6.459l10.576-3.058s1.528,8.92.764,11.85c0,0-4.46-.766-3.186,5.223s3.7,7.772,4.588,9.68l.89,1.913a32.73,32.73,0,0,0,3.7,5.987s1.019,11.34,2.293,14.017c0,0-.956.785-2.02,1.613-3.575-5.937-14.3-18.344-27.047-18.551a68.348,68.348,0,0,1-9.8-.959c.29-.763.572-1.485.842-2.145C3215.014,1672.311,3217.046,1669.579,3218.32,1666.619Zm354.265-40.678,8.754-2.617c-2.829,2.521-5.561,5.166-6.994,6.241-3.158,2.369-1.316,7.371-.265,8.687s1.58,16.848,1.58,16.848.265,5.79,1.579,7.9,4.344,4.081,5,6.056-.133,7.108-.133,7.108-.789-.527-1.974.525c-.489.434-.933,1.924-1.286,3.523-1.481-3.986-3.708-8.334-5.379-13.35-3.353-10.062-5.143-17.215-8.944-16.994,0,0-2.888-7.327-2.906-12.47C3568.613,1633.952,3572.584,1625.941,3572.584,1625.941Zm-83.8,85.115q-.181-1.26-.412-2.5c-.033-.174-.064-.355-.1-.534a6.893,6.893,0,0,0,2.6.949S3490.044,1709.875,3488.782,1711.056Z" transform="translate(0 -764.946)" fill="#0f2e60"/>
                <g id="Group_55" data-name="Group 55" transform="translate(2360.014 378.101)">
                  <path id="Path_33" data-name="Path 33" d="M3874.521,436.975l51.941,20.338-28.16,56.321-49.439-17.209,7.823-17.525s-6.189-3.189-2.817-11.731c2.476-6.277,3.442-5.633,5.007-8.606s-2.657-9.229,3.6-13.925,10.638-3.284,10.638-3.284Z" transform="translate(-3508.359 -417.204)" fill="#0f2e60"/>
                  <path id="Path_34" data-name="Path 34" d="M6689.283,466.824,6760.6,488.83l22.415-67.245-58.188-17.117s-4.164-1.766-3.755-4.755,3.666-6.384,6.384-6.52,2.578-2.039,3.26-3.261,2.308-2.038,3.939,0,3.805,2.58,5.162,3.123.4-2.038-3.67-6.25c-1.3-1.342-4.114-3.323-5.841-3.259-3.968.145-4.829,2.531-10.187,7.742a72.429,72.429,0,0,1-7.336,6.522s-8.291,1.223-8.291,2.308,6.525-1.359,7.881,1.36S6689.283,466.824,6689.283,466.824Z" transform="translate(-5568.891 -291.088)" fill="#0f2e60"/>
                  <path id="Path_35" data-name="Path 35" d="M5245.461,386.159c-.6-1.519,1.234-3.478-.3-3.607-3.607-.3-11.122,5.713-12.928,4.21s3.459-2.556,4.662-7.366-5.564,5.26-9.472,6.163-29.682,13.23-29.765,16.087a6.019,6.019,0,0,0,.105,1.293l-12.682,4.74-19.4-18.612-78.974,36.081,37.283,40.087,7.816-4.41c1.605,3.208,9.218,24.66,13.23,25.459s29.064-25.859,34.276-34.678,2.806-16.436,2.806-16.436l23.252-8.018-18.368-17.627,11.813-4.416a3.06,3.06,0,0,0,1.091.744c1.445.514,11.426,1.8,15.186-1.653s12.026-8.119,17.739-4.511,5.561,5.262,6.463,4.511-5.112-7.517-5.112-9.621,9.171-1.2,12.778-3.309C5249.037,390.063,5246.275,388.209,5245.461,386.159Z" transform="translate(-4404.613 -286.101)" fill="#0f2e60"/>
                  <path id="Path_36" data-name="Path 36" d="M7430.287,534.371l-66.016-56.4-20.629,50.709,7.294,5.229c-2.231,2.808-5.943,10.682-4.977,14.656s23.173,23.525,33.368,24.533,16.086-4.386,16.086-4.386l9.6,9.956a8.834,8.834,0,0,0-.944,4.461c.567,5.075-.564,14.5-6.851,16.972s-7.531,1.373-7.46,2.545,9.086.323,10.783,1.567-4.453,8.107-4.887,12.261c-.252,2.386,12.363-4.914,15.53-1.1s-.953-7.6.631-11.282c1.33-3.094,5.277-23.382,5.174-30.849Z" transform="translate(-6364.961 -520.22)" fill="#0f2e60"/>
                  <path id="Path_37" data-name="Path 37" d="M2542.958,390.823c-1.307,2.182-.654,5.1-2.182,2s-1.09-8.77-3.711-7.461,1.964,14.845-1.311,16.372-5.457-1.092-5.019-4.15c.209-1.456-.043-4.994.875-8.727,1-4.1,3.115-8.379,1.744-8.95-2.619-1.093-2.836,5.02-4.368,10.258s.066,13.1-3.351,12.442a.07.07,0,0,1-.018,0c.407-5.582-1.9-10.262-1.685-13.848.358-5.815,3.092-8.894,2.956-9.351a1.377,1.377,0,0,0-1.648-.955,1.239,1.239,0,0,0-.892,1.556c.061.6-2.746,4.057-3.036,8.661-.268,4.261,2,9.523,1.665,14.115a4.62,4.62,0,0,1-2.935.7,14.529,14.529,0,0,0-3.807,1.271s-3.569-13.062-4.795-15.842-7.187-9.688-7.187-9.688a1.31,1.31,0,0,0-2.371,1.113,123.792,123.792,0,0,1,7.352,10.045c1.75,3.061,4.468,15.141,4.468,15.141a6.931,6.931,0,0,1-1.3.141,67.56,67.56,0,0,1-6.765-.217,5.849,5.849,0,0,0-4.787,2.088l-20.379-.878c-4.879-10.967-10.3-22.382-10.3-22.382l-75.337,62.8,18.042,36.081,18-13.1s12.115,17.026,19.973,16.372,52.222-48.786,52.222-48.786a119.35,119.35,0,0,0-9.167-8.183c-3.232-2.522-7.48-3.478-8.349-4.584-1.8-2.292.316-5.744-2.131-11.46-.562-1.32-1.16-2.691-1.772-4.082l18.4.79c.256,1.305.948,3.046,5.149,3.621,4.8.653,8.075-.872,12,0s1.527,2.839,6.983,2.4,9.607,0,16.59-8.732,8.294-15.059,10.258-16.587S2544.269,388.64,2542.958,390.823Z" transform="translate(-2394.829 -378.325)" fill="#0f2e60"/>
                  <path id="Path_38" data-name="Path 38" d="M3173.017,595.443l-17.157,78.631,74.181,22.872,14.175-63.549s6.792.647,8.064-1.259,10.8,3.814,12.071,7.944,1.27,1.907,1.27.794-5.082-8.261-6.829-8.738,6.193-.316,9.845,3.178,3.972,3.018,4.609,2.381-4.289-6.353-6.991-7.465,3.339-.475,4.609-.475,4.764-.32,5.082-2.384-1.429-2.856-3.812-3.016,1.662-3.336,3.85-2.383-.038-1.748-1.468-1.748-7.785,2.542-7.785,2.542-1.125-2.092-.477-3.654c.808-1.944,4.769-3.176,1.906-3.336s-2.391,1.547-5.48,3.732c-1.6,1.129-2.435,2.846-3.574,3.733-.875.687-2.8.713-6.431,2.859a25.2,25.2,0,0,1-7.494,2.829l2.174-12.041Z" transform="translate(-2951.996 -537.222)" fill="#0f2e60"/>
                  <path id="Path_39" data-name="Path 39" d="M4539.648,494.533l14.447-29.727,23.4,36.084-32.506,62.838s2.837,12.964-5.863,20.009c-5.889,4.763-7.163,4.947-7.372,4.571l-.286.08-7.25,12.435-5.99-8.971-7.066,1.846s4.253,2.652-10.131,5.367-32.647,11.79-32.647,11.79l-.32-3.307.855-1.469-1.782-.279-.2-5c1.87.44,8.9-2.478,8.9-2.478-3.93,1.063-9.082-1.717-9.082-1.717l-.835-4.662c5.252,3.751,28.72-.511,36.562-3.444s7.8,2.4,7.8,2.4l5.4-2.861-14.574-21.82,2.317-8.144L4487.039,546.9l17.905-56.051s7.245-.775,18.076,1.426S4539.648,494.533,4539.648,494.533Z" transform="translate(-3911.116 -441.579)" fill="#0f2e60"/>
                  <path id="Path_40" data-name="Path 40" d="M6023.607,518.849l.1,61.833,54.9,40.2V587.417s22.446-19.592,23.669-27.144-22.321-30.77-28.636-30.944-10.972,1.9-17.682,6.253l-20.92-13.367Z" transform="translate(-5157.536 -358.146)" fill="#0f2e60"/>
                </g>
              </g>
            </g>
          </g>
        </g>
        <path id="Path_2-2" data-name="Path 2" d="M2348.273,8.785c-110.024-5.283-186.5-40.556-296.637-43.314s-233,33.99-282.243,126.2c-19.464,36.452-26,77.22-30.492,117.318-3.8,33.935-12.851,65.753-17.269,99.052-23.037,173.55-192.694,281.243-343.64,358.451-30.612,15.659-61.621,30.645-91.883,46.891-13.125,7.043-26.966,14.782-33.7,27.457-15.377,28.915,16.8,62.29,50.4,69.7,48.765,10.76,106.44-9.407,145.544,28.6,9.037,8.786,16.02,20.253,15.749,32.446-.456,20.469-20.379,33.49-18.17,54.645,1.829,17.522,14.336,34.553,30.621,43.023,13.141,6.836,28.161,9.691,42.936,12.31,50.294,8.915,156.437,4.763,203.637,24.006,104.32,42.529,151.943,96.429,263.6,119.545,100.474,20.8,259.326,29.563,362.128,25.757" transform="translate(-2013.954 2736.125)" fill="#65bfd6" opacity="0.09"/>
      </g>
    </g>
  </g>
</svg>
