<svg xmlns="http://www.w3.org/2000/svg" width="1890.5" height="1258.985" viewBox="0 0 1890.5 1258.985">
  <path id="Path_1" data-name="Path 1" d="M2668.829-107.712c-56.339,88.579-179.8,118.974-289.823,113.694s-217.237-37.753-327.369-40.512-233,33.99-282.243,126.2c-19.464,36.452-26,77.22-30.492,117.318-3.8,33.935-12.851,65.753-17.269,99.052-23.037,173.55-192.694,281.243-343.64,358.451-30.612,15.659-61.621,30.645-91.883,46.891-13.125,7.043-26.966,14.782-33.7,27.457-15.377,28.915,16.8,62.29,50.4,69.7,48.765,10.76,106.44-9.407,145.544,28.6,9.037,8.786,16.02,20.253,15.749,32.446-.456,20.469-20.379,33.49-18.17,54.645,1.829,17.522,14.336,34.553,30.621,43.023,13.141,6.836,28.161,9.691,42.936,12.31,50.294,8.915,156.437,4.763,203.637,24.006,104.32,42.529,151.943,96.429,263.6,119.545a1281.479,1281.479,0,0,0,306.64,25.254c205.552-7.615,409.616-63.5,584.778-164.919q47.269-27.367,91.46-59.065c32.962-23.676,64.8-49.186,90.7-79.587,69.631-81.724,90.277-193.655,72.722-296.868" transform="translate(-1248.454 107.712)" fill="#d1dfdf" opacity="0.09"/>
</svg>
