<svg xmlns="http://www.w3.org/2000/svg" width="261" height="85.95" viewBox="0 0 261 85.95">
  <g id="Group_1" data-name="Group 1" transform="translate(0 0.05)">
    <path id="Path_110" data-name="Path 110" d="M112.6,0h-27c-1.7,0-2.7.8-2.8,2.2s1,2.4,2.8,2.4c3.3,0,6.6.1,10,0,1.2,0,1.4.3,1.4,1.4V33c0,1.8.8,2.7,2.2,2.7s2.2-.9,2.2-2.7V5.9c0-1.2.4-1.4,1.4-1.4,3.3.1,6.5,0,9.8,0,1.8,0,2.8-.8,2.7-2.3C115.3.8,114.4,0,112.6,0Z" fill="#fff"/>
    <path id="Path_111" data-name="Path 111" d="M150.2,31.2H127c-2.1,0-3.4-1.2-3.4-3.2V8.9a4.225,4.225,0,0,1,4.1-4.3q8.1-.15,16.2,0a4.122,4.122,0,0,1,4,4.2v1.7c0,3.4-1.7,5-5.1,5.1H130.7a2.195,2.195,0,0,0-2.4,2.1c0,1.3.5,2.2,1.9,2.3h14.2a8.155,8.155,0,0,0,5.1-2.2c3.3-2.9,3.6-8.7,2.2-12.2a8.239,8.239,0,0,0-7-5.5c-6-.2-11.9-.2-17.9,0A8.64,8.64,0,0,0,119,8.5c-.1,6.6-.1,13.3,0,19.9a7.605,7.605,0,0,0,7.6,7.3H150a2.151,2.151,0,0,0,2.3-2.3C152.5,32.1,151.6,31.3,150.2,31.2Z" fill="#fff"/>
    <path id="Path_112" data-name="Path 112" d="M259.8,8.8A8.771,8.771,0,0,0,250.9,0H229.1c-2,0-2.8.7-2.8,2.7,0,8.4-.1,16.9,0,25.3a7.355,7.355,0,0,0,6.7,7.5c.5,0,1,.1,1.5.1h22.1c.5,0,.9-.1,1.4-.1a2.12,2.12,0,0,0,1.7-2.4C259.9,25.1,259.9,17,259.8,8.8ZM230.9,27.5V5.7c0-.9.2-1.2,1.2-1.2h18.8a4.46,4.46,0,0,1,4.5,4.4V30c0,1-.4,1.2-1.2,1.2H234.6C232.1,31.2,230.9,29.9,230.9,27.5Z" fill="#fff"/>
    <path id="Path_113" data-name="Path 113" d="M220,31.2H202.2c-3.2,0-5-1.8-5-5V6.3c0-1.3.3-1.7,1.6-1.6,7,.1,13.9,0,20.9,0,1.3,0,2.3-.4,2.7-1.6.5-1.6-.6-2.9-2.6-2.9H196.2c-2.9,0-3.5.6-3.5,3.5V25.3c0,1,.1,2.1.2,3.1a8.805,8.805,0,0,0,7.7,7.4c4.4.3,8.8.1,13.2.1a54.771,54.771,0,0,0,7-.1,2.007,2.007,0,0,0,1.7-2.5A2.261,2.261,0,0,0,220,31.2Z" fill="#fff"/>
    <path id="Path_114" data-name="Path 114" d="M186.2,0h-27c-1.8,0-2.8.9-2.8,2.3s1,2.2,2.7,2.2c3.2,0,6.5.1,9.7,0,1.3,0,1.6.3,1.6,1.6-.1,9,0,17.9,0,26.9,0,1.3.4,2.3,1.7,2.6a1.961,1.961,0,0,0,2.6-1.4h0c.4-.6.2-1.2.2-1.8V5.8c0-1,.2-1.3,1.2-1.3,3.3.1,6.6,0,10,0,1.8,0,2.8-.9,2.8-2.3S187.9,0,186.2,0Z" fill="#fff"/>
    <g id="Group_15" data-name="Group 15">
      <g id="Group_14" data-name="Group 14">
        <path id="Path_115" data-name="Path 115" d="M60.7,0H44.9a11.149,11.149,0,0,0-4.7,1.4A32.337,32.337,0,0,0,30.1,9.7h3.4c-2-1.8-4-3.7-6.1-5.4a16.186,16.186,0,0,0-6.9-3.2C16.6.3,12.6.8,8.6.8c-2,0-4,0-6-.2A2.523,2.523,0,0,0,.1,3V32.9a2.433,2.433,0,0,0,2.4,2.4H17.3c.5,0-.3-.1.1,0a17.216,17.216,0,0,1,8.3,4.9c1.1,1,2.1,2,3.2,3a8.064,8.064,0,0,0,1.4,1.2c2.1,1.2,4.3-1.6,5.7-2.9s2.8-2.5,4.1-3.8l.3-.3.4-.4c.1-.1.7-.6.5-.4a5.685,5.685,0,0,1,3.9-1.4c5.1.3,10.3.4,15.4.4,3.1,0,3.1-4.9,0-4.8-4.7,0-9.4.1-14.1-.3a11.087,11.087,0,0,0-4.8.4,14.059,14.059,0,0,0-4.2,2.6c-1,.9-2,1.9-3,2.8-1.6,1.4-3.1,2.9-4.7,4.3.6-.2,1.1-.5,1.7-.7h0c.6.2,1.1.5,1.7.7-4.2-4-8.3-8.5-14.2-9.9a16.32,16.32,0,0,0-4.4-.3H2.4l2.4,2.4V6.6A20.566,20.566,0,0,0,5,3L2.6,5.4A31.678,31.678,0,0,0,7,5.6h5.1a31.079,31.079,0,0,1,6.1,0,12.576,12.576,0,0,1,6,2.3h0c.1.1.2.1.3.2s.2.2.3.2a10.949,10.949,0,0,1,1.1,1c1.4,1.3,2.9,2.5,4.3,3.8a2.478,2.478,0,0,0,3.4,0,32.552,32.552,0,0,1,8.5-7.2,5.9,5.9,0,0,0,.8-.4c.6-.3-.3.1.3-.1.4-.1.8-.3,1.2-.4.3-.1.6-.1.8-.2H60.8C63.8,4.8,63.8,0,60.7,0Z" fill="#fff"/>
        <path id="Path_116" data-name="Path 116" d="M44.2,23h14c3.1,0,3.1-4.8,0-4.8h-14C41.1,18.2,41.1,23,44.2,23Z" fill="#fff"/>
        <path id="Path_117" data-name="Path 117" d="M48.4,13.9h14c3.1,0,3.1-4.8,0-4.8h-14C45.3,9.1,45.3,13.9,48.4,13.9Z" fill="#fff"/>
        <path id="Path_118" data-name="Path 118" d="M66,23h3.4a2.369,2.369,0,0,0,2.4-2.4,2.5,2.5,0,0,0-2.4-2.4H66a2.369,2.369,0,0,0-2.4,2.4A2.5,2.5,0,0,0,66,23Z" fill="#fff"/>
        <path id="Path_119" data-name="Path 119" d="M68.2,35.7h6.5c3.1,0,3.1-4.8,0-4.8H68.2C65.1,30.9,65.1,35.7,68.2,35.7Z" fill="#fff"/>
      </g>
    </g>
    <g id="Group_16" data-name="Group 16">
      <path id="Path_120" data-name="Path 120" d="M10.4,64a1.645,1.645,0,0,1-1-.2,1.853,1.853,0,0,1-.7-.8h0a2.836,2.836,0,0,1-.9,1,3.339,3.339,0,0,1-1.5.3A4.012,4.012,0,0,1,4.8,64a8.938,8.938,0,0,1-1.6-.9,4.875,4.875,0,0,0-.7.3,1,1,0,0,0-.4.5,1.072,1.072,0,0,0-.2.6v5.9H.5V65.5a6.15,6.15,0,0,1,.1-1.4c.1-.4.2-.7.3-1a2.7,2.7,0,0,1,.7-.8,10.907,10.907,0,0,1,1.1-.6,4.779,4.779,0,0,1,.6-1.8,3.778,3.778,0,0,1,.9-1.2,2.075,2.075,0,0,1,1-.6c.4,0,.7-.1,1-.1a3.6,3.6,0,0,1,1.1.2,5.5,5.5,0,0,1,.9.7,3.328,3.328,0,0,1,.6,1A5.067,5.067,0,0,1,9,61.2v.4a2.177,2.177,0,0,0,.5.8,1.327,1.327,0,0,0,1,.3.53.53,0,0,1,.6.6c0,.3-.1.5-.2.5C10.8,64,10.7,64,10.4,64ZM7.7,61.2a1.7,1.7,0,0,0-.1-.7l-.3-.6a1,1,0,0,0-.5-.4,1.445,1.445,0,0,0-.7-.2,1.76,1.76,0,0,0-1.3.6,4.109,4.109,0,0,0-1,2.1,3.379,3.379,0,0,0,1.2.6,2.537,2.537,0,0,0,1.2.2,1.366,1.366,0,0,0,1.1-.4A1.691,1.691,0,0,0,7.7,61.2Z" fill="#fff"/>
      <path id="Path_121" data-name="Path 121" d="M10.4,64a.53.53,0,0,1-.6-.6c0-.3.1-.5.2-.5a.749.749,0,0,1,.5-.1h2.4a.53.53,0,0,1,.6.6c0,.3-.1.5-.2.5-.1.1-.2.1-.5.1Z" fill="#fff"/>
      <path id="Path_122" data-name="Path 122" d="M12.8,64a.53.53,0,0,1-.6-.6c0-.3.1-.5.2-.5a.749.749,0,0,1,.5-.1h2.4a.53.53,0,0,1,.6.6c0,.3-.1.5-.2.5a.749.749,0,0,1-.5.1Z" fill="#fff"/>
      <path id="Path_123" data-name="Path 123" d="M15.2,64a.53.53,0,0,1-.6-.6c0-.3.1-.5.2-.5a.749.749,0,0,1,.5-.1h2.4a.53.53,0,0,1,.6.6c0,.3-.1.5-.2.5a.749.749,0,0,1-.5.1Z" fill="#fff"/>
      <path id="Path_124" data-name="Path 124" d="M17.6,64a.53.53,0,0,1-.6-.6c0-.3.1-.5.2-.5a.749.749,0,0,1,.5-.1H20a.53.53,0,0,1,.6.6c0,.3-.1.5-.2.5,0,.1-.2.1-.4.1Z" fill="#fff"/>
      <path id="Path_125" data-name="Path 125" d="M20,64a.53.53,0,0,1-.6-.6c0-.3.1-.5.2-.5a.749.749,0,0,1,.5-.1h2.4a.53.53,0,0,1,.6.6c0,.3-.1.5-.2.5a.749.749,0,0,1-.5.1Z" fill="#fff"/>
      <path id="Path_126" data-name="Path 126" d="M22.4,64a.53.53,0,0,1-.6-.6c0-.3.1-.5.2-.5a.749.749,0,0,1,.5-.1h2.4a.53.53,0,0,1,.6.6c0,.3-.1.5-.2.5a1.083,1.083,0,0,1-.6.1Z" fill="#fff"/>
      <path id="Path_127" data-name="Path 127" d="M24.7,64a.53.53,0,0,1-.6-.6c0-.3.1-.5.2-.5a.749.749,0,0,1,.5-.1h2.4a.53.53,0,0,1,.6.6c0,.3-.1.5-.2.5-.1.1-.2.1-.5.1Z" fill="#fff"/>
      <path id="Path_128" data-name="Path 128" d="M27.1,64a.53.53,0,0,1-.6-.6c0-.3.1-.5.2-.5a.749.749,0,0,1,.5-.1h2.4a.53.53,0,0,1,.6.6c0,.3-.1.5-.2.5a.749.749,0,0,1-.5.1Z" fill="#fff"/>
      <path id="Path_129" data-name="Path 129" d="M29.5,64a.53.53,0,0,1-.6-.6c0-.3.1-.5.2-.5a.749.749,0,0,1,.5-.1H32a.53.53,0,0,1,.6.6c0,.3-.1.5-.2.5a.749.749,0,0,1-.5.1Z" fill="#fff"/>
      <path id="Path_130" data-name="Path 130" d="M31.9,64a.53.53,0,0,1-.6-.6c0-.3.1-.5.2-.5a.749.749,0,0,1,.5-.1h2.4a.53.53,0,0,1,.6.6c0,.3-.1.5-.2.5a.749.749,0,0,1-.5.1Z" fill="#fff"/>
      <path id="Path_131" data-name="Path 131" d="M34.3,64a.53.53,0,0,1-.6-.6c0-.3.1-.5.2-.5a.749.749,0,0,1,.5-.1h2.4a.53.53,0,0,1,.6.6c0,.3-.1.5-.2.5a.749.749,0,0,1-.5.1Z" fill="#fff"/>
      <path id="Path_132" data-name="Path 132" d="M36.7,64a.53.53,0,0,1-.6-.6c0-.3.1-.5.2-.5a.749.749,0,0,1,.5-.1H39a.53.53,0,0,1,.6.6c0,.3-.1.5-.2.5,0,.1-.1.1-.4.1Z" fill="#fff"/>
      <path id="Path_133" data-name="Path 133" d="M39,64a.53.53,0,0,1-.6-.6c0-.3.1-.5.2-.5a.749.749,0,0,1,.5-.1h2.4a.53.53,0,0,1,.6.6c0,.3-.1.5-.2.5-.1.1-.2.1-.5.1Z" fill="#fff"/>
      <path id="Path_134" data-name="Path 134" d="M41.4,64a.53.53,0,0,1-.6-.6c0-.3.1-.5.2-.5a.749.749,0,0,1,.5-.1h2.4a.53.53,0,0,1,.6.6c0,.3-.1.5-.2.5a.749.749,0,0,1-.5.1Z" fill="#fff"/>
      <path id="Path_135" data-name="Path 135" d="M43.8,64a.53.53,0,0,1-.6-.6c0-.3.1-.5.2-.5a.749.749,0,0,1,.5-.1h2.4a.53.53,0,0,1,.6.6c0,.3-.1.5-.2.5a.749.749,0,0,1-.5.1Z" fill="#fff"/>
      <path id="Path_136" data-name="Path 136" d="M46.2,64a.53.53,0,0,1-.6-.6c0-.3.1-.5.2-.5a.749.749,0,0,1,.5-.1h2.4a.53.53,0,0,1,.6.6c0,.3-.1.5-.2.5a.749.749,0,0,1-.5.1Z" fill="#fff"/>
      <path id="Path_137" data-name="Path 137" d="M48.6,64a.53.53,0,0,1-.6-.6c0-.3.1-.5.2-.5a.749.749,0,0,1,.5-.1H51a.53.53,0,0,1,.6.6c0,.3-.1.5-.2.5,0,.1-.2.1-.4.1Z" fill="#fff"/>
      <path id="Path_138" data-name="Path 138" d="M51,64a.53.53,0,0,1-.6-.6c0-.3.1-.5.2-.5a.749.749,0,0,1,.5-.1h2.4a.53.53,0,0,1,.6.6c0,.3-.1.5-.2.5a1.083,1.083,0,0,1-.6.1Z" fill="#fff"/>
      <path id="Path_139" data-name="Path 139" d="M53.3,64a.53.53,0,0,1-.6-.6c0-.3.1-.5.2-.5a.749.749,0,0,1,.5-.1h1.8c.2,0,.3-.1.5-.2a1.38,1.38,0,0,0,.3-.4,1.268,1.268,0,0,0,.1-.6V57.9h1.3V61a1.483,1.483,0,0,0,.1.7,1.421,1.421,0,0,0,.2.6c.1.2.3.3.4.4a1.483,1.483,0,0,0,.7.1.53.53,0,0,1,.6.6c0,.3-.1.5-.2.5a1.083,1.083,0,0,1-.6.1,1.493,1.493,0,0,1-1-.3,1.157,1.157,0,0,1-.5-.7,1.962,1.962,0,0,1-.9.9,6.622,6.622,0,0,1-1.5.1Zm1.3,2.5a1.421,1.421,0,0,1,.2-.6.735.735,0,0,1,.6-.2,1.421,1.421,0,0,1,.6.2.735.735,0,0,1,.2.6,1.421,1.421,0,0,1-.2.6.735.735,0,0,1-.6.2.707.707,0,0,1-.8-.8Zm2.1,0a1.421,1.421,0,0,1,.2-.6.735.735,0,0,1,.6-.2,1.421,1.421,0,0,1,.6.2.735.735,0,0,1,.2.6,1.421,1.421,0,0,1-.2.6.735.735,0,0,1-.6.2.707.707,0,0,1-.8-.8Z" fill="#fff"/>
      <path id="Path_140" data-name="Path 140" d="M58.6,64a.53.53,0,0,1-.6-.6c0-.3.1-.5.2-.5a.749.749,0,0,1,.5-.1H61a.53.53,0,0,1,.6.6c0,.3-.1.5-.2.5,0,.1-.2.1-.4.1Z" fill="#fff"/>
      <path id="Path_141" data-name="Path 141" d="M61,64a.53.53,0,0,1-.6-.6c0-.3.1-.5.2-.5a.749.749,0,0,1,.5-.1h1.8a.707.707,0,0,0,.6-.6,1.268,1.268,0,0,0,.1-.6v-9h1.3V61a2.5,2.5,0,0,0,.3,1.3,1.29,1.29,0,0,0,1.1.5.53.53,0,0,1,.6.6c0,.3-.1.5-.2.5-.1.1-.2.1-.5.1a1.493,1.493,0,0,1-1-.3,1.157,1.157,0,0,1-.5-.7,1.962,1.962,0,0,1-.9.9,6.959,6.959,0,0,1-1.6.2H61Z" fill="#fff"/>
      <path id="Path_142" data-name="Path 142" d="M66.2,64a.53.53,0,0,1-.6-.6c0-.3.1-.5.2-.5a.749.749,0,0,1,.5-.1h2.4a.53.53,0,0,1,.6.6c0,.3-.1.5-.2.5a.749.749,0,0,1-.5.1Z" fill="#fff"/>
      <path id="Path_143" data-name="Path 143" d="M68.6,64a.53.53,0,0,1-.6-.6c0-.3.1-.5.2-.5a.749.749,0,0,1,.5-.1h.7a4.869,4.869,0,0,0,1.2-.1,3.545,3.545,0,0,0,1.1-.3l-2-2.3c0-.1.1-.2.1-.4a.758.758,0,0,1,.2-.4c.1-.1.1-.2.2-.3s.1-.2.2-.2a5.025,5.025,0,0,1,1.2-.8,4.146,4.146,0,0,1,1.6-.3,3.73,3.73,0,0,1,1.2.2,4.053,4.053,0,0,1,.9.5,2.651,2.651,0,0,1,.5.6,1.854,1.854,0,0,1,.2.7,3.686,3.686,0,0,1-.5,1.7,4.66,4.66,0,0,1-1.4,1.4c.2,0,.5.1.8.1h2.3a.53.53,0,0,1,.6.6c0,.3-.1.5-.2.5H74.4a2.769,2.769,0,0,1-.9-.1,4.053,4.053,0,0,1-.9-.5,7.494,7.494,0,0,1-1.6.5,8.083,8.083,0,0,1-1.6.1Zm4.5-5.1a2.663,2.663,0,0,0-1.2.3,2.178,2.178,0,0,0-.9.7L73,62a6.232,6.232,0,0,0,1.2-.9,1.823,1.823,0,0,0,.5-1.1.867.867,0,0,0-.4-.7A1.594,1.594,0,0,0,73.1,58.9Z" fill="#fff"/>
      <path id="Path_144" data-name="Path 144" d="M77.1,64a.53.53,0,0,1-.6-.6c0-.3.1-.5.2-.5a.749.749,0,0,1,.5-.1H79c.2,0,.3-.1.5-.2a1.381,1.381,0,0,0,.3-.4,1.268,1.268,0,0,0,.1-.6V57.9H81V61a1.483,1.483,0,0,0,.1.7,1.421,1.421,0,0,0,.2.6c.1.2.3.3.4.4a1.483,1.483,0,0,0,.7.1.53.53,0,0,1,.6.6c0,.3-.1.5-.2.5,0,.1-.2.1-.4.1a1.493,1.493,0,0,1-1-.3,1.157,1.157,0,0,1-.5-.7,1.962,1.962,0,0,1-.9.9,6.622,6.622,0,0,1-1.5.1Zm1.3-8.9a1.421,1.421,0,0,1,.2-.6.735.735,0,0,1,.6-.2,1.421,1.421,0,0,1,.6.2.735.735,0,0,1,.2.6,1.421,1.421,0,0,1-.2.6.735.735,0,0,1-.6.2,1.421,1.421,0,0,1-.6-.2A.845.845,0,0,1,78.4,55.1Zm2.1,0a1.421,1.421,0,0,1,.2-.6.735.735,0,0,1,.6-.2,1.421,1.421,0,0,1,.6.2.735.735,0,0,1,.2.6,1.421,1.421,0,0,1-.2.6.735.735,0,0,1-.6.2,1.421,1.421,0,0,1-.6-.2A.845.845,0,0,1,80.5,55.1Z" fill="#fff"/>
      <path id="Path_145" data-name="Path 145" d="M82.4,64a.53.53,0,0,1-.6-.6c0-.3.1-.5.2-.5a.749.749,0,0,1,.5-.1H85V52.5h1.3V64Z" fill="#fff"/>
      <path id="Path_146" data-name="Path 146" d="M89.8,52.5V64H88.5V52.5Z" fill="#fff"/>
      <path id="Path_147" data-name="Path 147" d="M108.4,64H98.6a8.083,8.083,0,0,1-1.6-.1,3,3,0,0,1-1-.4,1.157,1.157,0,0,1-.5-.7,3.6,3.6,0,0,1-.2-1.1V59.2h1.3v2a1.949,1.949,0,0,0,.1.8,1.756,1.756,0,0,0,.4.5,1.884,1.884,0,0,0,.8.2H107V57.8h1.3V64Zm-8.3-7.9a1.421,1.421,0,0,1,.2-.6.735.735,0,0,1,.6-.2,1.421,1.421,0,0,1,.6.2.735.735,0,0,1,.2.6,1.421,1.421,0,0,1-.2.6.735.735,0,0,1-.6.2.707.707,0,0,1-.8-.8Zm2.1,0a1.421,1.421,0,0,1,.2-.6.735.735,0,0,1,.6-.2,1.421,1.421,0,0,1,.6.2.735.735,0,0,1,.2.6,1.421,1.421,0,0,1-.2.6.735.735,0,0,1-.6.2.707.707,0,0,1-.8-.8Z" fill="#fff"/>
      <path id="Path_148" data-name="Path 148" d="M114.1,63.3c0,.3-.1.5-.2.5a.749.749,0,0,1-.5.1H113a2.483,2.483,0,0,1-.9-.1,1.612,1.612,0,0,1-.7-.4,1.794,1.794,0,0,1-.5-.7,3.087,3.087,0,0,1-.2-1.1V52.3H112v8.9a2.151,2.151,0,0,0,.2,1c.1.2.5.3.9.3h.3C113.8,62.7,114.1,62.9,114.1,63.3Z" fill="#fff"/>
      <path id="Path_149" data-name="Path 149" d="M113.4,64a.53.53,0,0,1-.6-.6c0-.3.1-.5.2-.5a.749.749,0,0,1,.5-.1h2.4a.53.53,0,0,1,.6.6c0,.3-.1.5-.2.5a.749.749,0,0,1-.5.1Z" fill="#fff"/>
      <path id="Path_150" data-name="Path 150" d="M115.8,64a.53.53,0,0,1-.6-.6c0-.3.1-.5.2-.5a.749.749,0,0,1,.5-.1h2.4a.53.53,0,0,1,.6.6c0,.3-.1.5-.2.5a.749.749,0,0,1-.5.1Z" fill="#fff"/>
      <path id="Path_151" data-name="Path 151" d="M118.2,64a.53.53,0,0,1-.6-.6c0-.3.1-.5.2-.5a.749.749,0,0,1,.5-.1h2.4a.53.53,0,0,1,.6.6c0,.3-.1.5-.2.5a.749.749,0,0,1-.5.1Z" fill="#fff"/>
      <path id="Path_152" data-name="Path 152" d="M120.6,64a.53.53,0,0,1-.6-.6c0-.3.1-.5.2-.5a.749.749,0,0,1,.5-.1h2.4a.53.53,0,0,1,.6.6c0,.3-.1.5-.2.5a.749.749,0,0,1-.5.1Z" fill="#fff"/>
      <path id="Path_153" data-name="Path 153" d="M122.9,64a.53.53,0,0,1-.6-.6c0-.3.1-.5.2-.5a.749.749,0,0,1,.5-.1h2.4a.53.53,0,0,1,.6.6c0,.3-.1.5-.2.5a.749.749,0,0,1-.5.1Z" fill="#fff"/>
      <path id="Path_154" data-name="Path 154" d="M125.3,64a.53.53,0,0,1-.6-.6c0-.3.1-.5.2-.5a.749.749,0,0,1,.5-.1h2.4a.53.53,0,0,1,.6.6c0,.3-.1.5-.2.5a.749.749,0,0,1-.5.1Z" fill="#fff"/>
      <path id="Path_155" data-name="Path 155" d="M127.7,64a.53.53,0,0,1-.6-.6c0-.3.1-.5.2-.5a.749.749,0,0,1,.5-.1h2.4a.53.53,0,0,1,.6.6c0,.3-.1.5-.2.5a.749.749,0,0,1-.5.1Z" fill="#fff"/>
      <path id="Path_156" data-name="Path 156" d="M130.1,64a.53.53,0,0,1-.6-.6c0-.3.1-.5.2-.5a.749.749,0,0,1,.5-.1h2.4a.53.53,0,0,1,.6.6c0,.3-.1.5-.2.5a.749.749,0,0,1-.5.1Z" fill="#fff"/>
      <path id="Path_157" data-name="Path 157" d="M132.5,64a.53.53,0,0,1-.6-.6c0-.3.1-.5.2-.5a.749.749,0,0,1,.5-.1H135a.53.53,0,0,1,.6.6c0,.3-.1.5-.2.5a.749.749,0,0,1-.5.1Z" fill="#fff"/>
      <path id="Path_158" data-name="Path 158" d="M134.9,64a.53.53,0,0,1-.6-.6c0-.3.1-.5.2-.5a.749.749,0,0,1,.5-.1h2.4a.53.53,0,0,1,.6.6c0,.3-.1.5-.2.5a.749.749,0,0,1-.5.1Z" fill="#fff"/>
      <path id="Path_159" data-name="Path 159" d="M137.3,64a.53.53,0,0,1-.6-.6c0-.3.1-.5.2-.5a.749.749,0,0,1,.5-.1h2.4a.53.53,0,0,1,.6.6c0,.3-.1.5-.2.5a.749.749,0,0,1-.5.1Z" fill="#fff"/>
      <path id="Path_160" data-name="Path 160" d="M139.6,64a.53.53,0,0,1-.6-.6c0-.3.1-.5.2-.5a.749.749,0,0,1,.5-.1h2.4a.53.53,0,0,1,.6.6c0,.3-.1.5-.2.5a.749.749,0,0,1-.5.1Z" fill="#fff"/>
      <path id="Path_161" data-name="Path 161" d="M142,64a.53.53,0,0,1-.6-.6c0-.3.1-.5.2-.5a.749.749,0,0,1,.5-.1h2.4a.53.53,0,0,1,.6.6c0,.3-.1.5-.2.5a.749.749,0,0,1-.5.1Z" fill="#fff"/>
      <path id="Path_162" data-name="Path 162" d="M144.4,64a.53.53,0,0,1-.6-.6c0-.3.1-.5.2-.5a.749.749,0,0,1,.5-.1h2.4a.53.53,0,0,1,.6.6c0,.3-.1.5-.2.5a.749.749,0,0,1-.5.1Z" fill="#fff"/>
      <path id="Path_163" data-name="Path 163" d="M146.8,64a.53.53,0,0,1-.6-.6c0-.3.1-.5.2-.5a.749.749,0,0,1,.5-.1h1.8c.2,0,.3-.1.5-.2a1.38,1.38,0,0,0,.3-.4,1.268,1.268,0,0,0,.1-.6V57.9h1.3V61a1.483,1.483,0,0,0,.1.7,1.421,1.421,0,0,0,.2.6c.1.2.3.3.4.4a1.483,1.483,0,0,0,.7.1.53.53,0,0,1,.6.6c0,.3-.1.5-.2.5a.749.749,0,0,1-.5.1,1.493,1.493,0,0,1-1-.3,1.157,1.157,0,0,1-.5-.7,1.962,1.962,0,0,1-.9.9,6.052,6.052,0,0,1-1.5.2h-1.5Zm1.3,2.5a1.421,1.421,0,0,1,.2-.6.735.735,0,0,1,.6-.2,1.421,1.421,0,0,1,.6.2.735.735,0,0,1,.2.6,1.421,1.421,0,0,1-.2.6.735.735,0,0,1-.6.2,1.421,1.421,0,0,1-.6-.2A.735.735,0,0,1,148.1,66.5Zm2,0a1.421,1.421,0,0,1,.2-.6.735.735,0,0,1,.6-.2,1.421,1.421,0,0,1,.6.2.735.735,0,0,1,.2.6,1.421,1.421,0,0,1-.2.6.735.735,0,0,1-.6.2.707.707,0,0,1-.8-.8Z" fill="#fff"/>
      <path id="Path_164" data-name="Path 164" d="M152.1,64a.53.53,0,0,1-.6-.6c0-.3.1-.5.2-.5a.749.749,0,0,1,.5-.1h2.4a.53.53,0,0,1,.6.6c0,.3-.1.5-.2.5a.749.749,0,0,1-.5.1Z" fill="#fff"/>
      <path id="Path_165" data-name="Path 165" d="M154.4,64a.53.53,0,0,1-.6-.6c0-.3.1-.5.2-.5a.749.749,0,0,1,.5-.1h1.8c.2,0,.3-.1.5-.2a1.38,1.38,0,0,0,.3-.4,1.268,1.268,0,0,0,.1-.6V57.9h1.3V61a1.483,1.483,0,0,0,.1.7,1.421,1.421,0,0,0,.2.6c.1.2.3.3.4.4a1.483,1.483,0,0,0,.7.1.53.53,0,0,1,.6.6c0,.3-.1.5-.2.5a.749.749,0,0,1-.5.1,1.493,1.493,0,0,1-1-.3,1.157,1.157,0,0,1-.5-.7,1.962,1.962,0,0,1-.9.9,6.052,6.052,0,0,1-1.5.2h-1.5Zm2.5-8.9a1.421,1.421,0,0,1,.2-.6.735.735,0,0,1,.6-.2,1.421,1.421,0,0,1,.6.2.735.735,0,0,1,.2.6,1.421,1.421,0,0,1-.2.6.735.735,0,0,1-.6.2,1.421,1.421,0,0,1-.6-.2C156.9,55.6,156.9,55.4,156.9,55.1Z" fill="#fff"/>
      <path id="Path_166" data-name="Path 166" d="M159.7,64a.53.53,0,0,1-.6-.6c0-.3.1-.5.2-.5a.749.749,0,0,1,.5-.1h2.4a.53.53,0,0,1,.6.6c0,.3-.1.5-.2.5a.749.749,0,0,1-.5.1Z" fill="#fff"/>
      <path id="Path_167" data-name="Path 167" d="M162.1,64a.53.53,0,0,1-.6-.6c0-.3.1-.5.2-.5a.749.749,0,0,1,.5-.1H164c-.1-.2-.2-.5-.3-.7a2.768,2.768,0,0,1-.1-.9,5.02,5.02,0,0,1,.2-1.2,2.384,2.384,0,0,1,.6-1.1,3.916,3.916,0,0,1,1-.8,2.9,2.9,0,0,1,1.4-.3,3.339,3.339,0,0,1,1.5.3,2.361,2.361,0,0,1,.9.8,3.7,3.7,0,0,1,.5,1.1,4.868,4.868,0,0,1,.1,1.2v1.7H171a.53.53,0,0,1,.6.6c0,.3-.1.5-.2.5a.749.749,0,0,1-.5.1h-8.8Zm2.5-8.9a1.421,1.421,0,0,1,.2-.6.735.735,0,0,1,.6-.2,1.421,1.421,0,0,1,.6.2.735.735,0,0,1,.2.6,1.421,1.421,0,0,1-.2.6.735.735,0,0,1-.6.2,1.421,1.421,0,0,1-.6-.2C164.6,55.6,164.6,55.4,164.6,55.1Zm.2,5.7a1.557,1.557,0,0,0,.6,1.4,2.389,2.389,0,0,0,1.4.5h1.5V61.1a2.2,2.2,0,0,0-.1-.8.908.908,0,0,0-.3-.7,1.205,1.205,0,0,0-.5-.5,2,2,0,0,0-.9-.2,1.486,1.486,0,0,0-1.3.6A1.844,1.844,0,0,0,164.8,60.8Zm1.9-5.7a1.421,1.421,0,0,1,.2-.6.735.735,0,0,1,.6-.2,1.421,1.421,0,0,1,.6.2.735.735,0,0,1,.2.6,1.421,1.421,0,0,1-.2.6.735.735,0,0,1-.6.2,1.421,1.421,0,0,1-.6-.2C166.7,55.6,166.7,55.4,166.7,55.1Z" fill="#fff"/>
      <path id="Path_168" data-name="Path 168" d="M170.8,64a.53.53,0,0,1-.6-.6c0-.3.1-.5.2-.5a.749.749,0,0,1,.5-.1h1.8c.2,0,.3-.1.5-.2a1.38,1.38,0,0,0,.3-.4,1.268,1.268,0,0,0,.1-.6V57.9h1.3V61a1.483,1.483,0,0,0,.1.7,1.421,1.421,0,0,0,.2.6c.1.2.3.3.4.4a1.483,1.483,0,0,0,.7.1.53.53,0,0,1,.6.6c0,.3-.1.5-.2.5a.749.749,0,0,1-.5.1,1.493,1.493,0,0,1-1-.3,1.157,1.157,0,0,1-.5-.7,1.962,1.962,0,0,1-.9.9,6.052,6.052,0,0,1-1.5.2h-1.5Zm1.3-8.9a1.421,1.421,0,0,1,.2-.6.735.735,0,0,1,.6-.2,1.421,1.421,0,0,1,.6.2.735.735,0,0,1,.2.6,1.421,1.421,0,0,1-.2.6.735.735,0,0,1-.6.2,1.421,1.421,0,0,1-.6-.2A.845.845,0,0,1,172.1,55.1Zm2.1,0a1.421,1.421,0,0,1,.2-.6.735.735,0,0,1,.6-.2,1.421,1.421,0,0,1,.6.2.735.735,0,0,1,.2.6,1.421,1.421,0,0,1-.2.6.735.735,0,0,1-.6.2,1.421,1.421,0,0,1-.6-.2A.845.845,0,0,1,174.2,55.1Z" fill="#fff"/>
      <path id="Path_169" data-name="Path 169" d="M176.1,64a.53.53,0,0,1-.6-.6c0-.3.1-.5.2-.5a.749.749,0,0,1,.5-.1h2.5V52.5H180V64Z" fill="#fff"/>
      <path id="Path_170" data-name="Path 170" d="M190.6,64a2.388,2.388,0,0,1-.9-.2c-.2-.2-.4-.3-.5-.6a12.122,12.122,0,0,1-.1,2,3.922,3.922,0,0,1-.5,1.3,2.1,2.1,0,0,1-1.1.7,8.16,8.16,0,0,1-1.8.2V66.1a3.73,3.73,0,0,0,1.2-.2,1.794,1.794,0,0,0,.7-.5c.1-.3.2-.6.3-1V58.7h1.3V61a2.5,2.5,0,0,0,.3,1.3,1.29,1.29,0,0,0,1.1.5.53.53,0,0,1,.6.6c0,.3-.1.5-.2.5C191,64,190.8,64,190.6,64Z" fill="#fff"/>
      <path id="Path_171" data-name="Path 171" d="M190.6,64a.53.53,0,0,1-.6-.6c0-.3.1-.5.2-.5a.749.749,0,0,1,.5-.1h2.4a.53.53,0,0,1,.6.6c0,.3-.1.5-.2.5a.749.749,0,0,1-.5.1Z" fill="#fff"/>
      <path id="Path_172" data-name="Path 172" d="M193,64a.53.53,0,0,1-.6-.6c0-.3.1-.5.2-.5a.749.749,0,0,1,.5-.1h2.4a.53.53,0,0,1,.6.6c0,.3-.1.5-.2.5a.749.749,0,0,1-.5.1Z" fill="#fff"/>
      <path id="Path_173" data-name="Path 173" d="M195.3,64a.53.53,0,0,1-.6-.6c0-.3.1-.5.2-.5a.749.749,0,0,1,.5-.1h2.4a.53.53,0,0,1,.6.6c0,.3-.1.5-.2.5a.749.749,0,0,1-.5.1Z" fill="#fff"/>
      <path id="Path_174" data-name="Path 174" d="M197.7,64a.53.53,0,0,1-.6-.6c0-.3.1-.5.2-.5a.749.749,0,0,1,.5-.1h2.4a.53.53,0,0,1,.6.6c0,.3-.1.5-.2.5a.749.749,0,0,1-.5.1Z" fill="#fff"/>
      <path id="Path_175" data-name="Path 175" d="M200.1,64a.53.53,0,0,1-.6-.6c0-.3.1-.5.2-.5a.749.749,0,0,1,.5-.1h2.4a.53.53,0,0,1,.6.6c0,.3-.1.5-.2.5a.749.749,0,0,1-.5.1Z" fill="#fff"/>
      <path id="Path_176" data-name="Path 176" d="M202.5,64a.53.53,0,0,1-.6-.6c0-.3.1-.5.2-.5a.749.749,0,0,1,.5-.1H205a.53.53,0,0,1,.6.6c0,.3-.1.5-.2.5a.749.749,0,0,1-.5.1Z" fill="#fff"/>
      <path id="Path_177" data-name="Path 177" d="M204.9,64a.53.53,0,0,1-.6-.6c0-.3.1-.5.2-.5a.749.749,0,0,1,.5-.1h2.4a.53.53,0,0,1,.6.6c0,.3-.1.5-.2.5a.749.749,0,0,1-.5.1Z" fill="#fff"/>
      <path id="Path_178" data-name="Path 178" d="M207.3,64a.53.53,0,0,1-.6-.6c0-.3.1-.5.2-.5a.749.749,0,0,1,.5-.1h2.4a.53.53,0,0,1,.6.6c0,.3-.1.5-.2.5a.749.749,0,0,1-.5.1Z" fill="#fff"/>
      <path id="Path_179" data-name="Path 179" d="M209.6,64a.53.53,0,0,1-.6-.6c0-.3.1-.5.2-.5a.749.749,0,0,1,.5-.1h2.4a.53.53,0,0,1,.6.6c0,.3-.1.5-.2.5a.749.749,0,0,1-.5.1Z" fill="#fff"/>
      <path id="Path_180" data-name="Path 180" d="M212,64a.53.53,0,0,1-.6-.6c0-.3.1-.5.2-.5a.749.749,0,0,1,.5-.1h2.4a.53.53,0,0,1,.6.6c0,.3-.1.5-.2.5a.749.749,0,0,1-.5.1Z" fill="#fff"/>
      <path id="Path_181" data-name="Path 181" d="M214.4,64a.53.53,0,0,1-.6-.6c0-.3.1-.5.2-.5a.749.749,0,0,1,.5-.1h2.4a.53.53,0,0,1,.6.6c0,.3-.1.5-.2.5a.749.749,0,0,1-.5.1Z" fill="#fff"/>
      <path id="Path_182" data-name="Path 182" d="M216.8,64a.53.53,0,0,1-.6-.6c0-.3.1-.5.2-.5a.749.749,0,0,1,.5-.1h2.4a.53.53,0,0,1,.6.6c0,.3-.1.5-.2.5a.749.749,0,0,1-.5.1Z" fill="#fff"/>
      <path id="Path_183" data-name="Path 183" d="M219.2,64a.53.53,0,0,1-.6-.6c0-.3.1-.5.2-.5a.749.749,0,0,1,.5-.1h2.5V57.9h1.3V64Zm.6,2.5a1.421,1.421,0,0,1,.2-.6.735.735,0,0,1,.6-.2,1.421,1.421,0,0,1,.6.2.735.735,0,0,1,.2.6,1.421,1.421,0,0,1-.2.6.735.735,0,0,1-.6.2.707.707,0,0,1-.8-.8Zm2.1,0a1.421,1.421,0,0,1,.2-.6c.1-.2.4-.2.6-.2a1.421,1.421,0,0,1,.6.2.735.735,0,0,1,.2.6,1.421,1.421,0,0,1-.2.6.735.735,0,0,1-.6.2.707.707,0,0,1-.8-.8Z" fill="#fff"/>
      <path id="Path_184" data-name="Path 184" d="M230.9,64a3.408,3.408,0,0,1-.4,1.6,2.189,2.189,0,0,1-.9,1,3.359,3.359,0,0,1-1.4.5,11.019,11.019,0,0,1-1.8.2h-.7V66h.5a6.15,6.15,0,0,0,1.4-.1,2.016,2.016,0,0,0,1.1-.3c.3-.1.5-.4.7-.6a1.493,1.493,0,0,0,.3-1h-1.8a4.869,4.869,0,0,1-1.2-.1,3.128,3.128,0,0,1-1-.5,1.456,1.456,0,0,1-.6-.9,2.745,2.745,0,0,1-.2-1.3,5.853,5.853,0,0,1,.2-1.3,3.214,3.214,0,0,1,1.6-1.9,2.768,2.768,0,0,1,1.3-.3,2.9,2.9,0,0,1,1.4.3,2.361,2.361,0,0,1,.9.8,5.024,5.024,0,0,1,.5,1.3,8.806,8.806,0,0,1,.2,1.7v.8h1.1a.53.53,0,0,1,.6.6c0,.3-.1.5-.2.5a.749.749,0,0,1-.5.1h-1.1ZM226,61.1a1.656,1.656,0,0,0,.5,1.2,1.955,1.955,0,0,0,1.4.4h1.7V61.6a3.576,3.576,0,0,0-.4-1.9,1.417,1.417,0,0,0-1.4-.7,1.884,1.884,0,0,0-.8.2,2.652,2.652,0,0,0-.6.5,1.493,1.493,0,0,0-.3.7C226.1,60.6,226,60.9,226,61.1Z" fill="#fff"/>
      <path id="Path_185" data-name="Path 185" d="M232.1,64a.53.53,0,0,1-.6-.6c0-.3.1-.5.2-.5a.749.749,0,0,1,.5-.1h2.4a.53.53,0,0,1,.6.6c0,.3-.1.5-.2.5a.749.749,0,0,1-.5.1Z" fill="#fff"/>
      <path id="Path_186" data-name="Path 186" d="M234.5,64a.53.53,0,0,1-.6-.6c0-.3.1-.5.2-.5a.749.749,0,0,1,.5-.1H237a.53.53,0,0,1,.6.6c0,.3-.1.5-.2.5a.749.749,0,0,1-.5.1Z" fill="#fff"/>
      <path id="Path_187" data-name="Path 187" d="M236.9,64a.53.53,0,0,1-.6-.6c0-.3.1-.5.2-.5a.749.749,0,0,1,.5-.1h2.4a.53.53,0,0,1,.6.6c0,.3-.1.5-.2.5a.749.749,0,0,1-.5.1Z" fill="#fff"/>
      <path id="Path_188" data-name="Path 188" d="M239.3,64a.53.53,0,0,1-.6-.6c0-.3.1-.5.2-.5a.749.749,0,0,1,.5-.1h2.4a.53.53,0,0,1,.6.6c0,.3-.1.5-.2.5a.749.749,0,0,1-.5.1Z" fill="#fff"/>
      <path id="Path_189" data-name="Path 189" d="M241.6,64a.53.53,0,0,1-.6-.6c0-.3.1-.5.2-.5a.749.749,0,0,1,.5-.1h2.4a.53.53,0,0,1,.6.6c0,.3-.1.5-.2.5a.749.749,0,0,1-.5.1Z" fill="#fff"/>
      <path id="Path_190" data-name="Path 190" d="M244,64a.53.53,0,0,1-.6-.6c0-.3.1-.5.2-.5a.749.749,0,0,1,.5-.1h1.8V52.5h1.3v7.9a6.482,6.482,0,0,1,1.9-2.1,4.406,4.406,0,0,1,2.6-.7,2.837,2.837,0,0,1,2.4,1,4,4,0,0,1,.9,2.7v1.4h1.2a.53.53,0,0,1,.6.6c0,.3-.1.5-.2.5a.749.749,0,0,1-.5.1H244Zm9.7-1.3V61.6a3.083,3.083,0,0,0-.1-1,2.01,2.01,0,0,0-.4-.8,4.349,4.349,0,0,0-.7-.6,3.6,3.6,0,0,0-1.1-.2,2.3,2.3,0,0,0-1.4.4,5.3,5.3,0,0,0-2.1,2.1,3.79,3.79,0,0,0-.6,1.3h6.4Z" fill="#fff"/>
      <path id="Path_191" data-name="Path 191" d="M256.2,64a.53.53,0,0,1-.6-.6c0-.3.1-.5.2-.5a.749.749,0,0,1,.5-.1h2.5V57.9h1.3V64Zm1.1-8.9a1.421,1.421,0,0,1,.2-.6.735.735,0,0,1,.6-.2,1.421,1.421,0,0,1,.6.2.735.735,0,0,1,.2.6,1.421,1.421,0,0,1-.2.6.735.735,0,0,1-.6.2,1.421,1.421,0,0,1-.6-.2A.845.845,0,0,1,257.3,55.1Zm2.1,0a1.421,1.421,0,0,1,.2-.6.735.735,0,0,1,.6-.2,1.421,1.421,0,0,1,.6.2.735.735,0,0,1,.2.6,1.421,1.421,0,0,1-.2.6.735.735,0,0,1-.6.2,1.421,1.421,0,0,1-.6-.2A.845.845,0,0,1,259.4,55.1Z" fill="#fff"/>
    </g>
    <g id="Group_17" data-name="Group 17">
      <path id="Path_192" data-name="Path 192" d="M9.3,75.4a.265.265,0,0,1,.3.3v1.1c-.1.2-.2.2-.3.2H5.6v6.2a.265.265,0,0,1-.3.3H4.1a.265.265,0,0,1-.3-.3V77H.3c-.2,0-.3,0-.3-.2V75.7a.265.265,0,0,1,.3-.3Z" fill="#fff"/>
      <path id="Path_193" data-name="Path 193" d="M15.6,77.1a5.283,5.283,0,0,1,1.3.1,1.506,1.506,0,0,1,.8.4,1.794,1.794,0,0,1,.5.7,3.75,3.75,0,0,1,.1,1.1V83c0,.1-.1.2-.1.3a.367.367,0,0,1-.3.1H12a1.949,1.949,0,0,1-.8-.1,2.186,2.186,0,0,1-.5-.3,2.186,2.186,0,0,1-.3-.5,1.7,1.7,0,0,1-.1-.7v-.6c0-.2,0-.5.1-.6.1-.2.2-.3.3-.5a2.186,2.186,0,0,1,.5-.3,1.949,1.949,0,0,1,.8-.1h4.7v-.2a.9.9,0,0,0-.1-.5c0-.1-.1-.2-.2-.3s-.2-.1-.4-.2c-.2,0-.4-.1-.6-.1H10.6a.215.215,0,0,1-.2-.2v-1a.215.215,0,0,1,.2-.2h5Zm.8,5.1a.367.367,0,0,0,.3-.1c0-.1.1-.2.1-.3v-1H12.6a.749.749,0,0,0-.5.1c-.1.1-.1.2-.1.4v.2a.749.749,0,0,0,.1.5.749.749,0,0,0,.5.1h3.8Z" fill="#fff"/>
      <path id="Path_194" data-name="Path 194" d="M20.4,77.1V75.6a.265.265,0,0,1,.3-.3h1.1a.265.265,0,0,1,.3.3v1.5h2a.215.215,0,0,1,.2.2v.9a.215.215,0,0,1-.2.2h-2v2.7a1.165,1.165,0,0,0,.2.7,1.292,1.292,0,0,0,.8.2h1.1a.215.215,0,0,1,.2.2v.9a.215.215,0,0,1-.2.2H22.8a3.42,3.42,0,0,1-1.1-.1,1.532,1.532,0,0,1-1.1-1.1,3.083,3.083,0,0,1-.1-1V78.4H19.4a.215.215,0,0,1-.2-.2v-.9a.215.215,0,0,1,.2-.2h1Z" fill="#fff"/>
      <path id="Path_195" data-name="Path 195" d="M26.2,77.1c.1,0,.2.1.3.2L28,82a.1.1,0,0,0,.1.1h0c.1,0,.1,0,.1-.1l1.6-4.4c.1-.2.2-.4.3-.4a.749.749,0,0,1,.5-.1H32a.749.749,0,0,1,.5.1,1.38,1.38,0,0,1,.3.4L34.3,82c0,.1,0,.1.1.1h0c.1,0,.1,0,.1-.1L36,77.3c0-.1.1-.2.3-.2h1.3c.1,0,.2,0,.2.1v.2L36,82.7a1.628,1.628,0,0,1-.3.6c-.1.1-.3.1-.6.1H33.6a.764.764,0,0,1-.5-.2,1.628,1.628,0,0,1-.3-.6l-1.5-4.2a.1.1,0,0,0-.1-.1h-.1c-.1,0-.1,0-.1.1l-1.5,4.2a1.628,1.628,0,0,1-.3.6.764.764,0,0,1-.5.2H27.2a1.268,1.268,0,0,1-.6-.1,1.628,1.628,0,0,1-.3-.6l-1.7-5.3v-.2a.349.349,0,0,1,.2-.1Z" fill="#fff"/>
      <path id="Path_196" data-name="Path 196" d="M44.3,77.1a3.083,3.083,0,0,1,1,.1,1.628,1.628,0,0,1,.6.3.855.855,0,0,1,.3.6,2.22,2.22,0,0,1,.1.9v1.1a.764.764,0,0,1-.2.5.749.749,0,0,1-.5.1H39.8V81a.984.984,0,0,0,.3.8c.2.2.5.2,1,.2h4.8a.215.215,0,0,1,.2.2v1a.215.215,0,0,1-.2.2h-5a4.888,4.888,0,0,1-1.3-.1,2.01,2.01,0,0,1-.8-.4,1.794,1.794,0,0,1-.5-.7,3.75,3.75,0,0,1-.1-1.1V79.4a3.75,3.75,0,0,1,.1-1.1,1.157,1.157,0,0,1,.5-.7,2.01,2.01,0,0,1,.8-.4,4.888,4.888,0,0,1,1.3-.1h3.4Zm-4.5,2.7h4.7a.215.215,0,0,0,.2-.2v-.5a4.331,4.331,0,0,0-.1-.5c-.1-.1-.3-.1-.6-.1H41.1a2.151,2.151,0,0,0-1,.2.984.984,0,0,0-.3.8v.3Z" fill="#fff"/>
      <path id="Path_197" data-name="Path 197" d="M53.4,77.1a3.083,3.083,0,0,1,1,.1,1.628,1.628,0,0,1,.6.3.855.855,0,0,1,.3.6,2.22,2.22,0,0,1,.1.9v1.1a.764.764,0,0,1-.2.5.749.749,0,0,1-.5.1H48.9V81a.984.984,0,0,0,.3.8c.2.2.5.2,1,.2H55a.215.215,0,0,1,.2.2v1a.215.215,0,0,1-.2.2H50a4.888,4.888,0,0,1-1.3-.1,2.01,2.01,0,0,1-.8-.4,1.794,1.794,0,0,1-.5-.7,3.75,3.75,0,0,1-.1-1.1V79.4a3.75,3.75,0,0,1,.1-1.1,1.157,1.157,0,0,1,.5-.7,2.01,2.01,0,0,1,.8-.4,4.888,4.888,0,0,1,1.3-.1h3.4Zm-4.5,2.7h4.7a.215.215,0,0,0,.2-.2v-.5a4.331,4.331,0,0,0-.1-.5c-.1-.1-.3-.1-.6-.1H50.2a2.151,2.151,0,0,0-1,.2.984.984,0,0,0-.3.8v.3Z" fill="#fff"/>
      <path id="Path_198" data-name="Path 198" d="M62.5,77.1a.215.215,0,0,1,.2.2v1a.215.215,0,0,1-.2.2H59.4a1.268,1.268,0,0,0-.6.1.707.707,0,0,0-.6.6c0,.2-.1.4-.1.6v3.4a.265.265,0,0,1-.3.3H56.7a.265.265,0,0,1-.3-.3V79.5a3.75,3.75,0,0,1,.1-1.1,1.157,1.157,0,0,1,.5-.7,2.01,2.01,0,0,1,.8-.4,4.888,4.888,0,0,1,1.3-.1h3.4Z" fill="#fff"/>
      <path id="Path_199" data-name="Path 199" d="M75.7,75.4a.265.265,0,0,1,.3.3v1.1a.265.265,0,0,1-.3.3h-5a1.483,1.483,0,0,0-.7.1c-.2.1-.4.1-.5.3a.764.764,0,0,0-.2.5c0,.2-.1.5-.1.8v.1h6.5a.265.265,0,0,1,.3.3v.9a.265.265,0,0,1-.3.3H69.2v.2a1.95,1.95,0,0,0,.1.8.764.764,0,0,0,.2.5,2.186,2.186,0,0,0,.5.3c.2,0,.4.1.7.1h5a.265.265,0,0,1,.3.3v1.1a.265.265,0,0,1-.3.3H70.6a6.053,6.053,0,0,1-1.5-.2,3.128,3.128,0,0,1-1-.5c-.3-.2-.4-.6-.6-.9a5.9,5.9,0,0,1-.2-1.4V79a5.212,5.212,0,0,1,.2-1.4,1.456,1.456,0,0,1,.6-.9,3.128,3.128,0,0,1,1-.5,6.053,6.053,0,0,1,1.5-.2h5.1Z" fill="#fff"/>
      <path id="Path_200" data-name="Path 200" d="M84.3,77.1V75a.265.265,0,0,1,.3-.3h1.1a.265.265,0,0,1,.3.3v6.1a3.75,3.75,0,0,1-.1,1.1,1.157,1.157,0,0,1-.5.7,2.01,2.01,0,0,1-.8.4,5.283,5.283,0,0,1-1.3.1H80.1a4.888,4.888,0,0,1-1.3-.1,2.01,2.01,0,0,1-.8-.4,1.794,1.794,0,0,1-.5-.7,3.75,3.75,0,0,1-.1-1.1V79.4a3.75,3.75,0,0,1,.1-1.1,1.157,1.157,0,0,1,.5-.7,2.01,2.01,0,0,1,.8-.4,4.888,4.888,0,0,1,1.3-.1h4.2Zm-1.3,5c.3,0,.5,0,.6-.1a.707.707,0,0,0,.6-.6c0-.2.1-.4.1-.6V78.5H80.1a1.268,1.268,0,0,0-.6.1.707.707,0,0,0-.6.6c0,.2-.1.4-.1.6v1a1.268,1.268,0,0,0,.1.6.707.707,0,0,0,.6.6c.2,0,.4.1.6.1H83Z" fill="#fff"/>
      <path id="Path_201" data-name="Path 201" d="M88.7,77.1a.265.265,0,0,1,.3.3v3.9a.707.707,0,0,0,.6.6c.2,0,.4.1.6.1h3c.3,0,.5,0,.6-.1a.707.707,0,0,0,.6-.6c0-.2.1-.4.1-.6V77.4a.265.265,0,0,1,.3-.3h1.1a.265.265,0,0,1,.3.3v3.7a3.75,3.75,0,0,1-.1,1.1,1.157,1.157,0,0,1-.5.7,2.01,2.01,0,0,1-.8.4,5.283,5.283,0,0,1-1.3.1H90a4.888,4.888,0,0,1-1.3-.1,2.01,2.01,0,0,1-.8-.4,1.794,1.794,0,0,1-.5-.7,3.75,3.75,0,0,1-.1-1.1V77.4a.265.265,0,0,1,.3-.3Z" fill="#fff"/>
      <path id="Path_202" data-name="Path 202" d="M104.5,77.1a.215.215,0,0,1,.2.2v1a.215.215,0,0,1-.2.2H100c-.3,0-.5,0-.6.1a.707.707,0,0,0-.6.6c0,.2-.1.4-.1.6v1a1.268,1.268,0,0,0,.1.6.707.707,0,0,0,.6.6c.2,0,.4.1.6.1h4.5a.215.215,0,0,1,.2.2v1a.215.215,0,0,1-.2.2H99.9a4.888,4.888,0,0,1-1.3-.1,2.01,2.01,0,0,1-.8-.4,1.794,1.794,0,0,1-.5-.7,3.75,3.75,0,0,1-.1-1.1V79.5a3.75,3.75,0,0,1,.1-1.1,1.157,1.157,0,0,1,.5-.7,2.01,2.01,0,0,1,.8-.4,4.888,4.888,0,0,1,1.3-.1h4.6Z" fill="#fff"/>
      <path id="Path_203" data-name="Path 203" d="M110.9,77.1a5.283,5.283,0,0,1,1.3.1,1.506,1.506,0,0,1,.8.4,1.794,1.794,0,0,1,.5.7,3.75,3.75,0,0,1,.1,1.1V83c0,.1-.1.2-.1.3a.367.367,0,0,1-.3.1h-5.9a1.95,1.95,0,0,1-.8-.1,1.2,1.2,0,0,1-.8-.8,1.7,1.7,0,0,1-.1-.7v-.6c0-.2,0-.5.1-.6.1-.2.2-.3.3-.5a2.186,2.186,0,0,1,.5-.3,1.949,1.949,0,0,1,.8-.1H112v-.2a.9.9,0,0,0-.1-.5c0-.1-.1-.2-.2-.3s-.2-.1-.4-.2c-.2,0-.4-.1-.6-.1h-4.8a.215.215,0,0,1-.2-.2v-1a.215.215,0,0,1,.2-.2h5Zm.8,5.1a.367.367,0,0,0,.3-.1c0-.1.1-.2.1-.3v-1h-4.2a.749.749,0,0,0-.5.1c-.1.1-.1.2-.1.4v.2a.46.46,0,0,0,.6.6h3.8Z" fill="#fff"/>
      <path id="Path_204" data-name="Path 204" d="M115.7,77.1V75.6a.265.265,0,0,1,.3-.3h1.1a.265.265,0,0,1,.3.3v1.5h2a.215.215,0,0,1,.2.2v.9a.215.215,0,0,1-.2.2h-2v2.7a1.165,1.165,0,0,0,.2.7,1.292,1.292,0,0,0,.8.2h1.1a.215.215,0,0,1,.2.2v.9a.215.215,0,0,1-.2.2H118a3.42,3.42,0,0,1-1.1-.1,1.532,1.532,0,0,1-1.1-1.1,3.083,3.083,0,0,1-.1-1V78.4h-1.1a.215.215,0,0,1-.2-.2v-.9a.215.215,0,0,1,.2-.2h1.1Z" fill="#fff"/>
      <path id="Path_205" data-name="Path 205" d="M121.9,74.8a.265.265,0,0,1,.3.3v1.1a.265.265,0,0,1-.3.3h-1.1a.265.265,0,0,1-.3-.3V75.1a.265.265,0,0,1,.3-.3Zm0,2.3a.265.265,0,0,1,.3.3v5.8a.265.265,0,0,1-.3.3h-1.1a.265.265,0,0,1-.3-.3V77.4a.265.265,0,0,1,.3-.3Z" fill="#fff"/>
      <path id="Path_206" data-name="Path 206" d="M129.5,77.1a5.283,5.283,0,0,1,1.3.1,1.506,1.506,0,0,1,.8.4,1.794,1.794,0,0,1,.5.7,3.749,3.749,0,0,1,.1,1.1v1.7a3.749,3.749,0,0,1-.1,1.1,1.157,1.157,0,0,1-.5.7,2.01,2.01,0,0,1-.8.4,5.283,5.283,0,0,1-1.3.1h-3.3a4.888,4.888,0,0,1-1.3-.1,2.01,2.01,0,0,1-.8-.4,1.794,1.794,0,0,1-.5-.7,3.75,3.75,0,0,1-.1-1.1V79.4a3.75,3.75,0,0,1,.1-1.1,1.157,1.157,0,0,1,.5-.7,2.01,2.01,0,0,1,.8-.4,4.888,4.888,0,0,1,1.3-.1Zm-4.3,3.7a1.268,1.268,0,0,0,.1.6.707.707,0,0,0,.6.6c.2,0,.4.1.6.1h2.9c.3,0,.5,0,.6-.1a.707.707,0,0,0,.6-.6c0-.2.1-.4.1-.6V79.7a1.268,1.268,0,0,0-.1-.6.707.707,0,0,0-.6-.6c-.2,0-.4-.1-.6-.1h-2.9a1.268,1.268,0,0,0-.6.1.707.707,0,0,0-.6.6c0,.2-.1.4-.1.6Z" fill="#fff"/>
      <path id="Path_207" data-name="Path 207" d="M139.6,77.1a5.283,5.283,0,0,1,1.3.1,1.506,1.506,0,0,1,.8.4,1.794,1.794,0,0,1,.5.7,3.749,3.749,0,0,1,.1,1.1v3.7a.265.265,0,0,1-.3.3h-1a.265.265,0,0,1-.3-.3V79.2a.707.707,0,0,0-.6-.6c-.2,0-.4-.1-.6-.1h-3.1a1.268,1.268,0,0,0-.6.1c-.2.1-.3.1-.4.2a.52.52,0,0,0-.2.4c0,.2-.1.4-.1.6v3.3a.265.265,0,0,1-.3.3h-1.1a.265.265,0,0,1-.3-.3V79.4a3.749,3.749,0,0,1,.1-1.1,1.157,1.157,0,0,1,.5-.7,2.01,2.01,0,0,1,.8-.4,4.888,4.888,0,0,1,1.3-.1Z" fill="#fff"/>
      <path id="Path_208" data-name="Path 208" d="M148.9,77.1a5.283,5.283,0,0,1,1.3.1,1.506,1.506,0,0,1,.8.4,1.794,1.794,0,0,1,.5.7,3.749,3.749,0,0,1,.1,1.1V83c0,.1-.1.2-.1.3a.367.367,0,0,1-.3.1h-5.9a1.949,1.949,0,0,1-.8-.1,1.2,1.2,0,0,1-.8-.8,1.7,1.7,0,0,1-.1-.7v-.6c0-.2,0-.5.1-.6.1-.2.2-.3.3-.5a2.186,2.186,0,0,1,.5-.3,1.949,1.949,0,0,1,.8-.1H150v-.2a.9.9,0,0,0-.1-.5c0-.1-.1-.2-.2-.3s-.2-.1-.4-.2c-.2,0-.4-.1-.6-.1h-4.8a.215.215,0,0,1-.2-.2v-1a.215.215,0,0,1,.2-.2h5Zm.8,5.1a.367.367,0,0,0,.3-.1c0-.1.1-.2.1-.3v-1h-4.2a.749.749,0,0,0-.5.1c-.1.1-.1.2-.1.4v.2a.46.46,0,0,0,.6.6h3.8Z" fill="#fff"/>
      <path id="Path_209" data-name="Path 209" d="M154.3,74.8a.265.265,0,0,1,.3.3v8.1a.265.265,0,0,1-.3.3h-1.1a.265.265,0,0,1-.3-.3V75.1a.265.265,0,0,1,.3-.3Z" fill="#fff"/>
      <path id="Path_210" data-name="Path 210" d="M168.6,75.4a.265.265,0,0,1,.3.3v1.1a.265.265,0,0,1-.3.3H165v6.2a.265.265,0,0,1-.3.3h-1.3a.265.265,0,0,1-.3-.3V77h-3.6a.265.265,0,0,1-.3-.3V75.6a.265.265,0,0,1,.3-.3h9.1Z" fill="#fff"/>
      <path id="Path_211" data-name="Path 211" d="M175.5,77.1a3.083,3.083,0,0,1,1,.1,1.628,1.628,0,0,1,.6.3.855.855,0,0,1,.3.6,2.219,2.219,0,0,1,.1.9v1.1a.764.764,0,0,1-.2.5.749.749,0,0,1-.5.1H171V81a.984.984,0,0,0,.3.8c.2.2.5.2,1,.2h4.8a.215.215,0,0,1,.2.2v1a.215.215,0,0,1-.2.2h-5a4.888,4.888,0,0,1-1.3-.1,2.01,2.01,0,0,1-.8-.4,1.794,1.794,0,0,1-.5-.7,3.749,3.749,0,0,1-.1-1.1V79.4a3.749,3.749,0,0,1,.1-1.1,1.157,1.157,0,0,1,.5-.7,2.01,2.01,0,0,1,.8-.4,4.888,4.888,0,0,1,1.3-.1h3.4ZM171,79.8h4.7a.215.215,0,0,0,.2-.2v-.5a.749.749,0,0,0-.1-.5c-.1-.1-.3-.1-.6-.1h-2.9a2.151,2.151,0,0,0-1,.2.984.984,0,0,0-.3.8v.3Z" fill="#fff"/>
      <path id="Path_212" data-name="Path 212" d="M185.8,77.1a.215.215,0,0,1,.2.2v1a.215.215,0,0,1-.2.2h-4.5c-.3,0-.5,0-.6.1a.707.707,0,0,0-.6.6c0,.2-.1.4-.1.6v1a1.268,1.268,0,0,0,.1.6c.1.2.1.3.2.4a.52.52,0,0,0,.4.2c.2,0,.4.1.6.1h4.5a.215.215,0,0,1,.2.2v1a.215.215,0,0,1-.2.2h-4.6a4.888,4.888,0,0,1-1.3-.1,2.01,2.01,0,0,1-.8-.4,1.794,1.794,0,0,1-.5-.7,3.749,3.749,0,0,1-.1-1.1V79.5a3.749,3.749,0,0,1,.1-1.1,1.157,1.157,0,0,1,.5-.7,2.01,2.01,0,0,1,.8-.4,4.888,4.888,0,0,1,1.3-.1h4.6Z" fill="#fff"/>
      <path id="Path_213" data-name="Path 213" d="M188.5,74.8a.265.265,0,0,1,.3.3v2.1h4.3a5.283,5.283,0,0,1,1.3.1,1.506,1.506,0,0,1,.8.4,1.794,1.794,0,0,1,.5.7,3.749,3.749,0,0,1,.1,1.1v3.7a.265.265,0,0,1-.3.3h-1.1a.265.265,0,0,1-.3-.3V79.3a.707.707,0,0,0-.6-.6c-.2,0-.4-.1-.6-.1h-4.2v4.6a.265.265,0,0,1-.3.3h-1.1a.265.265,0,0,1-.3-.3V75.1a.265.265,0,0,1,.3-.3h1.2Z" fill="#fff"/>
      <path id="Path_214" data-name="Path 214" d="M203.3,77.1a5.283,5.283,0,0,1,1.3.1,1.506,1.506,0,0,1,.8.4,1.794,1.794,0,0,1,.5.7,3.749,3.749,0,0,1,.1,1.1v3.7a.265.265,0,0,1-.3.3h-1.1a.265.265,0,0,1-.3-.3V79.2a.707.707,0,0,0-.6-.6c-.2,0-.4-.1-.6-.1H200a1.268,1.268,0,0,0-.6.1c-.2.1-.3.1-.4.2a.52.52,0,0,0-.2.4c0,.2-.1.4-.1.6v3.3a.265.265,0,0,1-.3.3h-1.1a.265.265,0,0,1-.3-.3V79.4a3.749,3.749,0,0,1,.1-1.1,1.157,1.157,0,0,1,.5-.7,2.01,2.01,0,0,1,.8-.4,4.888,4.888,0,0,1,1.3-.1Z" fill="#fff"/>
      <path id="Path_215" data-name="Path 215" d="M213.3,77.1a5.283,5.283,0,0,1,1.3.1,1.506,1.506,0,0,1,.8.4,1.794,1.794,0,0,1,.5.7,3.749,3.749,0,0,1,.1,1.1v1.7a3.749,3.749,0,0,1-.1,1.1,1.157,1.157,0,0,1-.5.7,2.01,2.01,0,0,1-.8.4,5.283,5.283,0,0,1-1.3.1H210a4.888,4.888,0,0,1-1.3-.1,2.01,2.01,0,0,1-.8-.4,1.794,1.794,0,0,1-.5-.7,3.749,3.749,0,0,1-.1-1.1V79.4a3.749,3.749,0,0,1,.1-1.1,1.157,1.157,0,0,1,.5-.7,2.01,2.01,0,0,1,.8-.4,4.888,4.888,0,0,1,1.3-.1ZM209,80.8a1.268,1.268,0,0,0,.1.6.707.707,0,0,0,.6.6c.2,0,.4.1.6.1h2.9c.3,0,.5,0,.6-.1a.707.707,0,0,0,.6-.6c0-.2.1-.4.1-.6V79.7a1.268,1.268,0,0,0-.1-.6.707.707,0,0,0-.6-.6c-.2,0-.4-.1-.6-.1h-2.9a1.268,1.268,0,0,0-.6.1.707.707,0,0,0-.6.6c0,.2-.1.4-.1.6Z" fill="#fff"/>
      <path id="Path_216" data-name="Path 216" d="M218.8,74.8a.265.265,0,0,1,.3.3v8.1a.265.265,0,0,1-.3.3h-1.1a.265.265,0,0,1-.3-.3V75.1a.265.265,0,0,1,.3-.3Z" fill="#fff"/>
      <path id="Path_217" data-name="Path 217" d="M226.4,77.1a5.283,5.283,0,0,1,1.3.1,1.506,1.506,0,0,1,.8.4,1.794,1.794,0,0,1,.5.7,3.749,3.749,0,0,1,.1,1.1v1.7a3.749,3.749,0,0,1-.1,1.1,1.157,1.157,0,0,1-.5.7,2.01,2.01,0,0,1-.8.4,5.283,5.283,0,0,1-1.3.1h-3.3a4.888,4.888,0,0,1-1.3-.1,2.01,2.01,0,0,1-.8-.4,1.794,1.794,0,0,1-.5-.7,3.749,3.749,0,0,1-.1-1.1V79.4a3.749,3.749,0,0,1,.1-1.1,1.157,1.157,0,0,1,.5-.7,2.01,2.01,0,0,1,.8-.4,4.888,4.888,0,0,1,1.3-.1Zm-4.3,3.7a1.268,1.268,0,0,0,.1.6.707.707,0,0,0,.6.6c.2,0,.4.1.6.1h2.9c.3,0,.5,0,.6-.1a.707.707,0,0,0,.6-.6c0-.2.1-.4.1-.6V79.7a1.268,1.268,0,0,0-.1-.6c-.1-.2-.1-.3-.2-.4a.52.52,0,0,0-.4-.2c-.2,0-.4-.1-.6-.1h-2.9a1.268,1.268,0,0,0-.6.1.707.707,0,0,0-.6.6c0,.2-.1.4-.1.6Z" fill="#fff"/>
      <path id="Path_218" data-name="Path 218" d="M236.4,77.1a4.888,4.888,0,0,1,1.3.1,2.01,2.01,0,0,1,.8.4,1.794,1.794,0,0,1,.5.7,3.749,3.749,0,0,1,.1,1.1v4.2a3.749,3.749,0,0,1-.1,1.1,1.157,1.157,0,0,1-.5.7,2.01,2.01,0,0,1-.8.4,4.888,4.888,0,0,1-1.3.1H231a.215.215,0,0,1-.2-.2v-1a.215.215,0,0,1,.2-.2h5.3c.3,0,.5,0,.6-.1a.707.707,0,0,0,.6-.6c0-.2.1-.4.1-.6V83h-4.3a4.888,4.888,0,0,1-1.3-.1,2.01,2.01,0,0,1-.8-.4,1.794,1.794,0,0,1-.5-.7,3.749,3.749,0,0,1-.1-1.1V79.5a3.749,3.749,0,0,1,.1-1.1,1.157,1.157,0,0,1,.5-.7,2.01,2.01,0,0,1,.8-.4,4.888,4.888,0,0,1,1.3-.1h3.1Zm-4.3,3.6a.749.749,0,0,0,.1.5c0,.1.1.2.2.3a.52.52,0,0,0,.4.2c.2,0,.4.1.6.1h4.2V79.6a1.222,1.222,0,0,0-.3-.9,1.327,1.327,0,0,0-1-.3h-2.9a1.268,1.268,0,0,0-.6.1.52.52,0,0,0-.4.2c-.1.1-.2.2-.2.3a4.331,4.331,0,0,0-.1.5Z" fill="#fff"/>
      <path id="Path_219" data-name="Path 219" d="M241.9,74.8a.265.265,0,0,1,.3.3v1.1a.265.265,0,0,1-.3.3h-1.1a.265.265,0,0,1-.3-.3V75.1a.265.265,0,0,1,.3-.3Zm0,2.3a.265.265,0,0,1,.3.3v5.8a.265.265,0,0,1-.3.3h-1.1a.265.265,0,0,1-.3-.3V77.4a.265.265,0,0,1,.3-.3Z" fill="#fff"/>
      <path id="Path_220" data-name="Path 220" d="M249.5,77.1a3.083,3.083,0,0,1,1,.1,1.628,1.628,0,0,1,.6.3.855.855,0,0,1,.3.6,2.219,2.219,0,0,1,.1.9v1.1a.764.764,0,0,1-.2.5.749.749,0,0,1-.5.1H245V81a.984.984,0,0,0,.3.8c.2.2.5.2,1,.2h4.8a.215.215,0,0,1,.2.2v1a.215.215,0,0,1-.2.2h-5a4.888,4.888,0,0,1-1.3-.1,2.01,2.01,0,0,1-.8-.4,1.794,1.794,0,0,1-.5-.7,3.749,3.749,0,0,1-.1-1.1V79.4a3.749,3.749,0,0,1,.1-1.1,1.157,1.157,0,0,1,.5-.7,2.01,2.01,0,0,1,.8-.4,4.888,4.888,0,0,1,1.3-.1h3.4ZM245,79.8h4.7a.215.215,0,0,0,.2-.2v-.5a.749.749,0,0,0-.1-.5c-.1-.1-.3-.1-.6-.1h-2.9a2.151,2.151,0,0,0-1,.2.984.984,0,0,0-.3.8v.3Z" fill="#fff"/>
      <path id="Path_221" data-name="Path 221" d="M260,77.1a.215.215,0,0,1,.2.2v.9a.215.215,0,0,1-.2.2h-5.2a.749.749,0,0,0-.5.1c-.1.1-.1.2-.1.4v.2c0,.2,0,.3.1.4a.749.749,0,0,0,.5.1h3.9a1.955,1.955,0,0,1,1.4.4,1.366,1.366,0,0,1,.4,1.1v.6a1.483,1.483,0,0,1-.1.7,2.187,2.187,0,0,1-.3.5,1.628,1.628,0,0,1-.6.3,2.22,2.22,0,0,1-.9.1h-5.9a.215.215,0,0,1-.2-.2v-.9a.215.215,0,0,1,.2-.2h5.5a.749.749,0,0,0,.5-.1c.1-.1.1-.2.1-.4v-.3c0-.2,0-.3-.1-.4a.749.749,0,0,0-.5-.1h-3.9a1.955,1.955,0,0,1-1.4-.4,1.594,1.594,0,0,1-.4-1.2v-.5a1.7,1.7,0,0,1,.1-.7,2.186,2.186,0,0,1,.3-.5,1.628,1.628,0,0,1,.6-.3,2.22,2.22,0,0,1,.9-.1H260Z" fill="#fff"/>
    </g>
  </g>
</svg>
