<svg xmlns="http://www.w3.org/2000/svg" width="24.664" height="24.664" viewBox="0 0 24.664 24.664">
  <g id="Group_1" data-name="Group 1" transform="translate(0.5 0.5)">
    <path id="Path_2649" data-name="Path 2649" d="M12.217,16.962h0A7.773,7.773,0,0,1,4.5,9.246V.5H19.933V9.246A7.773,7.773,0,0,1,12.217,16.962Z" transform="translate(-0.384 -0.5)" fill="none" stroke="#a8b5bb" stroke-linecap="round" stroke-linejoin="round" stroke-miterlimit="10" stroke-width="1"/>
    <path id="Path_2650" data-name="Path 2650" d="M12.124,16.5c-.514,2.058.206,5.865-4.424,7.2h8.951C11.918,22.365,12.639,18.558,12.124,16.5Z" transform="translate(-0.292 -0.038)" fill="none" stroke="#a8b5bb" stroke-linecap="round" stroke-linejoin="round" stroke-miterlimit="10" stroke-width="1"/>
    <path id="Path_2651" data-name="Path 2651" d="M19.5,9.731h0V1.5h4.116V5.616A4.128,4.128,0,0,1,19.5,9.731Z" transform="translate(0.049 -0.471)" fill="none" stroke="#a8b5bb" stroke-linecap="round" stroke-linejoin="round" stroke-miterlimit="10" stroke-width="1"/>
    <path id="Path_2652" data-name="Path 2652" d="M4.616,9.731h0V1.5H.5V5.616A4.128,4.128,0,0,0,4.616,9.731Z" transform="translate(-0.5 -0.471)" fill="none" stroke="#a8b5bb" stroke-linecap="round" stroke-linejoin="round" stroke-miterlimit="10" stroke-width="1"/>
  </g>
</svg>
