<svg xmlns="http://www.w3.org/2000/svg" width="23.574" height="22.593" viewBox="0 0 23.574 22.593">
  <g id="Group_2" data-name="Group 2" transform="translate(0.5 0.5)">
    <path id="Path_2653" data-name="Path 2653" d="M19.148,2.5h3.926V21.148a.927.927,0,0,1-.981.981H1.481A.927.927,0,0,1,.5,21.148V2.5H4.426" transform="translate(-0.5 -0.537)" fill="none" stroke="#a8b5bb" stroke-linecap="round" stroke-linejoin="round" stroke-miterlimit="10" stroke-width="1"/>
    <line id="Line_27" data-name="Line 27" x2="9.815" transform="translate(6.478 1.963)" fill="none" stroke="#a8b5bb" stroke-linecap="round" stroke-linejoin="round" stroke-miterlimit="10" stroke-width="1"/>
    <path id="Path_2654" data-name="Path 2654" d="M5.481.5h0a.927.927,0,0,1,.981.981V3.444a.927.927,0,0,1-.981.981h0A.927.927,0,0,1,4.5,3.444V1.481A.927.927,0,0,1,5.481.5Z" transform="translate(-0.574 -0.5)" fill="none" stroke="#a8b5bb" stroke-linecap="round" stroke-linejoin="round" stroke-miterlimit="10" stroke-width="1"/>
    <path id="Path_2655" data-name="Path 2655" d="M18.481.5h0a.927.927,0,0,1,.981.981V3.444a.927.927,0,0,1-.981.981h0a.927.927,0,0,1-.981-.981V1.481A.927.927,0,0,1,18.481.5Z" transform="translate(-0.815 -0.5)" fill="none" stroke="#a8b5bb" stroke-linecap="round" stroke-linejoin="round" stroke-miterlimit="10" stroke-width="1"/>
    <line id="Line_28" data-name="Line 28" x2="21.593" transform="translate(0.589 7.852)" fill="none" stroke="#a8b5bb" stroke-linecap="round" stroke-linejoin="round" stroke-miterlimit="10" stroke-width="1"/>
  </g>
</svg>
