<svg id="First_x5F_Place_1_" xmlns="http://www.w3.org/2000/svg" width="138.275" height="184.422" viewBox="0 0 138.275 184.422">
  <g id="Group_2474" data-name="Group 2474" transform="translate(13.408 13.408)">
    <path id="Path_2257" data-name="Path 2257" d="M60.63,116.36a55.73,55.73,0,1,1,55.73-55.73A55.613,55.613,0,0,1,60.63,116.36Zm0-108.728a53,53,0,1,0,53,53A53.048,53.048,0,0,0,60.63,7.632Z" transform="translate(-4.9 -4.9)" fill="#ffda00"/>
  </g>
  <g id="Group_2478" data-name="Group 2478" transform="translate(26.657 26.111)">
    <g id="Group_2475" data-name="Group 2475" transform="translate(1.912)">
      <path id="Path_2258" data-name="Path 2258" d="M11.953,34a2.071,2.071,0,0,1-1.093-.546,1.32,1.32,0,0,1,0-1.912L32.441,9.96a1.352,1.352,0,0,1,1.912,1.912L12.772,33.454C12.5,33.727,12.226,34,11.953,34Z" transform="translate(-10.45 -9.55)" fill="#d9d3d3"/>
    </g>
    <g id="Group_2476" data-name="Group 2476" transform="translate(0 10.381)">
      <path id="Path_2259" data-name="Path 2259" d="M11.253,39.439a2.071,2.071,0,0,1-1.093-.546,1.32,1.32,0,0,1,0-1.912L33.381,13.76a1.352,1.352,0,1,1,1.912,1.912L12.072,38.893C12.072,39.439,11.8,39.439,11.253,39.439Z" transform="translate(-9.75 -13.35)" fill="#d9d3d3"/>
    </g>
    <g id="Group_2477" data-name="Group 2477" transform="translate(27.865 0.546)">
      <path id="Path_2260" data-name="Path 2260" d="M21.453,17.809a2.071,2.071,0,0,1-1.093-.546,1.32,1.32,0,0,1,0-1.912L25.55,10.16a1.352,1.352,0,0,1,1.912,1.912l-5.191,5.191C22.272,17.809,22,17.809,21.453,17.809Z" transform="translate(-19.95 -9.75)" fill="#d9d3d3"/>
    </g>
  </g>
  <g id="Group_2480" data-name="Group 2480" transform="translate(0 0)">
    <g id="Group_2479" data-name="Group 2479">
      <path id="Path_2261" data-name="Path 2261" d="M57.109,138.245a7.374,7.374,0,0,1-6.01-2.732l-3.551-4.1a10.6,10.6,0,0,0-7.1-3.005l-5.464.546a7.957,7.957,0,0,1-7.922-5.464L25.42,118.3a10.665,10.665,0,0,0-5.464-5.464L14.766,111.2A8.193,8.193,0,0,1,9.3,103.278l.546-5.464a9.316,9.316,0,0,0-3.005-7.1l-4.1-3.551A7.885,7.885,0,0,1,.833,77.6l2.459-4.917a9.328,9.328,0,0,0,0-7.649L.833,60.114A7.268,7.268,0,0,1,2.745,51.1l4.1-3.551a10.6,10.6,0,0,0,3.005-7.1L9.3,34.981a7.957,7.957,0,0,1,5.464-7.922l5.191-1.639a10.665,10.665,0,0,0,5.464-5.464l1.639-5.191A8.193,8.193,0,0,1,34.981,9.3l5.464.546a9.316,9.316,0,0,0,7.1-3.005l3.551-4.1A7.885,7.885,0,0,1,60.661.833l4.917,2.459a9.328,9.328,0,0,0,7.649,0L78.145.833A7.268,7.268,0,0,1,87.16,2.745l3.551,4.1a10.6,10.6,0,0,0,7.1,3.005l5.464-.546a7.957,7.957,0,0,1,7.922,5.464l1.639,5.191A10.665,10.665,0,0,0,118.3,25.42l5.191,1.639a8.193,8.193,0,0,1,5.464,7.922l-.546,5.464a9.316,9.316,0,0,0,3.005,7.1l4.1,3.551a7.885,7.885,0,0,1,1.912,9.561l-2.459,4.917a9.328,9.328,0,0,0,0,7.649l2.459,4.917a8.034,8.034,0,0,1-1.912,9.561l-4.1,3.551c-1.912,1.093-3.005,4.371-3.005,6.556l.546,5.464a7.957,7.957,0,0,1-5.464,7.922l-5.191,1.639a10.665,10.665,0,0,0-5.464,5.464l-1.639,5.191a8.193,8.193,0,0,1-7.922,5.464l-5.464-.546a9.316,9.316,0,0,0-7.1,3.005l-3.551,4.1a7.885,7.885,0,0,1-9.561,1.912l-4.917-2.459a9.328,9.328,0,0,0-7.649,0l-4.917,2.459A5.507,5.507,0,0,1,57.109,138.245ZM40.991,125.679a12.894,12.894,0,0,1,8.742,3.825l3.551,4.1a4.988,4.988,0,0,0,6.01,1.093l4.917-2.459a12.979,12.979,0,0,1,10.108,0l4.917,2.459a4.988,4.988,0,0,0,6.01-1.093l3.551-4.1a12.566,12.566,0,0,1,9.561-3.825l5.464.546a5.119,5.119,0,0,0,4.917-3.278l1.639-5.191c1.093-3.005,4.1-6.283,7.1-7.1l5.191-1.639a5,5,0,0,0,3.278-4.917l-.546-5.464a12.566,12.566,0,0,1,3.825-9.561l4.1-3.551a4.988,4.988,0,0,0,1.093-6.01l-2.459-4.917a12.979,12.979,0,0,1,0-10.108l2.459-4.917a4.988,4.988,0,0,0-1.093-6.01l-4.1-3.551a12.566,12.566,0,0,1-3.825-9.561l.546-5.464a4.778,4.778,0,0,0-3.278-4.917l-5.191-1.912c-3.005-1.093-6.283-4.1-7.1-7.1l-1.639-5.191a5,5,0,0,0-4.917-3.278l-5.464.546A12.566,12.566,0,0,1,88.8,9.3L85.247,5.2a4.988,4.988,0,0,0-6.01-1.093L74.32,6.57a12.979,12.979,0,0,1-10.108,0L59.295,4.111a4.282,4.282,0,0,0-6.01.546l-3.551,4.1a12.566,12.566,0,0,1-9.561,3.825l-5.464-.546a5.659,5.659,0,0,0-4.917,3.551l-1.639,5.191c-1.093,3.005-4.1,6.283-7.1,7.1l-5.191,1.639a5,5,0,0,0-3.278,4.917l.546,5.464A12.566,12.566,0,0,1,9.3,49.46L5.2,53.012c-2.185,1.639-2.732,4.371-1.912,6.01L5.75,63.939a12.979,12.979,0,0,1,0,10.108L3.292,79.237a4.988,4.988,0,0,0,1.093,6.01l4.1,3.551a12.566,12.566,0,0,1,3.825,9.561l-.546,5.464a4.778,4.778,0,0,0,3.278,4.917l5.191,1.639c3.005,1.093,6.283,4.1,7.1,7.1l1.639,5.191a5,5,0,0,0,4.917,3.278l5.464-.546A5.852,5.852,0,0,0,40.991,125.679Z" transform="translate(0.008 0.008)" fill="#ffda00"/>
    </g>
  </g>
  <g id="Group_2481" data-name="Group 2481" transform="translate(9.72 122.408)">
    <path id="Path_2262" data-name="Path 2262" d="M37.835,106.813h0a1.914,1.914,0,0,1-1.912-1.639c-2.185-7.649-4.644-15.572-7.1-22.948,0-.273-.546-.273-.82-.273-7.1,1.639-14.479,3.005-21.582,4.1A2.663,2.663,0,0,1,3.96,84.958a2.049,2.049,0,0,1,0-2.459A283.864,283.864,0,0,0,21.17,45.62a1.548,1.548,0,0,1,2.732,0c.82,1.639,3.005,3.005,4.644,2.732l5.464-.546a12.566,12.566,0,0,1,9.561,3.825l3.551,4.1a4.988,4.988,0,0,0,6.01,1.093l4.917-2.459A13.525,13.525,0,0,1,61.6,53.269a2.087,2.087,0,0,1,1.366.546,2.047,2.047,0,0,1,.273,1.366A337.378,337.378,0,0,1,40.02,105.447,2.837,2.837,0,0,1,37.835,106.813ZM28,79.221a4.263,4.263,0,0,1,3.551,2.185c2.459,7.1,4.917,14.206,6.83,21.582A330.838,330.838,0,0,0,59.69,57.367h-.273L54.5,59.825a8.034,8.034,0,0,1-9.561-1.912l-3.551-4.1a10.6,10.6,0,0,0-7.1-3.005l-5.464.546a6.709,6.709,0,0,1-5.737-2.185A274.489,274.489,0,0,1,7.238,83.046c6.556-1.093,13.386-2.459,20.216-4.1C27.727,79.221,27.727,79.221,28,79.221Z" transform="translate(-3.55 -44.8)" fill="#ffda00"/>
  </g>
  <g id="Group_2482" data-name="Group 2482" transform="translate(69.297 122.955)">
    <path id="Path_2263" data-name="Path 2263" d="M50.332,106.467a2.165,2.165,0,0,1-1.912-1.366,303.434,303.434,0,0,1-22.948-49.72,1.2,1.2,0,0,1,.273-1.366,2.087,2.087,0,0,1,1.366-.546,10.9,10.9,0,0,1,3.551,1.093L35.58,57.02a4.988,4.988,0,0,0,6.01-1.093l3.551-4.1A12.566,12.566,0,0,1,54.7,48.005l5.464.546A4.807,4.807,0,0,0,64.81,45.82a1.548,1.548,0,0,1,2.732,0A283.867,283.867,0,0,0,84.753,82.7a2.049,2.049,0,0,1,0,2.459,2.485,2.485,0,0,1-2.185,1.093c-7.376-1.366-14.752-2.732-21.855-4.371,0,0-.546.273-.546.546-2.459,7.376-4.917,15.025-7.1,22.674a4.769,4.769,0,0,1-2.732,1.366ZM28.75,56.747a301.747,301.747,0,0,0,21.308,45.622c1.912-7.1,4.371-14.479,6.83-21.308a3.513,3.513,0,0,1,3.825-2.185l20.489,4.1A294.511,294.511,0,0,1,65.357,49.1a9.4,9.4,0,0,1-5.737,2.185l-5.464-.546a9.316,9.316,0,0,0-7.1,3.005L43.5,57.84a7.885,7.885,0,0,1-9.562,1.912L28.75,56.747C29.023,57.02,28.75,57.02,28.75,56.747Z" transform="translate(-25.359 -45)" fill="#ffda00"/>
  </g>
  <g id="Group_2484" data-name="Group 2484" transform="translate(50.014 42.638)">
    <g id="Group_2483" data-name="Group 2483">
      <path id="Path_2264" data-name="Path 2264" d="M55.453,69.144H19.666A1.29,1.29,0,0,1,18.3,67.778V55.758a1.29,1.29,0,0,1,1.366-1.366h8.2V36.362h-8.2A1.29,1.29,0,0,1,18.3,35V23.522a1.29,1.29,0,0,1,1.366-1.366H22.4a7.563,7.563,0,0,0,2.459-.273c.82,0,1.366-.273,1.912-.273s.82-.273,1.093-.273a2.99,2.99,0,0,0,.546-1.093,10.189,10.189,0,0,0,.546-3.278A1.29,1.29,0,0,1,30.32,15.6H45.892a1.29,1.29,0,0,1,1.366,1.366V54.392H55.18a1.29,1.29,0,0,1,1.366,1.366v12.02C56.819,68.325,56,69.144,55.453,69.144ZM21.032,66.139H54.087V56.851H46.165A1.29,1.29,0,0,1,44.8,55.485V18.059H31.959a8.082,8.082,0,0,1-.546,2.732c-.546,1.093-1.093,2.185-1.912,2.459a3.948,3.948,0,0,1-1.912.546c-.546,0-1.366.273-2.185.273s-1.639.273-2.732.273H21.305v8.742h8.2a1.29,1.29,0,0,1,1.366,1.366V55.485A1.29,1.29,0,0,1,29.5,56.851h-8.2v9.288Z" transform="translate(-18.3 -15.6)" fill="#f6db6d"/>
    </g>
  </g>
</svg>
