<svg id="Second_x5F_Place_1_" xmlns="http://www.w3.org/2000/svg" width="139.906" height="186.597" viewBox="0 0 139.906 186.597">
  <g id="Group_2485" data-name="Group 2485" transform="translate(13.566 13.566)">
    <path id="Path_2265" data-name="Path 2265" d="M61.287,117.675a56.387,56.387,0,1,1,56.387-56.387A56.27,56.27,0,0,1,61.287,117.675Zm0-110.011a53.623,53.623,0,1,0,53.623,53.623A53.674,53.674,0,0,0,61.287,7.664Z" transform="translate(-4.9 -4.9)" fill="#909ca1"/>
  </g>
  <g id="Group_2489" data-name="Group 2489" transform="translate(26.972 26.419)">
    <g id="Group_2486" data-name="Group 2486" transform="translate(1.935)">
      <path id="Path_2266" data-name="Path 2266" d="M11.97,34.289a2.1,2.1,0,0,1-1.106-.553,1.336,1.336,0,0,1,0-1.935L32.7,9.965A1.368,1.368,0,0,1,34.636,11.9L12.8,33.736C12.523,34.012,12.247,34.289,11.97,34.289Z" transform="translate(-10.45 -9.55)" fill="#d9d3d3"/>
    </g>
    <g id="Group_2487" data-name="Group 2487" transform="translate(0 10.504)">
      <path id="Path_2267" data-name="Path 2267" d="M11.27,39.747a2.1,2.1,0,0,1-1.106-.553,1.336,1.336,0,0,1,0-1.935L33.659,13.765A1.368,1.368,0,1,1,35.594,15.7L12.1,39.194C12.1,39.747,11.823,39.747,11.27,39.747Z" transform="translate(-9.75 -13.35)" fill="#d9d3d3"/>
    </g>
    <g id="Group_2488" data-name="Group 2488" transform="translate(28.194 0.553)">
      <path id="Path_2268" data-name="Path 2268" d="M21.47,17.9a2.1,2.1,0,0,1-1.106-.553,1.336,1.336,0,0,1,0-1.935l5.252-5.252A1.368,1.368,0,0,1,27.551,12.1L22.3,17.351C22.3,17.9,22.023,17.9,21.47,17.9Z" transform="translate(-19.95 -9.75)" fill="#d9d3d3"/>
    </g>
  </g>
  <g id="Group_2491" data-name="Group 2491" transform="translate(0 0)">
    <g id="Group_2490" data-name="Group 2490">
      <path id="Path_2269" data-name="Path 2269" d="M57.783,139.876a7.461,7.461,0,0,1-6.081-2.764l-3.593-4.146a10.72,10.72,0,0,0-7.187-3.04l-5.528.553a8.289,8.289,0,0,1-8.016-5.528L25.72,119.7a10.79,10.79,0,0,0-5.528-5.528l-5.252-1.658A8.289,8.289,0,0,1,9.412,104.5l.553-5.528a9.426,9.426,0,0,0-3.04-7.187L2.778,88.188A7.978,7.978,0,0,1,.843,78.514l2.488-4.975a9.438,9.438,0,0,0,0-7.739L.843,60.824A7.354,7.354,0,0,1,2.778,51.7l4.146-3.593a10.72,10.72,0,0,0,3.04-7.187l-.553-5.528a8.051,8.051,0,0,1,5.528-8.016l5.252-1.658a10.79,10.79,0,0,0,5.528-5.528l1.658-5.252a8.289,8.289,0,0,1,8.016-5.528l5.528.553a9.426,9.426,0,0,0,7.187-3.04L51.7,2.778A7.978,7.978,0,0,1,61.377.843l4.975,2.488a9.438,9.438,0,0,0,7.739,0L79.067.843a7.354,7.354,0,0,1,9.121,1.935l3.593,4.146a10.72,10.72,0,0,0,7.187,3.04l5.528-.553a8.051,8.051,0,0,1,8.016,5.528l1.658,5.252A10.79,10.79,0,0,0,119.7,25.72l5.252,1.658a8.289,8.289,0,0,1,5.528,8.016l-.553,5.528a9.426,9.426,0,0,0,3.04,7.187l4.146,3.593a7.978,7.978,0,0,1,1.935,9.674l-2.488,4.975a9.438,9.438,0,0,0,0,7.739l2.488,4.975a8.129,8.129,0,0,1-1.935,9.674l-4.146,3.593a10.72,10.72,0,0,0-3.04,7.187l.553,5.528a8.051,8.051,0,0,1-5.528,8.016l-5.252,1.658a10.79,10.79,0,0,0-5.528,5.528l-1.658,5.252a8.289,8.289,0,0,1-8.016,5.528l-5.528-.553a9.426,9.426,0,0,0-7.187,3.04l-3.593,4.146a7.665,7.665,0,0,1-9.4,1.935l-4.975-2.488a9.438,9.438,0,0,0-7.739,0L61.1,139.6C59.994,139.6,58.889,139.876,57.783,139.876ZM41.475,127.162a13.046,13.046,0,0,1,8.845,3.87l3.593,4.146a5.046,5.046,0,0,0,6.081,1.106L64.97,133.8a13.132,13.132,0,0,1,10.227,0l4.975,2.488a5.046,5.046,0,0,0,6.081-1.106l3.593-4.146a12.714,12.714,0,0,1,9.674-3.87l5.528.553a4.835,4.835,0,0,0,4.975-3.317l1.658-5.252c1.106-3.04,4.146-6.357,7.187-7.187l5.252-1.658a5.061,5.061,0,0,0,3.317-4.975l-.553-5.528a12.714,12.714,0,0,1,3.87-9.674L134.9,86.53a5.046,5.046,0,0,0,1.106-6.081l-2.488-4.975a13.132,13.132,0,0,1,0-10.227l2.488-4.975A5.046,5.046,0,0,0,134.9,54.19L130.755,50.6a12.714,12.714,0,0,1-3.87-9.674l.553-5.528a4.835,4.835,0,0,0-3.317-4.975l-5.252-1.935c-3.04-1.106-6.357-4.146-7.187-7.187l-1.658-5.252a5.061,5.061,0,0,0-4.975-3.317l-5.528.553a12.714,12.714,0,0,1-9.674-3.87L86.253,5.266A5.046,5.046,0,0,0,80.172,4.16L75.2,6.648a13.132,13.132,0,0,1-10.227,0L59.994,4.16a4.332,4.332,0,0,0-6.081.553L50.32,8.859a12.714,12.714,0,0,1-9.674,3.87l-5.528-.553a5.726,5.726,0,0,0-4.975,3.593l-1.658,5.252c-1.106,3.04-4.146,6.357-7.187,7.187l-5.252,1.658a5.061,5.061,0,0,0-3.317,4.975l.553,5.528a12.714,12.714,0,0,1-3.87,9.674L5.266,53.637C3.054,55.3,2.5,58.06,3.331,59.718l2.488,4.975a13.132,13.132,0,0,1,0,10.227L3.331,80.172a5.046,5.046,0,0,0,1.106,6.081l4.146,3.593a12.714,12.714,0,0,1,3.87,9.674l-.553,5.528a4.835,4.835,0,0,0,3.317,4.975l5.252,1.658c3.04,1.106,6.357,4.146,7.187,7.187l1.658,5.252a5.061,5.061,0,0,0,4.975,3.317l5.528-.553A5.921,5.921,0,0,0,41.475,127.162Z" transform="translate(0.008 0.008)" fill="#909ca1"/>
    </g>
  </g>
  <g id="Group_2492" data-name="Group 2492" transform="translate(9.834 123.853)">
    <path id="Path_2270" data-name="Path 2270" d="M38.239,107.545h0a1.936,1.936,0,0,1-1.935-1.658c-2.211-8.016-4.7-15.755-7.187-23.218a.53.53,0,0,0-.829-.276c-7.187,1.658-14.65,3.04-21.836,4.146a2.694,2.694,0,0,1-2.488-1.106,2.073,2.073,0,0,1,0-2.488A287.213,287.213,0,0,0,21.378,45.629a1.566,1.566,0,0,1,2.764,0c.829,1.658,3.04,3.04,4.7,2.764l5.528-.553a12.714,12.714,0,0,1,9.674,3.87l3.593,4.146a5.046,5.046,0,0,0,6.081,1.106l4.975-2.488a13.685,13.685,0,0,1,3.593-1.106,2.111,2.111,0,0,1,1.382.553,2.071,2.071,0,0,1,.276,1.382,341.357,341.357,0,0,1-23.495,50.859A2.87,2.87,0,0,1,38.239,107.545ZM28.289,79.627a4.313,4.313,0,0,1,3.593,2.211c2.488,7.187,4.975,14.373,6.91,21.836a334.743,334.743,0,0,0,21.56-46.16h-.276L55.1,60a8.129,8.129,0,0,1-9.674-1.935l-3.593-4.146a10.72,10.72,0,0,0-7.187-3.04l-5.528.553a6.788,6.788,0,0,1-5.8-2.211A277.727,277.727,0,0,1,7.282,83.5c6.634-1.106,13.544-2.488,20.454-4.146C28.012,79.627,28.012,79.627,28.289,79.627Z" transform="translate(-3.55 -44.8)" fill="#909ca1"/>
  </g>
  <g id="Group_2493" data-name="Group 2493" transform="translate(70.115 124.405)">
    <path id="Path_2271" data-name="Path 2271" d="M50.626,107.192a2.191,2.191,0,0,1-1.935-1.382A307.013,307.013,0,0,1,25.473,55.5a1.215,1.215,0,0,1,.276-1.382,2.111,2.111,0,0,1,1.382-.553,11.033,11.033,0,0,1,3.593,1.106L35.7,57.162a5.046,5.046,0,0,0,6.081-1.106l3.593-4.146a12.714,12.714,0,0,1,9.674-3.87l5.528.553a4.864,4.864,0,0,0,4.7-2.764,1.566,1.566,0,0,1,2.764,0A287.212,287.212,0,0,0,85.454,83.144a2.073,2.073,0,0,1,0,2.488,2.514,2.514,0,0,1-2.211,1.106c-7.463-1.382-14.65-2.764-22.113-4.146,0,0-.553.276-.553.553-2.488,7.463-4.975,15.2-7.187,22.942a6.024,6.024,0,0,1-2.764,1.106ZM28.79,56.886a305.305,305.305,0,0,0,21.56,46.16c1.935-7.187,4.423-14.65,6.91-21.56a3.737,3.737,0,0,1,3.87-2.211L81.86,83.421A297.987,297.987,0,0,1,65.829,49.146a9.507,9.507,0,0,1-5.8,2.211L54.5,50.8a9.426,9.426,0,0,0-7.187,3.04l-3.593,4.146a7.665,7.665,0,0,1-9.4,1.935l-5.528-3.04C29.066,57.162,28.79,57.162,28.79,56.886Z" transform="translate(-25.359 -45)" fill="#909ca1"/>
  </g>
  <g id="Group_2495" data-name="Group 2495" transform="translate(48.67 42.275)">
    <g id="Group_2494" data-name="Group 2494">
      <path id="Path_2272" data-name="Path 2272" d="M58.785,70.605h-39.8A1.306,1.306,0,0,1,17.6,69.223V58.72a1.436,1.436,0,0,1,.553-1.106c2.764-2.211,5.528-4.7,8.016-6.91s4.7-4.423,6.357-6.081l.276-.276a19.365,19.365,0,0,0,2.211-2.764c.829-1.106,1.382-1.935,1.935-2.764.276-.553.553-1.382.829-1.935a5.388,5.388,0,0,0,.276-2.211,4.127,4.127,0,0,0-.829-2.764,4.174,4.174,0,0,0-4.146-.553,9.818,9.818,0,0,0-2.488,1.106l-1.658.829A5.782,5.782,0,0,1,27.274,34.4L27,34.672l-.276.276a1.436,1.436,0,0,1-1.106.553H20.364a1.306,1.306,0,0,1-1.382-1.382V20.852a1.52,1.52,0,0,1,.829-1.382c1.382-.553,2.488-1.106,3.87-1.658s2.764-.829,4.423-1.382a36.892,36.892,0,0,1,18.243,0,17.071,17.071,0,0,1,6.634,3.593,14.874,14.874,0,0,1,4.146,5.8,21.1,21.1,0,0,1,1.382,7.463,30.456,30.456,0,0,1-.553,4.975,23.521,23.521,0,0,1-1.658,4.7,29.369,29.369,0,0,1-2.764,4.7c-1.106,1.658-2.764,3.317-4.146,4.975L46.9,55.126H59.338a1.306,1.306,0,0,1,1.382,1.382V69.5A2.8,2.8,0,0,1,58.785,70.605ZM20.64,67.841H57.4V57.89H42.477a1.52,1.52,0,0,1-1.382-.829,1.828,1.828,0,0,1,.276-1.658,24.923,24.923,0,0,1,2.764-2.488l2.488-2.488a57.9,57.9,0,0,0,3.87-4.7,40.566,40.566,0,0,0,2.488-4.146,24.323,24.323,0,0,0,1.382-4.146,21.336,21.336,0,0,0,.553-4.146,15.362,15.362,0,0,0-1.106-6.357,14.453,14.453,0,0,0-3.317-4.7,15.131,15.131,0,0,0-5.528-3.04c-4.423-1.382-10.5-1.382-16.584,0a24.323,24.323,0,0,0-4.146,1.382,28.676,28.676,0,0,0-2.764,1.106V32.737h3.04l.276-.276a11.7,11.7,0,0,1,1.935-1.382,15.855,15.855,0,0,1,1.935-1.106h.276l2.488-.829c2.764-.829,5.528-.553,7.187,1.382,1.106,1.106,1.382,2.764,1.382,4.7a8.521,8.521,0,0,1-.276,2.764,11.552,11.552,0,0,1-1.106,2.764c-.553.829-1.106,1.935-1.935,3.04a29.278,29.278,0,0,1-2.764,3.317l-.276.276a68.841,68.841,0,0,1-6.357,6.081C25.063,55.679,22.3,57.89,19.811,60.1v7.739Z" transform="translate(-17.6 -15.287)" fill="#909ca1"/>
    </g>
  </g>
</svg>
