<svg id="Third_x5F_Place_1_" xmlns="http://www.w3.org/2000/svg" width="141.531" height="188.765" viewBox="0 0 141.531 188.765">
  <g id="Group_2496" data-name="Group 2496" transform="translate(13.723 13.723)">
    <path id="Path_2273" data-name="Path 2273" d="M61.942,118.985a57.042,57.042,0,1,1,57.042-57.042A56.923,56.923,0,0,1,61.942,118.985Zm0-111.289a54.246,54.246,0,1,0,54.246,54.246A54.3,54.3,0,0,0,61.942,7.7Z" transform="translate(-4.9 -4.9)" fill="#af7830"/>
  </g>
  <g id="Group_2500" data-name="Group 2500" transform="translate(27.285 26.726)">
    <g id="Group_2497" data-name="Group 2497" transform="translate(1.957)">
      <path id="Path_2274" data-name="Path 2274" d="M11.988,34.576a2.12,2.12,0,0,1-1.118-.559,1.351,1.351,0,0,1,0-1.957l22.09-22.09a1.384,1.384,0,1,1,1.957,1.957l-22.09,22.09C12.547,34.3,12.268,34.576,11.988,34.576Z" transform="translate(-10.45 -9.55)" fill="#ddd8d8"/>
    </g>
    <g id="Group_2498" data-name="Group 2498" transform="translate(0 10.626)">
      <path id="Path_2275" data-name="Path 2275" d="M11.288,40.054a2.12,2.12,0,0,1-1.118-.559,1.351,1.351,0,0,1,0-1.957L33.937,13.769a1.384,1.384,0,0,1,1.957,1.957L12.127,39.494C12.127,40.054,11.847,40.054,11.288,40.054Z" transform="translate(-9.75 -13.35)" fill="#ddd8d8"/>
    </g>
    <g id="Group_2499" data-name="Group 2499" transform="translate(28.521 0.559)">
      <path id="Path_2276" data-name="Path 2276" d="M21.488,18a2.12,2.12,0,0,1-1.118-.559,1.351,1.351,0,0,1,0-1.957l5.313-5.313a1.384,1.384,0,0,1,1.957,1.957L22.327,17.44C22.327,18,22.047,18,21.488,18Z" transform="translate(-19.95 -9.75)" fill="#ddd8d8"/>
    </g>
  </g>
  <g id="Group_2502" data-name="Group 2502" transform="translate(0 0)">
    <g id="Group_2501" data-name="Group 2501">
      <path id="Path_2277" data-name="Path 2277" d="M58.455,141.5a7.548,7.548,0,0,1-6.152-2.8l-3.635-4.194c-1.4-1.678-4.754-3.076-7.27-3.076l-5.592.559A8.145,8.145,0,0,1,27.7,126.4l-1.678-5.313a10.916,10.916,0,0,0-5.592-5.592l-5.313-1.678a8.385,8.385,0,0,1-5.592-8.109l.559-5.592A9.536,9.536,0,0,0,7,92.848L2.81,89.213A8.07,8.07,0,0,1,.853,79.426L3.37,74.393a9.548,9.548,0,0,0,0-7.829L.853,61.53A7.439,7.439,0,0,1,2.81,52.3L7,48.668c1.678-1.4,3.076-4.754,3.076-7.27l-.559-5.592A8.145,8.145,0,0,1,15.114,27.7l5.313-1.678a10.916,10.916,0,0,0,5.592-5.592L27.7,15.114a8.385,8.385,0,0,1,8.109-5.592l5.592.559A9.536,9.536,0,0,0,48.668,7L52.3,2.81A8.07,8.07,0,0,1,62.09.853L67.123,3.37a9.548,9.548,0,0,0,7.829,0L79.985.853A7.439,7.439,0,0,1,89.213,2.81L92.848,7c1.4,1.678,4.754,3.076,7.27,3.076l5.592-.559a8.037,8.037,0,0,1,8.109,5.592l1.678,5.313a10.916,10.916,0,0,0,5.592,5.592L126.4,27.7a8.385,8.385,0,0,1,5.592,8.109l-.559,5.592a9.536,9.536,0,0,0,3.076,7.27l4.194,3.635a8.07,8.07,0,0,1,1.957,9.787l-2.517,5.033a9.548,9.548,0,0,0,0,7.829l2.517,5.033a8.224,8.224,0,0,1-1.957,9.787l-4.194,3.635c-1.678,1.4-3.076,4.754-3.076,7.27l.559,5.592a8.145,8.145,0,0,1-5.592,8.109l-5.313,1.678a10.916,10.916,0,0,0-5.592,5.592l-1.678,5.313a8.385,8.385,0,0,1-8.109,5.592l-5.592-.559a9.536,9.536,0,0,0-7.27,3.076l-3.635,4.194a8.07,8.07,0,0,1-9.787,1.957l-5.033-2.517a9.548,9.548,0,0,0-7.829,0l-5.033,2.517C60.692,141.222,59.573,141.5,58.455,141.5Zm-16.5-12.862a13.2,13.2,0,0,1,8.948,3.915l3.635,4.194a5.1,5.1,0,0,0,6.152,1.118l5.033-2.517a13.284,13.284,0,0,1,10.346,0l5.033,2.517a5.1,5.1,0,0,0,6.152-1.118l3.635-4.194a12.862,12.862,0,0,1,9.787-3.915l5.592.559a4.891,4.891,0,0,0,5.033-3.355l1.678-5.313c1.118-3.076,4.194-6.431,7.27-7.27l5.313-1.678a5.12,5.12,0,0,0,3.355-5.033l-.559-5.592a12.862,12.862,0,0,1,3.915-9.787l4.194-3.635a5.1,5.1,0,0,0,1.118-6.152L135.07,76.35a13.284,13.284,0,0,1,0-10.346l2.517-5.033a5.1,5.1,0,0,0-1.118-6.152l-4.194-3.635a12.862,12.862,0,0,1-3.915-9.787l.559-5.592a4.891,4.891,0,0,0-3.355-5.033l-5.313-1.957c-3.076-1.118-6.431-4.194-7.27-7.27L111.3,16.232a5.12,5.12,0,0,0-5.033-3.355l-5.592.559A12.862,12.862,0,0,1,90.89,9.521L87.255,5.327A5.1,5.1,0,0,0,81.1,4.208L76.071,6.725a13.284,13.284,0,0,1-10.346,0L60.692,4.208a4.383,4.383,0,0,0-6.152.559L50.9,8.962a12.862,12.862,0,0,1-9.787,3.915l-5.592-.559a4.891,4.891,0,0,0-5.033,3.355l-1.678,5.313c-1.118,3.076-4.194,6.431-7.27,7.27l-5.313,1.678a5.12,5.12,0,0,0-3.355,5.033l.559,5.592a12.862,12.862,0,0,1-3.915,9.787L5.327,53.981c-2.237,1.957-2.8,4.754-1.957,6.431l2.517,5.033a13.284,13.284,0,0,1,0,10.346L3.37,81.1a5.1,5.1,0,0,0,1.118,6.152L8.682,90.89a12.862,12.862,0,0,1,3.915,9.787l-.559,5.592a4.891,4.891,0,0,0,3.355,5.033l5.313,1.678c3.076,1.118,6.431,4.194,7.27,7.27l1.678,5.313a5.12,5.12,0,0,0,5.033,3.355l5.592-.559A5.99,5.99,0,0,0,41.957,128.639Z" transform="translate(0.008 0.008)" fill="#af7830"/>
    </g>
  </g>
  <g id="Group_2503" data-name="Group 2503" transform="translate(9.948 125.291)">
    <path id="Path_2278" data-name="Path 2278" d="M38.642,108.274h0a1.959,1.959,0,0,1-1.957-1.678c-2.237-8.109-4.754-15.938-7.27-23.488a.536.536,0,0,0-.839-.28c-7.27,1.678-14.82,3.076-22.09,4.194A2.726,2.726,0,0,1,3.969,85.9a2.1,2.1,0,0,1,0-2.517A290.549,290.549,0,0,0,21.585,45.639a1.585,1.585,0,0,1,2.8,0c.839,1.678,3.076,3.076,4.754,2.8l5.592-.559a12.862,12.862,0,0,1,9.787,3.915l3.635,4.194A5.1,5.1,0,0,0,54.3,57.1l5.033-2.517a13.843,13.843,0,0,1,3.635-1.118,2.136,2.136,0,0,1,1.4.559,2.1,2.1,0,0,1,.28,1.4,345.322,345.322,0,0,1-23.768,51.45A2.9,2.9,0,0,1,38.642,108.274ZM28.576,80.032a4.364,4.364,0,0,1,3.635,2.237c2.517,7.27,5.033,14.54,6.99,22.09a338.631,338.631,0,0,0,21.81-46.7h-.28L55.7,60.179a8.224,8.224,0,0,1-9.787-1.957l-3.635-4.194c-1.4-1.678-4.754-3.076-7.27-3.076l-5.592.559a6.867,6.867,0,0,1-5.872-2.237A280.953,280.953,0,0,1,7.325,83.947c6.711-1.118,13.981-2.517,20.692-4.194C28.3,80.032,28.3,80.032,28.576,80.032Z" transform="translate(-3.55 -44.8)" fill="#af7830"/>
  </g>
  <g id="Group_2504" data-name="Group 2504" transform="translate(70.929 125.851)">
    <path id="Path_2279" data-name="Path 2279" d="M50.92,107.914a2.216,2.216,0,0,1-1.957-1.4A310.581,310.581,0,0,1,25.474,55.626a1.23,1.23,0,0,1,.28-1.4,2.136,2.136,0,0,1,1.4-.559,11.162,11.162,0,0,1,3.635,1.118L35.82,57.3a5.1,5.1,0,0,0,6.152-1.118l3.635-4.194a12.862,12.862,0,0,1,9.787-3.915l5.592.559a4.92,4.92,0,0,0,4.754-2.8,1.585,1.585,0,0,1,2.8,0A290.551,290.551,0,0,0,86.152,83.587a2.1,2.1,0,0,1,0,2.517,2.269,2.269,0,0,1-2.237,1.118c-7.55-1.4-15.1-2.8-22.37-4.474,0,0-.559.28-.559.559-2.517,7.55-5.033,15.379-7.27,23.208a4.881,4.881,0,0,1-2.8,1.4ZM28.83,57.024a308.852,308.852,0,0,0,21.81,46.7c1.957-7.27,4.474-14.82,6.99-21.81a3.6,3.6,0,0,1,3.915-2.237l20.971,4.194A301.446,301.446,0,0,1,66.3,49.194a9.617,9.617,0,0,1-5.872,2.237l-5.592-.559a9.536,9.536,0,0,0-7.27,3.076l-3.635,4.194A8.07,8.07,0,0,1,34.143,60.1L28.83,57.024C29.109,57.3,28.83,57.3,28.83,57.024Z" transform="translate(-25.359 -45)" fill="#af7830"/>
  </g>
  <g id="Group_2506" data-name="Group 2506" transform="translate(51.192 41.965)">
    <g id="Group_2505" data-name="Group 2505">
      <path id="Path_2280" data-name="Path 2280" d="M38.153,72.322a41.3,41.3,0,0,1-5.872-.28c-1.678-.28-3.635-.559-5.033-.839a20.954,20.954,0,0,1-4.474-1.4c-1.4-.559-2.517-1.118-3.635-1.678a1.538,1.538,0,0,1-.839-1.4V53.308a1.321,1.321,0,0,1,1.4-1.4h5.313a1.027,1.027,0,0,1,.839.28c1.118.559,1.957,1.118,3.076,1.678a11.686,11.686,0,0,0,2.8,1.118c1.118.28,1.957.559,2.8.839a14.776,14.776,0,0,0,3.355.28,1.681,1.681,0,0,0,1.118-.28c.28,0,.839-.28,1.118-.28a.976.976,0,0,0,.559-.28c.28-.28.28-.559.559-.839a6.827,6.827,0,0,0,.28-1.957c0-1.118-.28-1.4-.28-1.4a.274.274,0,0,0-.28-.28c-.839-.28-1.4-.28-2.237-.559H30.044a1.321,1.321,0,0,1-1.4-1.4V36.251a1.321,1.321,0,0,1,1.4-1.4H34.8a11.47,11.47,0,0,0,3.076-.28c.839,0,1.4-.28,1.957-.28v-.28a5.689,5.689,0,0,0,.28-1.4v-.839a.274.274,0,0,1-.28-.28c-.28,0-.839-.28-1.118-.28a6.144,6.144,0,0,0-3.915.28c-.839.28-1.957.559-2.8.839h-.559c-.28,0-.559.28-.839.28l-1.4.559-.28.28c-.559,1.118-.839,1.118-1.118,1.118l-.28.28c-.28.28-.28.28-.559.28a1.027,1.027,0,0,1-.839.28H21.1a1.321,1.321,0,0,1-1.4-1.4V20.592a1.538,1.538,0,0,1,.839-1.4c1.4-.559,2.8-1.118,4.474-1.678s3.076-.839,4.474-1.4c1.4-.28,3.076-.559,4.754-.839A28.756,28.756,0,0,1,38.992,15a39.6,39.6,0,0,1,8.668.839,22.051,22.051,0,0,1,6.431,2.517,13.111,13.111,0,0,1,5.033,5.313A13.284,13.284,0,0,1,60.8,30.379a13.062,13.062,0,0,1-.839,4.754,33.382,33.382,0,0,1-2.237,4.474l-1.678,1.678a4.909,4.909,0,0,1,1.4,1.118c.559.559,1.118,1.4,1.678,1.957a11.334,11.334,0,0,1,1.4,2.517,11.686,11.686,0,0,1,1.118,2.8,11.47,11.47,0,0,1,.28,3.076,18.763,18.763,0,0,1-1.678,7.829,17.338,17.338,0,0,1-4.754,6.152,34.914,34.914,0,0,1-3.355,2.237c-1.118.559-2.517,1.118-3.915,1.678a21.2,21.2,0,0,1-4.474.839A13,13,0,0,1,38.153,72.322ZM20.817,65.891a29.012,29.012,0,0,0,2.8,1.118,23.294,23.294,0,0,0,4.194,1.118c1.4.28,3.076.559,4.754.839a42.673,42.673,0,0,0,10.346,0c1.4-.28,2.8-.559,3.915-.839a17.1,17.1,0,0,0,3.355-1.4,10.043,10.043,0,0,0,2.8-1.957,14.6,14.6,0,0,0,3.915-5.313,16.587,16.587,0,0,0,1.4-6.431,7.741,7.741,0,0,0-.28-2.517,19.264,19.264,0,0,0-.839-2.237,12.157,12.157,0,0,0-1.118-1.957c-.559-.559-.839-1.118-1.4-1.678a19.623,19.623,0,0,0-2.517-1.678c-.559-.28-.839-.559-.839-1.118a2.136,2.136,0,0,1,.559-1.4,6.1,6.1,0,0,0,1.4-1.118,2.792,2.792,0,0,0,1.118-1.4,15.065,15.065,0,0,0,1.957-3.635,8.887,8.887,0,0,0,.559-3.915,10.708,10.708,0,0,0-1.4-5.313,11.211,11.211,0,0,0-3.915-4.194,14.64,14.64,0,0,0-5.592-2.237,31.97,31.97,0,0,0-7.829-.839,24.053,24.053,0,0,0-4.474.28c-1.4.28-3.076.559-4.194.839-1.4.28-2.8.839-4.194,1.118-1.118.28-2.237.839-3.355,1.118V32.057h3.076l.28-.28,1.4-.839h0a.976.976,0,0,1,.559-.28l1.118-.559c.28,0,.559-.28.839-.28a1.027,1.027,0,0,1,.839-.28c1.118-.28,1.957-.839,3.076-1.118a14.428,14.428,0,0,1,3.076-.559,5.459,5.459,0,0,1,1.957.28,4.51,4.51,0,0,1,2.517.839.274.274,0,0,1,.28.28,3.86,3.86,0,0,1,.839,1.118,4.146,4.146,0,0,1,.28,1.957c0,1.118,0,1.957-.559,2.517a2.864,2.864,0,0,1-1.4,1.678,9.912,9.912,0,0,1-3.076.839c-1.118,0-2.237.28-3.355.28H30.324v9.507h6.711a11.891,11.891,0,0,1,3.076.559,3.759,3.759,0,0,1,1.957,1.678,7.016,7.016,0,0,1,.559,2.8,7.483,7.483,0,0,1-.559,3.076,2.864,2.864,0,0,1-1.4,1.678h-.28c-.559.28-.839.559-1.4.839a2.521,2.521,0,0,1-1.4.28c-.559,0-1.118.28-1.678.28A18.46,18.46,0,0,1,32,58.061c-.839-.28-1.957-.559-3.076-.839a27.247,27.247,0,0,1-3.076-1.4c-.839-.559-1.957-1.118-2.8-1.678H19.7V65.891Z" transform="translate(-18.3 -15)" fill="#af7830"/>
    </g>
  </g>
</svg>
