<svg xmlns="http://www.w3.org/2000/svg" width="38.5" height="28" viewBox="0 0 38.5 28">
  <g id="ico_24_education_graduate" data-name="ico / 24 / education / graduate" transform="translate(-0.75)">
    <path id="Icon_color" data-name="Icon color" d="M33.25,28H24.92a3.482,3.482,0,0,1-3.133-1.942l-.3-.595a1.743,1.743,0,0,0-1.563-.963H18.573a1.743,1.743,0,0,0-1.563.963l-.3.595A3.479,3.479,0,0,1,13.58,28H5.25A5.256,5.256,0,0,1,0,22.75V12.25A5.282,5.282,0,0,1,1.558,8.522L7,3.08A10.434,10.434,0,0,1,14.42,0H24.08A10.434,10.434,0,0,1,31.5,3.08l5.442,5.442A5.29,5.29,0,0,1,38.5,12.25v10.5A5.256,5.256,0,0,1,33.25,28ZM17.5,21H21a3.481,3.481,0,0,1,3.133,1.943L24.92,24.5H33.25A1.752,1.752,0,0,0,35,22.75V12.25a1.752,1.752,0,0,0-1.75-1.75h-28A1.752,1.752,0,0,0,3.5,12.25v10.5A1.752,1.752,0,0,0,5.25,24.5h8.33l.788-1.557A3.481,3.481,0,0,1,17.5,21ZM14.42,3.5A6.951,6.951,0,0,0,9.485,5.548L8.033,7H30.468L29.015,5.548A6.951,6.951,0,0,0,24.08,3.5Zm16.205,14H7.875A.876.876,0,0,1,7,16.625v-1.75A.876.876,0,0,1,7.875,14h22.75a.876.876,0,0,1,.875.875v1.75A.876.876,0,0,1,30.625,17.5Z" transform="translate(0.75)" fill="#dfe4ec"/>
  </g>
</svg>
