<svg xmlns="http://www.w3.org/2000/svg" xmlns:xlink="http://www.w3.org/1999/xlink" width="884.518" height="504.459" viewBox="0 0 884.518 504.459">
  <defs>
    <linearGradient id="linear-gradient" x1="0.5" y1="1" x2="0.5" gradientUnits="objectBoundingBox">
      <stop offset="0" stop-color="gray" stop-opacity="0.251"/>
      <stop offset="0.54" stop-color="gray" stop-opacity="0.122"/>
      <stop offset="1" stop-color="gray" stop-opacity="0.102"/>
    </linearGradient>
    <linearGradient id="linear-gradient-2" x1="0" y1="0.5" x2="1" y2="0.5" xlink:href="#linear-gradient"/>
  </defs>
  <g id="Group_1" data-name="Group 1" transform="translate(0.02 0)">
    <path id="Path_16" data-name="Path 16" d="M559.962,495.443c17.087-.974,38.287-12.564,54.771-17.69q29.264-9.077,58.761-17.466Q776.177,431.069,881.065,410.5q9.788-1.925,19.607-3.758a138.791,138.791,0,0,0-45.818-55.026,140.813,140.813,0,0,0,.773-14.52c0-76.652-61.258-138.791-136.85-138.791a134.669,134.669,0,0,0-66.415,17.435c-53.5-35.194-123.335-56.5-199.74-56.5-108.568,0-203.876,43.011-257.882,107.779L448.556,310l155.669,26.288c-177.465,5.3-355.478,10.561-532.433-1.871A140.268,140.268,0,0,0,51.6,511.471h0c0,2.776.116,5.528.325,8.257,4.508,1.291,8.86,2.544,12.765,3.363q94.025,19.863,189.255,33.246c-46.784,28.847-103.759,32.929-157.726,45.145,26.133,21.571,61.621,34.792,100.728,34.792H779.231c63.052,0,114.158-43.893,114.158-98.045h0a139.315,139.315,0,0,0,18.556-50.944C795.275,498.551,677.15,488.77,559.962,495.443Z" transform="translate(-28.245 -131.815)" fill="#6c63ff" opacity="0.1"/>
    <path id="Path_17" data-name="Path 17" d="M912.5,463.791a139.17,139.17,0,0,0-58.761-113.98,142.788,142.788,0,0,0,.773-14.512c0-76.652-61.289-138.768-136.85-138.768a134.748,134.748,0,0,0-66.423,17.427c-53.5-35.21-123.343-56.518-199.747-56.518-124.279,0-231.254,56.4-278.7,137.283-2.636-.155-5.288-.24-7.964-.24-75.569,0-136.85,62.139-136.85,138.791a139.58,139.58,0,0,0,22.515,76.288h0c0,68.966,65.093,124.874,145.355,124.874h582.3c63.044,0,114.15-43.9,114.15-98.053h0a139.573,139.573,0,0,0,20.2-72.593Z" transform="translate(-28 -131.384)" fill="#d2da32" opacity="0.1"/>
    <path id="Path_18" data-name="Path 18" d="M904.545,394.369a8.612,8.612,0,0,0-3.773-1.655c-1.446-.332-2.923-.541-4.392-.773L877.345,389.2a22.421,22.421,0,0,0-5.83-.309,7.4,7.4,0,0,0-5.072,2.629,3.951,3.951,0,0,0-.881,2.474,6.526,6.526,0,0,0,.866,2.567,8.584,8.584,0,0,1,.472,1.137,26,26,0,0,0,.68,2.59,2.2,2.2,0,0,0,.325.51.829.829,0,0,1,0,.131c-.209,1.067.464,2.18.162,3.209-.263.881-1.121,1.415-1.662,2.149a3.232,3.232,0,0,0-.077,3.564c.58.9,1.631,1.508,1.933,2.536.394,1.353-.673,2.66-1.624,3.7a57.4,57.4,0,0,0-4.84,6.1,3.781,3.781,0,0,0-.773,1.817c-.085,1.345,1.206,2.528.982,3.866-.178,1.052-1.206,1.693-2.1,2.319-3.286,2.165-5.922,5.644-6.185,9.58a33.556,33.556,0,0,0-7.484-17.01,12.162,12.162,0,0,1-2.776-4.353c-.17-.673-.2-1.392-.433-2.041-.773-2.049-3.232-2.93-4.307-4.817-.773-1.33-.773-3.039-1.732-4.206s-2.466-1.43-3.294-2.559a16.368,16.368,0,0,1-1.052-2.381,5.2,5.2,0,0,0-1.43-1.716,4.158,4.158,0,0,0-.356-.255,1.229,1.229,0,0,0,.41-.912c0-.9-.9-1.5-1.678-1.948-1.005-.572-1.987-1.191-2.946-1.832a6.889,6.889,0,0,0,2.636-2.157,7.091,7.091,0,0,0,1.005-4.639,5.853,5.853,0,0,0-1.384-3.549c-.487-.518-1.1-.889-1.608-1.376-1.322-1.291-1.77-3.2-2.319-4.964-.727-2.32-1.863-4.755-3.982-5.984-1.021-.6-2.211-.874-3.209-1.5a2.8,2.8,0,0,1-1.484-2.946c.232-.773.951-1.307,1.438-1.964a3.912,3.912,0,0,0-.982-5.412c-.572-.363-1.276-.68-1.392-1.345a2.459,2.459,0,0,1-1.794-1.9,7.332,7.332,0,0,1,0-2.752q.3-2.157.6-4.3a2.8,2.8,0,0,0,2.149,0,18.921,18.921,0,0,0,2.32,3.031,30.286,30.286,0,0,1,5.412,9.394c.441,1.237.889,2.621,2.033,3.278.394.224.843.34,1.229.58a4.592,4.592,0,0,1,1.206,1.237c.928,1.229,1.856,2.451,2.776,3.68l.046.186a1.083,1.083,0,0,0,.124.309,1.028,1.028,0,0,0,.665.34c2.845.657,6.038,1.26,8.5-.294,2.227-1.392,3.2-4.144,5.087-5.984,1.338-1.307,3.232-2.32,3.611-4.16a13.676,13.676,0,0,1-1.33-.487c.387-.387.773-.835,1.3-1.345a16.379,16.379,0,0,0,2.057-2.451A15.8,15.8,0,0,0,852.9,354.8q2.234-6.371,4.484-12.75c.711-2.01,1.423-4.036,2.32-5.992.928-2.118,2.026-4.152,3.039-6.232a82.728,82.728,0,0,0,6.015-16.932,6.184,6.184,0,0,0,.24-2.466,6.5,6.5,0,0,0-2.2-3.34,16.114,16.114,0,0,0-3.294-2.729,5.412,5.412,0,0,0-4.129-.665c-1.979.58-3.224,2.606-3.68,4.639a48.667,48.667,0,0,0-.479,6.185c-.278,2.977-1.3,5.853-1.546,8.837-.131,1.724,0,3.471-.209,5.2a18.957,18.957,0,0,1-2.32,6.4,41.439,41.439,0,0,1-10,12.324c-.472.394-.959.773-1.423,1.2a7.377,7.377,0,0,1,.1-1.005,6.061,6.061,0,0,0-.982.348,2.946,2.946,0,0,0-.116-1.16c-.619-1.848-3.371-2.319-3.866-4.2a8.6,8.6,0,0,1-.131-1.407c-.162-1.647-1.284-3.039-1.67-4.639-.356-1.477-.085-3.093-.773-4.461a12.466,12.466,0,0,0-2.057-2.319,9.1,9.1,0,0,1-1.956-3.688c-.1-.379-.193-.773-.3-1.152a5.274,5.274,0,0,0-.278-2.544c-.7-1.747-2.52-2.868-3.178-4.639-.51-1.376-.286-3.093-1.253-4.16a4.523,4.523,0,0,0-1.832-1.106,40.767,40.767,0,0,0-11.033-2.606c-2.119-.193-4.453-.3-5.969-1.794-1.771-1.732-1.856-4.848-3.928-6.185-1.825-1.183-4.407-.309-5.822,1.353a7.377,7.377,0,0,0-.588.773,8.274,8.274,0,0,1-.162-3.17c0-.263.054-.533.077-.773a15.463,15.463,0,0,0,8.381-6.618v.046l.093.24c.224.564.58,1.106,1.106,1.167h0a1.546,1.546,0,0,0,.959-.348,7.939,7.939,0,0,0,1.283-1.113q.294-.325.557-.673a8.757,8.757,0,0,0,.912-1.546,9.191,9.191,0,0,0,.773-2.59c.139-.9.155-1.817.309-2.714a16.7,16.7,0,0,1,.564-2.049c.077-.224.155-.448.224-.673s.17-.526.247-.773a17.921,17.921,0,0,0,.773-4.9v-.835a8.157,8.157,0,0,0-2.6-5.76c-1.33-1.09-3.093-1.546-4.067-3.023a14.385,14.385,0,0,1-1.144-3.425,7.731,7.731,0,0,0-6.077-5.466,6.765,6.765,0,0,0-4.809,1.322h0l-.108.085h0a7.732,7.732,0,0,0-1.917,2.134,6.378,6.378,0,0,1-2.722-1.546c-.773-.719-1.368-1.624-2.149-2.32a5.528,5.528,0,0,0-5.5-1.16,6.579,6.579,0,0,0-3.935,4.508c-.425,1.593-.348,3.425-1.237,4.755-.688,1.036-1.817,1.546-2.606,2.49a4.685,4.685,0,0,0-.974,2.064h0a5.587,5.587,0,0,0-.131,1.291h0a2.353,2.353,0,0,0,.046.572v.093a4.089,4.089,0,0,0,.131.626h0a5.41,5.41,0,0,0,1.152,2.119,5.088,5.088,0,0,0,1.863,1.345,7.55,7.55,0,0,0,.9.286l.92.209.325.077a15.417,15.417,0,0,0-.433,13.615,6.211,6.211,0,0,1-.077.649,53.469,53.469,0,0,0,.4,9.116,4.892,4.892,0,0,1-.564,3.472,6.587,6.587,0,0,1-1.121,1c.417-.541.843-1.075,1.276-1.608-1.09-1.1-2.814-1.237-4.361-1.129a20.2,20.2,0,0,0-8.5,2.6c-1.732,1-3.51,2.319-5.489,2.088-1.167-.131-2.32-.773-3.456-.464a7.006,7.006,0,0,0-1.771,1.051,2.4,2.4,0,0,1-1.454.448c-1.214-1.492-3.093-2.505-4.546-3.719a35.821,35.821,0,0,1-4.523-4.848c-2.505-3.023-5-6.054-7.461-9.108-2.072-2.567-4.2-5.343-4.562-8.629a8.418,8.418,0,0,1-.054-.982,24.98,24.98,0,0,1,.588-4.639,2.318,2.318,0,0,0,0-1.121c-.232-.773-1.121-1.059-1.887-1.229h0c.1-.6.17-1.206.209-1.786.433-6.649-.039-13.407,1.369-19.917a13.538,13.538,0,0,1,3.209-6.858c2.822-2.853,7.546-3.541,9.711-6.92,1.809-2.814,1.09-6.8-1.183-9.278a11.71,11.71,0,0,0-9.108-3.371,4.7,4.7,0,0,0-2.652.711,5.636,5.636,0,0,0-1.608,2.443l-3.317,8.064a48.791,48.791,0,0,0-2.428,6.479c-.928,3.386-1.137,6.958-1.871,10.376,0,2.629-1.693,5.907-2.621,8.327-1.036,2.721-2.157,5.412-3.093,8.188-.232.7-1.044,2.76-1.546,4.639a2.829,2.829,0,0,0-.526.394,13.985,13.985,0,0,0-1.1,1.631c-.7.928-1.848,1.423-2.621,2.319s-.936,2.544.139,2.992a3.155,3.155,0,0,0,.673.147,2.614,2.614,0,0,1,.417.07c1.16.325,1.616,1.786,1.446,2.992s-.773,2.319-.874,3.526c-.209,2.134,1.044,4.121,2.25,5.915a50.972,50.972,0,0,0,4.129,5.559c1.09,1.222,2.319,2.319,3.417,3.495,4.183,4.3,7.508,9.324,11.265,13.994a31.025,31.025,0,0,0,4.585,4.809,34.516,34.516,0,0,0,3.471,2.389l6.464,4.1a7.084,7.084,0,0,0,2.443,1.152,3.25,3.25,0,0,0,.866,0c.039.193.07.379.116.572.5,2.026,1.608,3.866,1.732,5.93s-.062,4.175.085,6.263c.139,1.925.564,3.866.673,5.76.217,3.649-.68,7.252-1.546,10.824-1.307,5.227-2.1,10.561-4.639,15.3a9,9,0,0,0-1.546,4.129,2.137,2.137,0,0,0,.046.541h0l-1.16.657c-.34.193-.68.387-.99.588-1.469.959-3.039,2.018-3.642,3.673-.487,1.338-.263,2.868-.85,4.167a1.862,1.862,0,0,1-.093.17c-.619,1.206-1.848,2.1-2.126,3.425h0c-.209,1.013.193,2.088,0,3.093v.039a11.2,11.2,0,0,0-.418,1.546,1.852,1.852,0,0,0,.046.51,2.946,2.946,0,0,0,.928,1.508,6.176,6.176,0,0,0,.9.719q.495.325,1.02.6l.2.108c.294.155.588.3.889.441l.2.085c.348.155.7.294,1.059.417l.247.077c.278.093.564.178.85.247l.193.062.178.039.773.162.286.054q.51.085,1.044.139h.309c.263,0,.518.039.773.046h1.415a8.662,8.662,0,0,0,1.09-.1h.116c.325-.046.649-.1.974-.17l.247-.054c.3-.07.6-.139.9-.232l.162-.046c.363-.108.727-.224,1.082-.363a28.411,28.411,0,0,0,3.572-1.771c.773-.425,1.546-.858,2.32-1.253a18.008,18.008,0,0,1,1.763-.773,9.951,9.951,0,0,1,4.639-.773,18.151,18.151,0,0,1,2.319.472q0,.128,0,.255.943,5.567,1.863,11.134a22.667,22.667,0,0,1,3.2-1.925,7.115,7.115,0,0,0-.41,1.74,6.9,6.9,0,0,0,0,1.384,3,3,0,0,1-.216,2.126c-.271.356-.773.557-.92.959a3.272,3.272,0,0,0-.077,1.26,2.01,2.01,0,0,1-1.84,1.871,2.938,2.938,0,0,1-1.167,3.448,4.088,4.088,0,0,0-.9.588,2.675,2.675,0,0,0-.518,1.167,20.66,20.66,0,0,1-6.054,9.951,19.466,19.466,0,0,0-2.992,2.923,13.3,13.3,0,0,0-1.353,2.667q-3.093,7.562-6.278,15.131a33.574,33.574,0,0,0-2.691,8.729c-.928,8.335-8.35,15.4-6.958,23.674a11.6,11.6,0,0,0,2.412,5.652,14.228,14.228,0,0,0,6.185,3.8c5.961,2.319,12.247,3.588,18.51,4.863l9.835,2.018a42.986,42.986,0,0,0,5.861.928c2.374.162,4.809-.062,7.121.541a22.1,22.1,0,0,0,4.276,1.137c1.268.07,2.83-.2,3.58.835s.17,2.4.881,3.325c1.144,1.461,3.935,0,5.18,1.376a6.408,6.408,0,0,1,.773,1.709,3.093,3.093,0,0,0,.773.974,6.536,6.536,0,0,1,.093,1.322,22.8,22.8,0,0,1-1.113,5.273q-1.392,4.709-2.776,9.425a20.87,20.87,0,0,0-.773,3.4,8.17,8.17,0,0,0,0,1.685,4.629,4.629,0,0,0,2.776,4.028,5.087,5.087,0,0,0,3.758-.464,16.607,16.607,0,0,0,3.093-2.088,21.115,21.115,0,0,0,4.461-4.593c3.866-5.783,2.613-13.608,5.327-20,1.8-4.268,5.312-7.732,6.479-12.232a4.894,4.894,0,0,0,.093-2.644c-.487-1.546-2.134-2.428-3.672-2.984h-.07a31.7,31.7,0,0,0-3.866-1.106c-.325-.07-.657-.124-.99-.178a6.07,6.07,0,0,1-1.709-2.227,5.181,5.181,0,0,0-.363-1.338,1.392,1.392,0,0,0-1.113-.619c-.773-.077-1.809.2-2.652.139-1.724-.124-2.868-1.817-4.415-2.6s-3.224-.588-4.871-.472a4.507,4.507,0,0,1-1.763-.108,6.626,6.626,0,0,1-1.856-1.276,7.778,7.778,0,0,0-6.812-1.368,7.425,7.425,0,0,1-2.32.526c-1.508-.085-2.575-1.43-3.688-2.451-3.046-2.791-7.384-3.526-11.079-5.358a2.528,2.528,0,0,1-1.33-1.144c-.425-1.051.534-2.1,1.4-2.822l6.355-5.281c6.958-5.783,15.657-10.136,18.888-18.618a10.769,10.769,0,0,1,1.546-3.178,4.31,4.31,0,0,1,.858-.773,6.5,6.5,0,0,1,4.755-.928,16.06,16.06,0,0,1,5.6,2.443q4.152,2.513,8.08,5.412a71.482,71.482,0,0,1,7.384,6.062c4.059,3.866,7.438,8.451,11.219,12.618s8.1,8.056,13.353,10.051,11.6,1.91,16.105-1.438c5.2-3.866,6.873-10.778,8.188-17.118,2.9-2.8,3.773-7.059,5.188-10.824.889-2.389,2.026-4.639,2.984-7.02,1.144-2.8,2.041-5.69,2.938-8.574a41.231,41.231,0,0,0,2.057-8.946c.371-4.817-.92-9.943.433-14.466,1.786-.394,3.41-1.4,5.165-1.987,2.613-.858,5.412-.719,8.18-.7H903a4.221,4.221,0,0,0,2.722-.642,4.333,4.333,0,0,0,1.121-3.294C906.949,399.611,906.764,396.286,904.545,394.369ZM792.521,262.482a5.743,5.743,0,0,1-1.956.139Z" transform="translate(-182.196 -146.994)" fill="url(#linear-gradient)"/>
    <path id="Path_19" data-name="Path 19" d="M812.927,329.773a8.5,8.5,0,0,1-3.216,1.709l-5.482,1.964c-2.977,1.067-6.085,2.142-9.224,1.755-1.755-.217-9.278-1.322-10.414-2.691-1.732-2.118,4.337-5.234,6.409-7.02a8.766,8.766,0,0,0,1.3-1.144c.773-.943.673-2.265.564-3.456a53.357,53.357,0,0,1-.4-9.1,18.367,18.367,0,0,1,.309-2.157c.773-3.557,4.082-2.258,6.7-1.314a52.356,52.356,0,0,1,9.085,3.935,6.517,6.517,0,0,1,2.242,1.9c1.144,1.732.688,4.005.5,6.185-.162,1.693-.155,3.317.9,4.546a11.7,11.7,0,0,1,1.461,1.546A2.9,2.9,0,0,1,812.927,329.773Z" transform="translate(-199.556 -165.375)" fill="#be6f72"/>
    <path id="Path_20" data-name="Path 20" d="M721.151,256.108c.773-3.425.943-6.959,1.871-10.353a48.466,48.466,0,0,1,2.428-6.456l3.41-7.956a5.611,5.611,0,0,1,1.608-2.435,4.762,4.762,0,0,1,2.652-.711,11.815,11.815,0,0,1,9.108,3.363c2.273,2.451,2.992,6.417,1.183,9.224-2.165,3.379-6.889,4.059-9.711,6.9a13.519,13.519,0,0,0-3.209,6.842c-1.407,6.495-.935,13.229-1.369,19.863-.139,2.064-.541,4.422-2.319,5.49a6.765,6.765,0,0,1-3.464.673l-5.072.085c-.851,0-3.935.534-4.5-.108-.99-1.121,1.268-6.7,1.678-7.948.912-2.76,2.033-5.451,3.093-8.165C719.458,262,721.151,258.729,721.151,256.108Z" transform="translate(-183.504 -147.432)" fill="#be6f72"/>
    <path id="Path_21" data-name="Path 21" d="M851.231,576.414c-1.167,4.469-4.678,7.948-6.479,12.208-2.714,6.379-1.492,14.18-5.327,19.948a21.071,21.071,0,0,1-4.461,4.6,16.565,16.565,0,0,1-3.093,2.08,5.087,5.087,0,0,1-3.757.464,4.627,4.627,0,0,1-2.776-4.021,8.1,8.1,0,0,1,0-1.678,20.8,20.8,0,0,1,.773-3.394q1.392-4.693,2.776-9.4A22.752,22.752,0,0,0,830,591.963c.1-1.948-1.136-4.484-.611-6.3.24-.82,1.136-1.546,1.546-2.234a12.93,12.93,0,0,0,1.33-3.162c.634-2.157,1.067-4.461,2.4-6.278a14.733,14.733,0,0,1,3.015-2.822,7.994,7.994,0,0,1,2.876-1.616,7.043,7.043,0,0,1,3.093.147,30.359,30.359,0,0,1,3.866,1.1h.07c1.546.557,3.185,1.415,3.672,2.977A4.862,4.862,0,0,1,851.231,576.414Z" transform="translate(-208.858 -224.841)" fill="#3f3d56"/>
    <path id="Path_22" data-name="Path 22" d="M953.125,451.51c-.046,1.2-.193,2.536-1.121,3.286a4.221,4.221,0,0,1-2.721.642h-.209c-2.76,0-5.567-.155-8.18.7-1.987.657-3.812,1.863-5.884,2.1-2.853.325-5.536-1.237-8.064-2.6a80.22,80.22,0,0,0-7.322-3.479c-1.639-.673-4.987-1.106-5.776-2.9a26.357,26.357,0,0,1-.68-2.582,8.591,8.591,0,0,0-.472-1.137,6.535,6.535,0,0,1-.866-2.559,3.952,3.952,0,0,1,.881-2.474,7.415,7.415,0,0,1,5.064-2.606,22.422,22.422,0,0,1,5.83.309l19.035,2.737c1.469.209,2.946.418,4.392.773a8.614,8.614,0,0,1,3.773,1.655C953.055,445.271,953.241,448.588,953.125,451.51Z" transform="translate(-228.488 -194.989)" fill="#3f3d56"/>
    <path id="Path_23" data-name="Path 23" d="M898.885,458.413c-2.319,4.894-.65,10.685-1.067,16.1a41.038,41.038,0,0,1-2.057,8.922c-.9,2.876-1.794,5.76-2.938,8.551-.959,2.319-2.1,4.639-2.984,7-1.415,3.773-2.319,8.018-5.188,10.824-1.314,6.324-2.984,13.237-8.188,17.071-4.523,3.34-10.824,3.456-16.105,1.438s-9.572-5.884-13.353-10.051-7.159-8.706-11.219-12.587a70.382,70.382,0,0,0-7.4-6.054q-3.928-2.853-8.08-5.366a16.185,16.185,0,0,0-5.6-2.435,6.5,6.5,0,0,0-4.755.928,4.315,4.315,0,0,0-.858.773,10.643,10.643,0,0,0-1.546,3.17c-3.247,8.458-11.961,12.8-18.919,18.571l-6.355,5.265c-.866.719-1.825,1.771-1.4,2.814a2.528,2.528,0,0,0,1.33,1.144c3.7,1.825,8.033,2.559,11.08,5.343,1.113,1.021,2.18,2.366,3.688,2.443a7.407,7.407,0,0,0,2.32-.518,7.8,7.8,0,0,1,6.811,1.361,6.625,6.625,0,0,0,1.856,1.276,4.507,4.507,0,0,0,1.763.108,9.411,9.411,0,0,1,4.871.472c1.477.734,2.691,2.466,4.415,2.59.843.062,1.848-.217,2.652-.139a1.392,1.392,0,0,1,1.113.619,5.124,5.124,0,0,1,.363,1.33c.317,1.09,1.384,1.755,2.08,2.652a7.326,7.326,0,0,1,1.113,4.987,21.278,21.278,0,0,1-6.773,14.242,8.381,8.381,0,0,1-4.167,2.32,3.866,3.866,0,0,1-4.129-1.832,6.347,6.347,0,0,0-.773-1.7c-1.245-1.368-4.036.085-5.18-1.376-.711-.912-.2-2.374-.881-3.317s-2.32-.773-3.58-.827a22.681,22.681,0,0,1-4.276-1.137c-2.32-.6-4.747-.379-7.121-.541a42.992,42.992,0,0,1-5.861-.928l-9.835-2.01a116.56,116.56,0,0,1-18.51-4.848,14.894,14.894,0,0,1-6.185-3.789,11.6,11.6,0,0,1-2.412-5.644c-1.4-8.25,6.023-15.3,6.958-23.612a33.122,33.122,0,0,1,2.691-8.706q3.147-7.546,6.278-15.1a13.449,13.449,0,0,1,1.314-2.675,19.407,19.407,0,0,1,2.992-2.915,20.59,20.59,0,0,0,6.054-9.927,2.675,2.675,0,0,1,.518-1.167,4.344,4.344,0,0,1,.9-.58,2.938,2.938,0,0,0,1.168-3.441,2.01,2.01,0,0,0,1.84-1.871,3.231,3.231,0,0,1,.077-1.253c.186-.4.649-.6.92-.959a2.988,2.988,0,0,0,.217-2.118,6.9,6.9,0,0,1,0-1.384,7.105,7.105,0,0,1,2.072-4.322c1.848-1.817,4.477-1.345,7.028-1.778a40.257,40.257,0,0,0,7.422-2.374,72.918,72.918,0,0,1,20.961-4.848,45.763,45.763,0,0,1,21.169,3.371,12.032,12.032,0,0,1,2.729,1.546,5.173,5.173,0,0,1,1.43,1.709,15.936,15.936,0,0,0,1.052,2.374c.827,1.129,2.389,1.492,3.294,2.559s.982,2.868,1.732,4.191c1.075,1.887,3.564,2.76,4.307,4.809.232.649.263,1.361.433,2.033.417,1.685,1.67,3.015,2.776,4.345a33.408,33.408,0,0,1,7.484,17.01c.247-3.92,2.884-7.391,6.185-9.556.889-.58,1.917-1.222,2.1-2.273.224-1.33-1.067-2.513-.982-3.866a3.787,3.787,0,0,1,.773-1.809,57.217,57.217,0,0,1,4.84-6.085c.951-1.044,2.018-2.32,1.624-3.7-.3-1.028-1.353-1.631-1.933-2.528a3.216,3.216,0,0,1,.077-3.557c.541-.734,1.4-1.268,1.662-2.142.3-1.028-.371-2.142-.162-3.2a3.958,3.958,0,0,1,1.593-2.064,13.246,13.246,0,0,1,3.456-2.273c2.041-.773,4.314-.487,6.479-.186,3.619.5,7.677,1.276,9.719,4.307C899.194,453.511,899.859,456.387,898.885,458.413Z" transform="translate(-190.979 -196.943)" fill="#65617d"/>
    <path id="Path_24" data-name="Path 24" d="M953.118,451.51c-.046,1.2-.193,2.536-1.121,3.286a4.221,4.221,0,0,1-2.722.642h-.209c.317-1.608,2.273-2.528,2.613-4.16a3.68,3.68,0,0,0-.85-2.807c-1.655-2.234-4.314-3.472-6.958-4.376a46.1,46.1,0,0,0-23.241-1.74,23.4,23.4,0,0,0-6.108,1.879,19.9,19.9,0,0,0-1.856,1.314,6.536,6.536,0,0,1-.866-2.559,3.951,3.951,0,0,1,.881-2.474,7.414,7.414,0,0,1,5.064-2.606,22.421,22.421,0,0,1,5.83.309l19.035,2.737c1.469.209,2.946.418,4.391.773a8.613,8.613,0,0,1,3.773,1.655C953.048,445.271,953.234,448.588,953.118,451.51Z" transform="translate(-228.481 -194.989)" opacity="0.1"/>
    <path id="Path_25" data-name="Path 25" d="M851.231,576.818c-1.167,4.469-4.678,7.948-6.479,12.208-2.714,6.379-1.492,14.18-5.327,19.948a21.071,21.071,0,0,1-4.461,4.6,16.565,16.565,0,0,1-3.093,2.08,5.087,5.087,0,0,1-3.757.464,4.627,4.627,0,0,1-2.776-4.021,8.1,8.1,0,0,1,0-1.678l.046.124c.673,1.624,1.771,3.325,3.5,3.611a4.739,4.739,0,0,0,3.572-1.26c2.552-2.049,4.036-5.1,5.451-8.049a33.477,33.477,0,0,0,2.614-6.672c.309-1.314.456-2.66.773-3.974,1.469-6.386,6.471-11.6,7.577-18.069a4.428,4.428,0,0,0,.062-1.353,6.833,6.833,0,0,0-.665-1.685,8.351,8.351,0,0,1-.588-1.871c1.546.557,3.185,1.415,3.672,2.977a4.862,4.862,0,0,1-.124,2.621Z" transform="translate(-208.858 -225.244)" opacity="0.1"/>
    <path id="Path_26" data-name="Path 26" d="M829.444,550.862a11.205,11.205,0,0,1-3.487,4.763,17.009,17.009,0,0,1-7.508,3.247,7.469,7.469,0,0,1-3.866-.046c-1.716-.6-2.953-2.2-4.708-2.667-1.253-.34-2.6-.039-3.866-.224-2.281-.317-4.051-2.057-5.892-3.448-5.636-4.237-13.036-5.606-18.672-9.842a1.732,1.732,0,0,1-.6-.626,1.863,1.863,0,0,1-.116-.874,17.781,17.781,0,0,1,1.693-7.43,25.919,25.919,0,0,1,3.185-4.539c5.049-6.185,10.121-12.417,16.167-17.636a24.5,24.5,0,0,1,8.5-5.219c1.778-.549,5.288-1.067,7.453-.139a4.311,4.311,0,0,0-.858.773,10.641,10.641,0,0,0-1.546,3.17c-3.255,8.466-11.969,12.811-18.927,18.579l-6.355,5.265c-.866.719-1.825,1.77-1.4,2.814a2.528,2.528,0,0,0,1.33,1.144c3.7,1.825,8.033,2.559,11.08,5.343,1.113,1.021,2.18,2.366,3.688,2.443a7.407,7.407,0,0,0,2.319-.518,7.8,7.8,0,0,1,6.811,1.361,6.626,6.626,0,0,0,1.856,1.276,4.508,4.508,0,0,0,1.763.108,9.411,9.411,0,0,1,4.871.472c1.477.734,2.691,2.466,4.415,2.59C827.635,551.063,828.64,550.769,829.444,550.862Z" transform="translate(-198.747 -210.375)" opacity="0.1"/>
    <path id="Path_27" data-name="Path 27" d="M749.673,420.1c-1.469.943-3.031,2.01-3.634,3.649-.495,1.338-.263,2.868-.858,4.167s-1.933,2.2-2.227,3.6c-.209,1.013.2,2.08,0,3.093a13.3,13.3,0,0,0-.425,1.608c-.077,1.152.912,2.088,1.879,2.729a15.7,15.7,0,0,0,14.048,1.546,63.449,63.449,0,0,0,5.907-3.023,11.683,11.683,0,0,1,6.363-1.546c1.276.139,2.5.6,3.773.773a3.958,3.958,0,0,0,3.533-1.052,4.406,4.406,0,0,0,.773-1.832c1.075-4.245.588-8.745-.433-13.012s-2.567-8.373-3.657-12.618a57.892,57.892,0,0,0-2.66-9.348c-1.291-2.977-3.464-5.745-6.5-6.881a1.214,1.214,0,0,0-.773-.1,1.315,1.315,0,0,0-.5.371,23.776,23.776,0,0,0-5.3,8.922c-1.214,3.7-1.546,7.631-2.66,11.35-.479,1.546-1.1,3.618-2.32,4.8A26.5,26.5,0,0,1,749.673,420.1Z" transform="translate(-190.083 -184.552)" fill="#3f3d56"/>
    <path id="Path_28" data-name="Path 28" d="M778.833,433.773a4.509,4.509,0,0,1-.812,1.832,3.92,3.92,0,0,1-3.533,1.044c-1.268-.155-2.49-.626-3.765-.773a11.66,11.66,0,0,0-6.363,1.546c-1.979.99-3.866,2.219-5.915,3.015a15.61,15.61,0,0,1-9.379.534,15.132,15.132,0,0,1-4.639-2.041c-.974-.634-1.956-1.546-1.879-2.729a13.242,13.242,0,0,1,.425-1.6c.2-1.013-.2-2.08,0-3.093.294-1.392,1.639-2.32,2.227-3.6s.363-2.822.85-4.16c.6-1.647,2.173-2.706,3.642-3.657s3.216-1.678,4.392-2.83a4.356,4.356,0,0,0,.41-.572,13.916,13.916,0,0,0,1.84-4.26c1.136-3.727,1.446-7.647,2.652-11.358a23.822,23.822,0,0,1,5.312-8.915,1.167,1.167,0,0,1,.495-.371,1.236,1.236,0,0,1,.773.093c3.031,1.144,5.2,3.912,6.5,6.889s1.848,6.185,2.66,9.34c1.082,4.245,2.636,8.366,3.657,12.626S779.908,429.521,778.833,433.773Z" transform="translate(-190.088 -184.536)" opacity="0.1"/>
    <path id="Path_29" data-name="Path 29" d="M813.694,320.324a15.464,15.464,0,0,1-18.834-8.5,18.381,18.381,0,0,1,.309-2.157c.773-3.557,4.082-2.258,6.7-1.314a52.356,52.356,0,0,1,9.085,3.935,6.518,6.518,0,0,1,2.242,1.9C814.336,315.894,813.88,318.167,813.694,320.324Z" transform="translate(-201.955 -165.382)" opacity="0.1"/>
    <circle id="Ellipse_16" data-name="Ellipse 16" cx="15.463" cy="15.463" r="15.463" transform="translate(591.606 123.969)" fill="#be6f72"/>
    <path id="Path_30" data-name="Path 30" d="M849.428,451.939c0,1.283-1.74,1.693-3.031,1.624-4.639-.271-9.177-1.546-13.77-1.16-5.807.526-11.141,3.734-16.963,4.028-2.242.116-4.523-.216-6.734.193-2.861.534-5.412,2.273-8.327,2.521-2.528.216-5.026-.735-7.554-.634A12.139,12.139,0,0,0,788,459.949a7.105,7.105,0,0,1,2.072-4.322c1.848-1.817,4.477-1.345,7.028-1.778a40.258,40.258,0,0,0,7.422-2.374,72.918,72.918,0,0,1,20.961-4.848,45.764,45.764,0,0,1,21.161,3.348,12.035,12.035,0,0,1,2.729,1.546A1.212,1.212,0,0,1,849.428,451.939Z" transform="translate(-200.399 -196.949)" opacity="0.1"/>
    <path id="Path_31" data-name="Path 31" d="M796.553,338.428l-6.263-2.319-2.644-.974a12.787,12.787,0,0,0-3.371-.9c-3.031-.232-5.884,1.786-7.5,4.361s-2.227,5.644-2.745,8.636q-1.067,6.139-1.809,12.324a80.526,80.526,0,0,0-.812,11.242c.178,9.572,2.2,19.012,4.43,28.329a99.663,99.663,0,0,1,2.466,12.564c.186,1.747.271,3.5.456,5.257.2,1.972.526,3.92.851,5.876l1.863,11.11c2.319-1.647,4.956-3.093,7.809-3.178,2.528-.093,5.033.85,7.554.634,2.9-.24,5.466-1.979,8.327-2.513,2.211-.41,4.492-.085,6.742-.193,5.814-.294,11.157-3.51,16.955-4.028,4.6-.418,9.17.881,13.778,1.152,1.283.077,3.023-.332,3.023-1.624,0-.9-.9-1.492-1.678-1.941a82.731,82.731,0,0,1-10.476-7.477c-3.046-2.412-6.139-4.886-8.234-8.149-5.049-7.848-3.317-18.463-7.623-26.744-3.5-6.727,0-15.541,0-23.125a35.176,35.176,0,0,0-2.961-17.311l-3.008-7.616a1.246,1.246,0,0,0-.355-.58,1.183,1.183,0,0,0-.688-.209,7.253,7.253,0,0,0-4.995,1.6c-1.415,1.152-2.319,2.807-3.711,4C800.411,337.964,798.448,339.124,796.553,338.428Z" transform="translate(-196.636 -170.759)" fill="#e3e8f4"/>
    <path id="Path_32" data-name="Path 32" d="M814.732,332.612c.495-2.118,1.028-4.322,2.443-5.977s4-2.528,5.822-1.345c2.072,1.345,2.157,4.453,3.928,6.185,1.546,1.484,3.866,1.6,5.969,1.794a40.476,40.476,0,0,1,11.033,2.6,4.506,4.506,0,0,1,1.832,1.1c.966,1.1.773,2.783,1.252,4.152.657,1.763,2.474,2.884,3.178,4.639.773,1.948,0,4.129-.65,6.131-1.167,3.6-1.9,7.33-3.038,10.94a24.359,24.359,0,0,1-5.412,9.889c-1.175,1.206-2.923,2.319-4.469,1.6l-.6,4.291a7.293,7.293,0,0,0,0,2.745,2.459,2.459,0,0,0,1.794,1.9c.116.665.82.982,1.392,1.345a3.866,3.866,0,0,1,.982,5.412c-.487.657-1.206,1.175-1.438,1.956a2.779,2.779,0,0,0,1.484,2.938c1.005.619,2.188.9,3.209,1.5,2.119,1.222,3.255,3.626,3.982,5.961.541,1.763.99,3.673,2.32,4.956.51.487,1.121.858,1.608,1.368a5.869,5.869,0,0,1,1.384,3.549,7.044,7.044,0,0,1-1.005,4.639c-1.546,2.211-4.43,2.868-6.958,3.866-4.106,1.685-7.484,4.7-11.1,7.268a11.845,11.845,0,0,1-5.064,2.381c-2.505.332-4.971-.773-7.492-.874a18.6,18.6,0,0,0-4.469.588l-4.639,1.005c.247-3.6-1.732-7.2-2.837-10.623a52.79,52.79,0,0,1-1.979-20.1,157.444,157.444,0,0,1,3.232-20.056c.951-4.639.858-9.487,2.319-13.994,1.369-4.337,3.325-8.5,4.044-13.02C817.964,346.011,813.077,339.818,814.732,332.612Z" transform="translate(-204.709 -169.335)" fill="#3f3d56"/>
    <path id="Path_33" data-name="Path 33" d="M859.04,353.088a8.508,8.508,0,0,1,.889,2.513,9.069,9.069,0,0,0,1.956,3.68,12.67,12.67,0,0,1,2.057,2.32c.711,1.345.441,2.984.773,4.453.386,1.6,1.508,2.992,1.67,4.639a8.513,8.513,0,0,0,.131,1.407c.5,1.871,3.255,2.319,3.866,4.191.41,1.214-.294,2.536-.162,3.812a3.354,3.354,0,0,1,.07,1.206,2.45,2.45,0,0,1-.881,1.129,17.783,17.783,0,0,0-5.087,9.054,51.558,51.558,0,0,0-1.168,10.461l-3.023-4a4.593,4.593,0,0,0-1.206-1.237c-.386-.232-.835-.348-1.229-.58-1.144-.649-1.593-2.026-2.033-3.263a30.157,30.157,0,0,0-5.412-9.371c-1.229-1.446-2.66-2.9-2.93-4.778a8.8,8.8,0,0,1,.139-2.582c.773-5.064,1.6-10.252,4.067-14.744,1.152-2.1,2.644-4,3.75-6.139C856.017,353.846,857.061,350.165,859.04,353.088Z" transform="translate(-213.846 -175.515)" fill="#3f3d56"/>
    <path id="Path_34" data-name="Path 34" d="M751.116,343.758a3.533,3.533,0,0,1-.479,1.856,2.443,2.443,0,0,1-2.443.773,7.068,7.068,0,0,1-2.443-1.144q-3.232-2.041-6.464-4.09a35.791,35.791,0,0,1-3.472-2.381,30.988,30.988,0,0,1-4.585-4.8c-3.758-4.639-7.082-9.672-11.265-13.917-1.136-1.16-2.319-2.273-3.417-3.487a50.879,50.879,0,0,1-4.129-5.551c-1.206-1.786-2.459-3.765-2.25-5.9.124-1.206.7-2.32.874-3.518s-.286-2.66-1.446-2.984a2.619,2.619,0,0,0-.418-.07,3.152,3.152,0,0,1-.673-.147c-1.075-.448-.912-2.111-.139-2.984s1.917-1.361,2.621-2.319a13.977,13.977,0,0,1,1.1-1.631,4.183,4.183,0,0,1,1.8-.9,27.881,27.881,0,0,1,13.724-.518c.773.17,1.654.479,1.886,1.229a2.266,2.266,0,0,1,0,1.113,24.886,24.886,0,0,0-.588,4.639,8.2,8.2,0,0,0,.054.974c.363,3.278,2.49,6.054,4.562,8.613,2.459,3.046,4.956,6.069,7.461,9.085a35.7,35.7,0,0,0,4.523,4.832c1.546,1.283,3.549,2.32,4.755,3.966.982,1.33.665,3.147.773,4.747A105.394,105.394,0,0,1,751.116,343.758Z" transform="translate(-182.194 -161.322)" fill="#3f3d56"/>
    <path id="Path_35" data-name="Path 35" d="M887.063,384.717a16.227,16.227,0,0,0,2.057-2.435,16.065,16.065,0,0,0,1.546-3.456l4.484-12.719c.711-2.01,1.423-4.028,2.32-5.984.928-2.111,2.026-4.144,3.038-6.185a82.5,82.5,0,0,0,6.007-16.816,6.234,6.234,0,0,0,.24-2.466,6.484,6.484,0,0,0-2.2-3.332,16.074,16.074,0,0,0-3.294-2.722,5.412,5.412,0,0,0-4.129-.665c-1.979.58-3.224,2.606-3.68,4.639a48.459,48.459,0,0,0-.479,6.185c-.278,2.969-1.3,5.837-1.546,8.814-.131,1.724,0,3.464-.209,5.18a18.921,18.921,0,0,1-2.32,6.394,41.512,41.512,0,0,1-10,12.293,16.072,16.072,0,0,0-3,2.884,9.41,9.41,0,0,0-1.446,3.6,8.3,8.3,0,0,0,.626,5.853c1.26,2.149,3.68,3.093,5.992,3.572C884.2,388,884.922,386.936,887.063,384.717Z" transform="translate(-219.95 -170.024)" fill="#be6f72"/>
    <path id="Path_36" data-name="Path 36" d="M807.7,273.471a7.214,7.214,0,0,1,7-3.8,7.732,7.732,0,0,1,6.077,5.459,14.109,14.109,0,0,0,1.144,3.417c.959,1.492,2.737,1.925,4.067,3.008a8.141,8.141,0,0,1,2.6,5.752,17.4,17.4,0,0,1-1.028,6.5,20.659,20.659,0,0,0-.773,2.722c-.155.9-.17,1.809-.309,2.706a8.814,8.814,0,0,1-3.549,5.853,1.546,1.546,0,0,1-.959.348c-.6-.07-.974-.773-1.2-1.407-1.229-3.549-.936-7.886-3.2-10.716a11.714,11.714,0,0,0-3.665-2.729,4.724,4.724,0,0,0-1.871-.7,4.925,4.925,0,0,0-2.706.99,16.849,16.849,0,0,1-5.35,2.366,6.572,6.572,0,0,1-5.528-1.191c-1.067-.881-1.848-2.2-3.031-2.892s-2.42-.649-3.588-1.121a5.312,5.312,0,0,1-2.149-8.1c.773-.928,1.917-1.454,2.606-2.482.889-1.33.812-3.155,1.237-4.747a6.533,6.533,0,0,1,3.935-4.492,5.528,5.528,0,0,1,5.5,1.152c.773.7,1.392,1.593,2.15,2.319a6.185,6.185,0,0,0,5.721,1.546" transform="translate(-200.535 -156.445)" fill="#3f3d56"/>
    <path id="Path_37" data-name="Path 37" d="M829.445,421.475a3,3,0,0,0-.82,3.278c.17.363,8.149-1.175,8.992-1.291,2.1-.3,5.791-.155,7.206-2.08,2.521-3.41-5.288-2.652-6.719-2.528C835.383,419.086,831.517,419.457,829.445,421.475Z" transform="translate(-209.572 -190.646)" opacity="0.1"/>
    <path id="Path_38" data-name="Path 38" d="M729.5,292.412a24.891,24.891,0,0,0-.588,4.639c-2.32.472-4.732-.3-6.958-1.075l-6.394-2.18a1.817,1.817,0,0,0-2.443.456,54.137,54.137,0,0,1-3.866,4.291,3.152,3.152,0,0,1-.673-.147c-1.075-.448-.912-2.111-.139-2.984s1.917-1.361,2.621-2.319a13.98,13.98,0,0,1,1.1-1.631,4.184,4.184,0,0,1,1.8-.9,27.881,27.881,0,0,1,13.724-.518c.773.17,1.655.479,1.886,1.229A2.267,2.267,0,0,1,729.5,292.412Z" transform="translate(-182.21 -161.322)" fill="#3f3d56"/>
    <path id="Path_39" data-name="Path 39" d="M729.5,292.412a24.891,24.891,0,0,0-.588,4.639c-2.32.472-4.732-.3-6.958-1.075l-6.394-2.18a1.817,1.817,0,0,0-2.443.456,54.137,54.137,0,0,1-3.866,4.291,3.152,3.152,0,0,1-.673-.147c-1.075-.448-.912-2.111-.139-2.984s1.917-1.361,2.621-2.319a13.98,13.98,0,0,1,1.1-1.631,4.184,4.184,0,0,1,1.8-.9,27.881,27.881,0,0,1,13.724-.518c.773.17,1.655.479,1.886,1.229A2.267,2.267,0,0,1,729.5,292.412Z" transform="translate(-182.21 -161.322)" opacity="0.1"/>
    <path id="Path_40" data-name="Path 40" d="M807.013,482.252c1.113.371,2.32.912,2.7,2.026L800.758,482l-4.639-1.183c-.819-.209-3.758-.448-4.3-1.09-.773-.943,1.972-.294,2.466-.224,1.5.224,3,.456,4.492.727C801.593,480.736,804.3,481.564,807.013,482.252Z" transform="translate(-201.234 -204.376)" opacity="0.1"/>
    <path id="Path_41" data-name="Path 41" d="M810.517,491.561c-.773-.518-2.992-.456-3.943-.68-1.392-.332-2.76-.773-4.129-1.2-2.776-.9-5.528-1.933-8.381-2.6-.526-.116-2.32-.147-2.234-.812s1.794-.9,2.219-.928c2.528-.186,5.683,1,8.033,1.84A35.405,35.405,0,0,1,810.517,491.561Z" transform="translate(-201.267 -205.76)" opacity="0.1"/>
    <path id="Path_42" data-name="Path 42" d="M805.389,472.6c-2.838-.773-5.412-2.536-8.335-2.876a3.386,3.386,0,0,1-2.126-.649,2.5,2.5,0,0,1-.688-1.237,14.407,14.407,0,0,1,6.008,1.508,18.91,18.91,0,0,1,2.814,1.5C803.711,471.24,804.685,472.376,805.389,472.6Z" transform="translate(-201.814 -201.791)" opacity="0.1"/>
    <path id="Path_43" data-name="Path 43" d="M875.808,384.46a13.523,13.523,0,0,0,9.479,14.945c-.379,1.832-2.273,2.845-3.611,4.152-1.887,1.832-2.861,4.577-5.088,5.969-2.482,1.546-5.675.943-8.5.294a1.037,1.037,0,0,1-.665-.348.952.952,0,0,1-.124-.3c-.936-3.425-1.546-7.082-.588-10.515.773-2.923,2.629-5.412,4.113-7.995S872.445,385.31,875.808,384.46Z" transform="translate(-218.143 -182.88)" fill="#3f3d56"/>
    <path id="Path_44" data-name="Path 44" d="M778.636,327.113a20.1,20.1,0,0,0-8.5,2.59c-1.732.99-3.51,2.32-5.489,2.08-1.167-.131-2.319-.773-3.456-.464a6.78,6.78,0,0,0-1.77,1.052,2,2,0,0,1-1.949.309l-.773,10.7c-.294,4.067-.58,8.219.394,12.185.5,2.026,1.608,3.866,1.732,5.922s-.062,4.167.085,6.247c.139,1.925.564,3.819.673,5.745.216,3.634-.68,7.237-1.546,10.77-1.307,5.211-2.1,10.538-4.639,15.255a9,9,0,0,0-1.546,4.121,2.107,2.107,0,0,0,.046.541c-.773.425-1.492.827-2.149,1.245-1.469.951-3.039,2.01-3.642,3.657-.487,1.338-.263,2.868-.851,4.16s-1.933,2.211-2.227,3.6c-.209,1.013.193,2.08,0,3.093a13.214,13.214,0,0,0-.425,1.6c-.077,1.16.9,2.1,1.879,2.729a15.129,15.129,0,0,0,4.639,2.041l4.616-18.324h0a147.737,147.737,0,0,0,10.461-24.331,52.306,52.306,0,0,1,3.023-8.01,37.649,37.649,0,0,0,2.32-4.546,34.243,34.243,0,0,0,1.113-6.116,42.815,42.815,0,0,1,1.817-7.059,30.289,30.289,0,0,0,1.972-7.562c.255-3.727-1.1-7.662.34-11.11a14.777,14.777,0,0,1,2.358-3.549c1.995-2.443,3.812-5,5.807-7.446C781.906,327.136,780.182,327.02,778.636,327.113Z" transform="translate(-190.099 -169.866)" fill="#3f3d56"/>
    <g id="Group_11" data-name="Group 11" transform="translate(588.089 114.483)" opacity="0.1">
      <path id="Path_45" data-name="Path 45" d="M817.075,271.81l-.966.07-.108.077a5.7,5.7,0,0,0,1.075-.147Z" transform="translate(-794.839 -271.81)"/>
      <path id="Path_46" data-name="Path 46" d="M828.556,291.1a20.831,20.831,0,0,1-.99,4.515,20.687,20.687,0,0,0-.773,2.722c-.155.9-.17,1.809-.309,2.706a8.815,8.815,0,0,1-3.549,5.853,1.546,1.546,0,0,1-.959.348c-.6-.07-.974-.773-1.2-1.407-1.229-3.549-.936-7.886-3.2-10.716a11.712,11.712,0,0,0-3.665-2.729,4.725,4.725,0,0,0-1.871-.7,4.924,4.924,0,0,0-2.706.99,16.847,16.847,0,0,1-5.35,2.366,6.572,6.572,0,0,1-5.528-1.191c-1.067-.881-1.848-2.2-3.031-2.892s-2.42-.649-3.587-1.121a5.281,5.281,0,0,1-3.015-3.448,2.191,2.191,0,0,1-.062-.294,5.412,5.412,0,0,0,.062,2.613,5.281,5.281,0,0,0,3.015,3.448c1.168.472,2.482.479,3.588,1.121s1.964,2.01,3.031,2.892a6.572,6.572,0,0,0,5.528,1.191,16.848,16.848,0,0,0,5.35-2.366,4.925,4.925,0,0,1,2.706-.99,4.724,4.724,0,0,1,1.871.7,11.714,11.714,0,0,1,3.611,2.752c2.265,2.83,1.972,7.167,3.2,10.716.224.642.6,1.338,1.2,1.407a1.546,1.546,0,0,0,1.013-.371,8.814,8.814,0,0,0,3.557-5.876c.139-.9.155-1.809.309-2.706a20.671,20.671,0,0,1,.773-2.722,17.4,17.4,0,0,0,1.028-6.5C828.587,291.319,828.572,291.211,828.556,291.1Z" transform="translate(-788.631 -275.051)"/>
    </g>
    <path id="Path_47" data-name="Path 47" d="M745.588,372.81l-.526,7.059c-.077.959-1.91,23.783-15.425,50.457C718.04,453.2,695.471,483,652.862,499.748q-4.987,1.972-10.353,3.68L638.52,490.9A146.461,146.461,0,0,0,667.3,478.316c21.718-12.541,38.6-30.439,50.379-53.472a143.634,143.634,0,0,0,13.221-38.89H682.42V372.81Z" transform="translate(-166.492 -180.238)" fill="#d2da32"/>
    <path id="Path_48" data-name="Path 48" d="M648.714,499.761c42.6-16.747,65.178-46.537,76.768-69.415,13.515-26.674,15.355-49.483,15.425-50.457l.526-7.059h5.412l-.526,7.059c-.07.959-1.91,23.783-15.425,50.457-11.6,22.878-34.166,52.668-76.768,69.415q-4.987,1.972-10.36,3.688l-.526-1.647Q646.039,500.8,648.714,499.761Z" transform="translate(-167.562 -180.242)" fill="#fff" opacity="0.1"/>
    <path id="Path_49" data-name="Path 49" d="M508.588,490.9l-3.99,12.525q-5.374-1.716-10.36-3.688c-42.6-16.747-65.178-46.537-76.768-69.415-13.515-26.674-15.355-49.483-15.425-50.457l-.526-7.059h63.137v13.144H416.171a143.716,143.716,0,0,0,13.26,38.89c11.775,23.033,28.654,40.931,50.372,53.464A146.133,146.133,0,0,0,508.588,490.9Z" transform="translate(-112.732 -180.238)" fill="#d2da32"/>
    <path id="Path_50" data-name="Path 50" d="M499.39,499.761c-42.6-16.747-65.178-46.537-76.768-69.415-13.515-26.674-15.355-49.483-15.425-50.457l-.526-7.059H401.26l.526,7.059c.07.959,1.91,23.783,15.425,50.457,11.6,22.878,34.166,52.668,76.768,69.415q4.987,1.972,10.36,3.688l.526-1.647Q502.073,500.8,499.39,499.761Z" transform="translate(-112.673 -180.242)" fill="#fff" opacity="0.1"/>
    <path id="Path_51" data-name="Path 51" d="M640.793,655.384V726.26H494.92V655.384l4.639-6.185c47.271-16.778,56.851-60.531,58.761-77.842a71.193,71.193,0,0,0,.487-7.206h18.038a71.154,71.154,0,0,0,.487,7.206c1.941,17.311,11.52,61.08,58.76,77.842Z" transform="translate(-133.918 -223.64)" fill="#d2da32"/>
    <rect id="Rectangle_11" data-name="Rectangle 11" width="145.873" height="8.891" transform="translate(361.002 431.743)" opacity="0.1"/>
    <path id="Path_52" data-name="Path 52" d="M507.291,649.2c47.271-16.778,56.851-60.531,58.761-77.842a71.191,71.191,0,0,0,.487-7.206h-7.732a71.173,71.173,0,0,1-.487,7.206c-1.941,17.311-11.52,61.08-58.761,77.842l-4.639,6.185V726.26h7.732V655.384Z" transform="translate(-133.918 -223.64)" fill="#fff" opacity="0.1"/>
    <path id="Path_53" data-name="Path 53" d="M466.26,372.81h13.082v13.144H467.42Q466.716,379.459,466.26,372.81Z" transform="translate(-127.417 -180.238)" opacity="0.1"/>
    <path id="Path_54" data-name="Path 54" d="M531.555,521.855l-3.99,12.525q-5.374-1.716-10.36-3.688A138.518,138.518,0,0,1,502.77,509.26a146.132,146.132,0,0,0,28.785,12.595Z" transform="translate(-135.699 -211.189)" opacity="0.1"/>
    <path id="Path_55" data-name="Path 55" d="M638.51,521.857a146.459,146.459,0,0,0,28.777-12.587,139.056,139.056,0,0,1-14.435,21.44q-4.987,1.972-10.353,3.68Z" transform="translate(-166.489 -211.191)" opacity="0.1"/>
    <path id="Path_56" data-name="Path 56" d="M708.4,372.81q-.456,6.649-1.16,13.144H695.33V372.81Z" transform="translate(-179.378 -180.238)" opacity="0.1"/>
    <path id="Path_57" data-name="Path 57" d="M595.972,571.356a49.976,49.976,0,0,1-19.012,0,71.14,71.14,0,0,0,.487-7.206h18.038A71.211,71.211,0,0,0,595.972,571.356Z" transform="translate(-152.528 -223.64)" opacity="0.1"/>
    <path id="Path_58" data-name="Path 58" d="M468.26,344.65c.332,97.465,42.083,176.282,93.553,176.282s93.213-78.816,93.553-176.282Z" transform="translate(-127.871 -173.85)" fill="#d2da32"/>
    <path id="Path_59" data-name="Path 59" d="M484.883,344.65H468.26c.332,97.465,42.083,176.282,93.553,176.282a50.528,50.528,0,0,0,8.312-.7C522.544,512.28,485.2,436.811,484.883,344.65Z" transform="translate(-127.871 -173.85)" fill="#fff" opacity="0.1"/>
    <rect id="Rectangle_12" data-name="Rectangle 12" width="99.22" height="25.514" transform="translate(384.328 458.874)" fill="#3f3d56"/>
    <path id="Path_60" data-name="Path 60" d="M501.729,596.979H596.31V593.5H497.09v25.514h4.639Z" transform="translate(-112.762 -134.626)" fill="#fff" opacity="0.1"/>
    <path id="Path_61" data-name="Path 61" d="M349.636,428.958c-1.786-.6-12.3-8.915-13.1-12.68s5.559-38.844,5.559-38.844a14.285,14.285,0,0,1-1.546-.116v-.564l1.307-46.081s5.358-30.927-4.763-29.125-3.773,29.125-3.773,29.125-1.152,13.871-1.964,18.03c-.773,4.013-4.314,20.357-1.9,25.437a5.525,5.525,0,0,0,.294.526h0s.4,17.435-3.966,19.816c-4.167,2.265-5.9,13.67-6.046,14.69l-.224-.093h0a12.116,12.116,0,0,1-3.224-2.946c-.093-.116-.162-.24-.247-.363a17.027,17.027,0,0,0-5.242-26.589,10.979,10.979,0,0,0-1.028-4.268c-2.01-4.3-13.144-9.92-21.053-10.051-3.649-.108-6.642.928-7.732,3.781-.557,1.446-.387,3.093-.619,4.593-.464,3.093-2.451,5.513-5,7.438a31.367,31.367,0,0,0-3.332-3.209c-2.582-1.979-7.732-8.5-7.732-8.5s-16.074-16.646-17.265-21.208-17.249-31.955-20.821-27.185,12.3,25.561,12.3,25.561,3.015,7.554,5.335,10.105,20.1,28.375,20.1,28.375l.85,1.763c-3.758,1.979-7.19,4.5-8.4,8.428-1.778,5.783,2.111,11.6,4.8,17.01,5.242,10.561,5.992,24.03-.773,33.679-6.062,8.52-16.577,12.572-26.419,16.113a26,26,0,0,0,16.7,5.544c-2.273,6.587-10.329,8.768-17.2,9.989,3.6,3.464,8.76,4.724,13.708,5.489a41.08,41.08,0,0,0,7.337.58h.6l.6-.046a20.992,20.992,0,0,0,2.5-.317c3.572-.727,7.044-2.675,8.868-5.83,1.546-2.7,2.088-6.379,4.894-7.732a6.255,6.255,0,0,1,2.32-.549h1.508l11.7.116h1.492c3.3-.077,6.827-.649,8.5-3.379a9.371,9.371,0,0,0,1.059-4.291c.247-3.7,0-7.515.1-11.25,1,6.8,2.041,17.388-.441,21.3a36.339,36.339,0,0,1-7.252,7.863,13.923,13.923,0,0,0-1.917,1.964c-.379.271-.6.418-.6.418l-.24.719a13.613,13.613,0,0,0-1.887,4.376,3.039,3.039,0,0,0-.147,1.245c.271.549-1.933,2.814-1.291,3.765-5.5,6.456-6.549,16.236-6.549,16.236L268.33,523.075c-5.165,13.569-12.9,14.961-12.9,14.961s-18.162-12.185-18.656-12.78-7.438-3.572-7.438-3.572a7.871,7.871,0,0,0-3.572-3.263c-2.381-.99-2.582-4.639-2.582-4.639-.294-8.621-5.358-9.278-5.358-9.278a16.452,16.452,0,0,0-9.595,1.709l-.727.054c-3.51.286-7.732.6-12.371.912-12.9.85-15.974,9.208-15.974,9.208a2.572,2.572,0,0,0,.495,3.719c2.08,1.933,15.394,0,15.958-.046a8.647,8.647,0,0,1-3.031-.209c2.1-.077,4.979-.155,7.438-.155h.6a32.171,32.171,0,0,0-.224,3.928c0,2.474,6.842,4.059,6.842,4.059l20.837,18.556s13.1,5.853,21.432,14.273,15.7,1.152,15.7,1.152c8.822-2.18,34.2-32.867,34.228-32.9h0c0,.9.534,30.741,1.546,36.733h0a3.981,3.981,0,0,0,.224.889c1.191,2.575-.4,9.61-1.09,12.579a34.948,34.948,0,0,0-.5,7.531s-9.518,36.339-8.729,39.532-5.157,18.03-5.157,18.03v12.371l1.036-.054a6.666,6.666,0,0,0-.371.619l-.07.131s6.348,1.384,10.616.99,11.6,3.286,11.6,3.286,2.482,1.175,10.121,1.67,7.639-3.371,7.639-3.371c-.874-5.265-12.943-7.028-13.314-7.082-.974-.611-1.887-1.276-2.637-1.848l-.155-.124a3.317,3.317,0,0,0,.131-.356c1.291-5.257-5.853-7.538-5.853-7.538V641.47c4.639-2.381,5.559-18.726,5.559-18.726s6.958-20.211,7.933-23.582,0-8.42,0-8.42l.7-4.361a21.445,21.445,0,0,0,1.492-3.564,8.806,8.806,0,0,1,1.685-4.16c1.09-1.291-1.191-4.361-1.191-4.361l1.987-5.149V563.5l4.639-20.5s4.863-23.883,3.178-31.7,1.987-11.791,1.987-11.791a9.77,9.77,0,0,1-1.021.464,29.53,29.53,0,0,0,1.2-3.294l10.438,1.291v.155h3.765s-1.191-14.69-1.191-20.613,4.013-27.177,4.013-27.177S351.422,429.553,349.636,428.958ZM303.3,411.809c0,.58-.054,1.183-.093,1.8l-.209.317-.387-.325-.472.735-.139.07c-1.021-.526-1.546-3.533-2.281-2.884l-.1.085c-.162-.185-.325-.24-.495-.085l-.155.131v-.688a17.4,17.4,0,0,0,4.33.549C303.308,411.616,303.3,411.716,303.3,411.809Zm34.715,68.41h.224l-.371.974C337.915,480.868,337.961,480.551,338.015,480.219ZM299.906,655.549l-1.423-.356.773-.131.719.472.085.062Zm14.535-2.08c-.472-.247-.951-.533-1.415-.827C313.181,652.727,313.792,653.044,314.441,653.469Z" transform="translate(-62.162 -164.056)" fill="url(#linear-gradient-2)"/>
    <path id="Path_62" data-name="Path 62" d="M358.766,390.03l-9.363,24.4h2.273l-8.806,7.02,15.9,1.979Z" transform="translate(-77.779 -88.472)" fill="#f86d70"/>
    <path id="Path_63" data-name="Path 63" d="M358.766,390.03l-9.363,24.4-2.358-.634-4.175,7.654,15.9,1.979Z" transform="translate(-77.779 -88.472)" opacity="0.1"/>
    <path id="Path_64" data-name="Path 64" d="M344.44,397.211h14.682l5.389-44.341H344.44Z" transform="translate(-78.135 -80.043)" fill="#f86d70"/>
    <path id="Path_65" data-name="Path 65" d="M344.44,397.211h14.682l5.389-44.341H344.44Z" transform="translate(-78.135 -80.043)" opacity="0.1"/>
    <path id="Path_66" data-name="Path 66" d="M334.911,475.966l3.17-.534,7.283-1.237s21.873-4.933,26.388-5.335a28.2,28.2,0,0,0,7.917-2.258c1.183-.51,1.933-.9,1.933-.9l-7.879-14.389L361.5,442.256s-7.732-1.647-11-6.147a7.245,7.245,0,0,1-1.013-6.866c1.995-6.185-11.914,5.915-11.914,5.915s.131,2.9,0,6.6c0,.727-.07,1.485-.124,2.258a15.219,15.219,0,0,1-.124,1.546c-.34,3.673-1.036,7.453-2.412,9.711C331.548,460.789,334.911,475.966,334.911,475.966Z" transform="translate(-97.284 -192.639)" fill="#fbbebe"/>
    <path id="Path_67" data-name="Path 67" d="M338.79,442.153h.309c.557,0,1.005-1.183,1.546-1.237,4.353-.417,8.327-1.33,11.087-4.415a7.252,7.252,0,0,1-1.013-6.858c1.995-6.185-11.914,5.907-11.914,5.907S338.952,438.457,338.79,442.153Z" transform="translate(-98.503 -192.73)" opacity="0.1"/>
    <path id="Path_68" data-name="Path 68" d="M316.89,418.689a16.94,16.94,0,0,0,16.948,16.948,11.808,11.808,0,0,0,1.655-.077,16.948,16.948,0,1,0-18.6-16.87Z" transform="translate(-93.535 -186.801)" fill="#fbbebe"/>
    <path id="Path_69" data-name="Path 69" d="M296.328,389.284c-.557,1.438-.387,3.046-.611,4.569-.827,5.5-6.417,8.791-11.474,11.095s-10.762,5.033-12.371,10.345c-1.763,5.745,2.088,11.5,4.763,16.894,5.211,10.5,5.953,23.891-.773,33.494-5.977,8.5-16.391,12.541-26.195,16.082a25.824,25.824,0,0,0,16.584,5.52C264,493.831,256,496,249.18,497.21c3.58,3.448,8.706,4.7,13.615,5.459a30.873,30.873,0,0,0,10.824.2,13,13,0,0,0,8.8-5.8c1.546-2.683,2.072-6.34,4.863-7.693a8.8,8.8,0,0,1,3.966-.58l11.6.124c3.611,0,7.886-.278,9.75-3.363a9.278,9.278,0,0,0,1.052-4.268c.5-7.608-.959-15.649,2.173-22.592.943-2.1-5.111-5.412-4.477-7.631a71.279,71.279,0,0,0,2.706-21.579c0-6.147,4-11.443,7.3-16.631s6.062-11.737,3.456-17.3C321.865,389.346,299.8,380.323,296.328,389.284Z" transform="translate(-78.176 -183.119)" fill="#3f3d56"/>
    <path id="Path_70" data-name="Path 70" d="M330.13,755.4l2.954,1.956.456.3.085.054,3.5,2.32,8.18,1.376,7.19-.495s2.072-4.33-1.183-4.229a6.773,6.773,0,0,1-2.969-.858l-.448-.224h0c-.472-.247-.943-.526-1.407-.82h0c-.966-.611-1.879-1.276-2.613-1.84-1.082-.835-1.8-1.469-1.8-1.469Z" transform="translate(-96.538 -266.131)" fill="#fbbebe"/>
    <path id="Path_71" data-name="Path 71" d="M334,758.631l.456.3.085.054,3.5,2.32,8.18,1.376,7.19-.495s2.072-4.33-1.183-4.229a6.772,6.772,0,0,1-2.969-.858c.572.448,1.052.936,1.1,1.345.131,1.106-5.319,3.093-5.319,3.093l-7.685-2.033s-1.307-.371-3.093-.835l-.17-.046Z" transform="translate(-97.416 -267.408)" opacity="0.1"/>
    <path id="Path_72" data-name="Path 72" d="M317,760.2s6.3,1.376,10.538.982,11.536,3.255,11.536,3.255,2.466,1.16,10.051,1.655,7.585-3.356,7.585-3.356c-.866-5.234-12.85-6.958-13.221-7.036h0a14.739,14.739,0,0,1,1.407.82h0c.85.557,1.771,1.283,1.84,1.871.131,1.1-5.319,3.093-5.319,3.093l-7.685-2.026s-1.307-.379-3.093-.843h-.17a65.91,65.91,0,0,0-8.056-1.662c-3.309-.356-5,2.459-5.35,3.093a.925.925,0,0,0-.062.155Z" transform="translate(-93.56 -267.09)" fill="#3f3d56"/>
    <path id="Path_73" data-name="Path 73" d="M188.54,579.1l3.348,2.567s.974-.046,2.428-.093h.464c2.08-.077,4.948-.155,7.384-.155a23.443,23.443,0,0,1,4.709.263c1.67.588,4.639-9.556,4.639-9.556l-3.356-.773-1.113-.263-.773-.186-2.729-.642-8.273.943-5.814,3.742Z" transform="translate(-64.421 -225.026)" fill="#fbbebe"/>
    <path id="Path_74" data-name="Path 74" d="M188.54,579.1l3.348,2.567s.974-.046,2.428-.093a2.931,2.931,0,0,1-1.546-1.384c-2.165-6.008,8.574-8.574,8.574-8.574l5-.216.974-.046h.773l-1.113-.263-.773-.186-2.729-.642-8.273.943-5.814,3.742Z" transform="translate(-64.421 -225.026)" opacity="0.1"/>
    <path id="Path_75" data-name="Path 75" d="M179.686,580.908c2.026,1.871,15.293,0,15.85-.046a8.35,8.35,0,0,1-3.008-.209,3.317,3.317,0,0,1-2.319-1.662c-2.165-6.015,8.574-8.574,8.574-8.574l5-.217.966-.046,12.162-.526.588-3.348s-3.951.371-10.152.866c-3.487.286-7.732.6-12.317.9-12.811.85-15.858,9.162-15.858,9.162A2.57,2.57,0,0,0,179.686,580.908Z" transform="translate(-62.169 -224.123)" fill="#3f3d56"/>
    <path id="Path_76" data-name="Path 76" d="M372.208,376.29a3.43,3.43,0,0,0,.294.526l2.953,4.33,7.685.773.085-3.046,1.291-45.833s5.319-30.741-4.732-28.97-3.742,28.97-3.742,28.97-1.144,13.793-1.948,17.937C373.313,354.981,369.811,371.264,372.208,376.29Z" transform="translate(-105.895 -164.628)" fill="#fbbebe"/>
    <path id="Path_77" data-name="Path 77" d="M350.14,543.833l2.188,3.742,4.894,8.373s8.876,3.255,11.149.773c1.245-1.353,2.59-6.077,3.533-10.051.773-3.216,1.291-5.93,1.291-5.93Z" transform="translate(-101.077 -218.33)" fill="#fbbebe"/>
    <path id="Path_78" data-name="Path 78" d="M350.14,543.844l2.188,3.742a2.58,2.58,0,0,0,.371-.394c2.474-3.155,13.368-.673,19.205-.472.773-3.216,1.291-5.93,1.291-5.93Z" transform="translate(-101.077 -218.341)" opacity="0.1"/>
    <path id="Path_79" data-name="Path 79" d="M206.16,580.5a23.448,23.448,0,0,1,4.709.263c1.67.588,4.639-9.556,4.639-9.556l-4.469-1.051,12.162-.526.588-3.348s-3.951.371-10.152.866a12.757,12.757,0,0,0-3.379,2.822l-.186.232A20.264,20.264,0,0,0,206.16,580.5Z" transform="translate(-68.417 -224.123)" opacity="0.1"/>
    <path id="Path_80" data-name="Path 80" d="M330.13,755.389l3.41,2.258c5.087-.92,9.734-2.366,10.283-4.639a.783.783,0,0,0,0-.108c-1.082-.835-1.8-1.469-1.8-1.469Z" transform="translate(-96.538 -266.122)" opacity="0.1"/>
    <path id="Path_81" data-name="Path 81" d="M317.09,760.427a118.019,118.019,0,0,0,13.407-1.438,65.934,65.934,0,0,0-8.064-1.678C319.131,756.955,317.438,759.77,317.09,760.427Z" transform="translate(-93.58 -267.449)" opacity="0.1"/>
    <path id="Path_82" data-name="Path 82" d="M206.64,578.607c0,2.466,6.8,4.044,6.8,4.044l20.7,18.424s13,5.814,21.278,14.188,15.572,1.183,15.572,1.183C279.751,614.281,305,583.733,305,583.733s.588,34.885,1.771,37.444-.394,9.556-1.082,12.517a34.794,34.794,0,0,0-.495,7.484s-9.456,36.161-8.667,39.315-5.126,17.937-5.126,17.937v12.317s23.156-.889,24.432-6.108-5.806-7.492-5.806-7.492v-1.283c4.639-2.366,5.513-18.618,5.513-18.618s6.9-20.1,7.886-23.45,0-8.381,0-8.381l.688-4.33a21.617,21.617,0,0,0,1.477-3.549,8.768,8.768,0,0,1,1.678-4.136c1.082-1.283-1.183-4.337-1.183-4.337l1.972-5.126v-5.613l4.639-20.4s4.832-23.752,3.154-31.537,1.972-11.721,1.972-11.721c-7.909,4.144-11.9-5.08-13.206-9.046-.332-1.021-.495-1.7-.495-1.7s-10.863-4.005-20.976-3.046a24.15,24.15,0,0,0-6.023,1.276c-11.234,4.044-13,20.79-13,20.79l-9.951,15.177C269.042,591.619,261.357,593,261.357,593s-18.03-12.115-18.556-12.711-7.391-3.549-7.391-3.549a7.81,7.81,0,0,0-3.549-3.247c-2.366-.99-2.559-4.639-2.559-4.639-.294-8.574-5.319-9.278-5.319-9.278C206.539,558.118,206.64,576.148,206.64,578.607Z" transform="translate(-68.526 -218.327)" fill="#3f3d56"/>
    <rect id="Rectangle_13" data-name="Rectangle 13" width="10.639" height="33.006" transform="translate(249.063 312.104) rotate(180)" fill="#f86d70"/>
    <rect id="Rectangle_14" data-name="Rectangle 14" width="10.639" height="33.006" transform="translate(249.063 312.104) rotate(180)" opacity="0.1"/>
    <path id="Path_83" data-name="Path 83" d="M372.44,397.41a.482.482,0,0,0,0,.07,3.429,3.429,0,0,0,.294.526l2.954,4.33,7.685.773.085-3.046C381.06,399.876,375.6,399.219,372.44,397.41Z" transform="translate(-106.135 -185.818)" opacity="0.1"/>
    <path id="Path_84" data-name="Path 84" d="M369.906,398.18s.394,17.334-3.943,19.7-6.023,14.69-6.023,14.69,13.144,8.644,16.074,12.448,9.657,12.865,8.273,15.03,3.356,12.023,3.356,12.023-8.675,17.736-6.7,24.44,2.165,24.432,2.165,24.432h3.75s-1.183-14.582-1.183-20.5,3.935-27,3.935-27,1.778-20.69,0-21.278-12.216-8.868-13-12.618,5.52-38.658,5.52-38.658S374.043,400.546,369.906,398.18Z" transform="translate(-103.3 -185.992)" fill="#f86d70"/>
    <path id="Path_85" data-name="Path 85" d="M336.12,472.065a16.87,16.87,0,0,0,2.575,6.757l7.283-1.237s21.873-4.933,26.388-5.335a28.2,28.2,0,0,0,7.917-2.258A34.916,34.916,0,0,0,370.5,453.95l-2.776-2.575a46.5,46.5,0,0,0-13.994-8.946c.325.271,23.272,19.863,18.247,23.705s-18.556-5.513-18.556-5.513L338.037,447.4l-.557-.479-.889,1.384a12.929,12.929,0,0,1,1.322.634,22.639,22.639,0,0,1,10.824,13.453C351.9,473.024,336.12,472.065,336.12,472.065Z" transform="translate(-97.897 -196.03)" opacity="0.1"/>
    <path id="Path_86" data-name="Path 86" d="M330,543.631s14.582,8.08,18.123,3.549c.773-1,2.4-1.43,4.438-1.546-.332-1.021-.495-1.7-.495-1.7s-10.863-4.005-20.976-3.046C330.425,542.557,330,543.631,330,543.631Z" transform="translate(-96.509 -218.33)" fill="#444053"/>
    <path id="Path_87" data-name="Path 87" d="M336.711,446.944l15.943,13.716s13.476,9.386,18.556,5.513-18.254-23.713-18.254-23.713h0a47.161,47.161,0,0,1,13.987,8.922l2.776,2.575c7.3,6.765,8.945,6.765,9.193,16.708.062,2.451-.773,5.969-1.415,6.6-2.366,2.32-4.02,19.167-3.657,21.138s-4.407,18.989-2.861,23.721-19.329-2.366-22.862,2.173S330,520.751,330,520.751s8.08-20.7,10.051-22.074,4.337-12.023,0-16.948a18.383,18.383,0,0,1-4.724-9.657s15.773.974,12.61-9.657a22.313,22.313,0,0,0-12.123-14.087Z" transform="translate(-96.509 -196.037)" fill="#e8e8f0"/>
    <path id="Path_88" data-name="Path 88" d="M361.345,493.38s-6.116,11.528-14.025,14.52c-.255.093-.5.178-.773.255C338.289,510.668,361.963,496.952,361.345,493.38Z" transform="translate(-99.865 -207.587)" opacity="0.1"/>
    <path id="Path_89" data-name="Path 89" d="M251.84,353.857s2.953,7.492,5.319,10.051,19.9,28.182,19.9,28.182l1.484,3.093,1.276,2.636,11.234-1.183.773-4.531-.433-.526a53.087,53.087,0,0,0-6.27-6.572c-2.559-1.964-7.685-8.466-7.685-8.466S261.481,359.98,260.3,355.449s-17.149-31.7-20.69-27S251.84,353.857,251.84,353.857Z" transform="translate(-75.887 -170.052)" fill="#fbbebe"/>
    <g id="Group_12" data-name="Group 12" transform="translate(188.787 202.4)" opacity="0.1">
      <path id="Path_90" data-name="Path 90" d="M291.942,519.09a8.807,8.807,0,0,0-3.966.572c-2.783,1.353-3.309,5.01-4.855,7.693a13,13,0,0,1-8.806,5.8,19.689,19.689,0,0,1-2.134.294,24.238,24.238,0,0,0,6.773-.294,13,13,0,0,0,8.806-5.8c1.546-2.683,2.072-6.34,4.855-7.693a6.185,6.185,0,0,1,2.32-.541Z" transform="translate(-272.18 -415.812)"/>
      <path id="Path_91" data-name="Path 91" d="M329.182,429.49c0-6.147,4-11.443,7.291-16.631s6.062-11.737,3.456-17.3c-2.227-4.755-15.649-11.134-23.4-9.873,7.585.982,16.932,5.977,18.757,9.873,2.606,5.567-.162,12.116-3.456,17.3s-7.306,10.484-7.291,16.631a72.179,72.179,0,0,1-2.714,21.579c-.626,2.2,5.412,5.536,4.484,7.623-3.139,6.958-1.67,14.984-2.173,22.592a9.394,9.394,0,0,1-1.059,4.268c-1.546,2.544-4.716,3.2-7.8,3.34h2.7c3.6,0,7.879-.278,9.742-3.363a9.393,9.393,0,0,0,1.059-4.268c.5-7.608-.966-15.641,2.173-22.592.943-2.088-5.111-5.412-4.484-7.623A71.317,71.317,0,0,0,329.182,429.49Z" transform="translate(-281.957 -385.521)"/>
    </g>
    <path id="Path_92" data-name="Path 92" d="M290.12,413.843l1.276,2.637L302.63,415.3l.773-4.531-.433-.526C301.772,410.828,292.8,415.15,290.12,413.843Z" transform="translate(-87.462 -188.728)" opacity="0.1"/>
    <path id="Path_93" data-name="Path 93" d="M331.789,443.633s-2.76-4.33-4.337-3.154-2.188-3.549-3.093-2.76-3.541,2.984-4.639-.085c-.858-2.443-10.2-17.9-13.987-24.115-.974-1.608-1.585-2.6-1.585-2.6s-10.639,5.319-13.2,3.549v3.742l2.165.2,11.6,21.649s3.649,5.806,3.4,7.832,4.678,10.894,5.466,11.482,9.278,10.445,9.278,10.445,4.337,21.285.588,27.2S313.2,507.264,313.2,507.264s-1.956,5.714-1.67,6.309-2.273,3.155-1.09,3.943,2.76,6.3,2.76,6.3,5.52-8.868,8.5-10.244,6.8-19.515,6.8-19.515,1.09-10.685,1.175-17.582S329.423,443.633,331.789,443.633Z" transform="translate(-87.651 -188.882)" opacity="0.1"/>
    <path id="Path_94" data-name="Path 94" d="M331.019,443.633s-2.752-4.33-4.33-3.154-2.2-3.549-3.093-2.76-3.533,2.984-4.639-.085c-.866-2.443-10.206-17.9-13.987-24.115l-1.585-2.6s-10.639,5.319-13.206,3.549v3.742l2.173.2,11.6,21.649s3.657,5.806,3.4,7.832,4.639,10.894,5.466,11.482S322.1,469.82,322.1,469.82s4.337,21.285.6,27.2a36.251,36.251,0,0,1-7.136,7.9,13.793,13.793,0,0,0-4.639,7.438,2.939,2.939,0,0,0-.139,1.237c.286.588-2.273,3.155-1.09,3.943s2.776,6.324,2.776,6.324,5.52-8.868,8.5-10.244,6.812-19.515,6.812-19.515,1.082-10.685,1.175-17.582S328.7,443.633,331.019,443.633Z" transform="translate(-87.476 -188.882)" fill="#f86d70"/>
    <path id="Path_95" data-name="Path 95" d="M307.783,569.21s8.281,1.546,11.6,3.935-12.61-3.742-12.61-3.742Z" transform="translate(-91.239 -224.788)" opacity="0.1"/>
    <path id="Path_96" data-name="Path 96" d="M333.83,596.35s8.636,7.2,7.09,13.7-5.536,22.863-5.536,22.863Z" transform="translate(-97.377 -230.944)" opacity="0.1"/>
    <path id="Path_97" data-name="Path 97" d="M232.79,578.45s-12.17,1.33-11.381,2.907S232.79,579.9,232.79,579.9Z" transform="translate(-71.868 -226.884)" opacity="0.1"/>
    <path id="Path_98" data-name="Path 98" d="M355.208,654.693s.773.982-3.742,0-1.183-4.013-1.183-4.013Z" transform="translate(-100.841 -243.268)" opacity="0.1"/>
    <path id="Path_99" data-name="Path 99" d="M352.051,673.332s-6.185.982-9.5,0S352.051,673.332,352.051,673.332Z" transform="translate(-99.231 -248.307)" opacity="0.1"/>
    <path id="Path_100" data-name="Path 100" d="M333.914,742.185s-1.082-1.183-6.5.982-7.585,2.265-9.162,1.546S333.914,742.185,333.914,742.185Z" transform="translate(-93.82 -263.952)" opacity="0.1"/>
    <path id="Path_101" data-name="Path 101" d="M344.065,576.28l-7.685,10.693S340.516,577.61,344.065,576.28Z" transform="translate(-97.956 -226.392)" opacity="0.1"/>
    <path id="Path_102" data-name="Path 102" d="M323.718,449.15s-.332,3.549-5.288,4.933-5.9,2.505-5.9,2.505" transform="translate(-92.546 -197.554)" opacity="0.1"/>
    <path id="Path_103" data-name="Path 103" d="M306.418,415.88s-6.541,4.639-13.368,3.657" transform="translate(-88.127 -190.007)" opacity="0.1"/>
    <path id="Path_104" data-name="Path 104" d="M316.78,543.164s1.91,1.2,6.495-4.044" transform="translate(-93.51 -217.962)" opacity="0.1"/>
    <path id="Path_105" data-name="Path 105" d="M376.669,470.607a3.358,3.358,0,0,0-1.106-2.6l-1.283-1.546a5.958,5.958,0,0,0-.843-.866c-.773-.6-1.763-.773-2.567-1.307" transform="translate(-105.779 -200.988)" opacity="0.1"/>
    <path id="Path_106" data-name="Path 106" d="M898.255,123.825s-65.093-3.928-57.438,41.689c0,0-1.546,8.064,5.783,11.721,0,0,.116-3.379,6.68-2.227a30.54,30.54,0,0,0,7.075.34A14.737,14.737,0,0,0,869,171.777h0s18.3-7.562,25.414-37.468c0,0,5.265-6.526,5.057-8.2L888.482,130.8s3.758,7.925.773,14.512c0,0-.356-14.226-2.466-13.917-.425.07-5.706,2.745-5.706,2.745s6.456,13.8,1.585,23.837c0,0,1.848-17.01-3.6-22.839l-7.732,4.515s7.546,14.257,2.428,25.893c0,0,1.314-17.845-4.059-24.8l-7,5.466s7.09,14.056,2.768,23.705c0,0-.564-20.775-4.283-22.344,0,0-6.131,5.412-7.067,7.623,0,0,4.856,10.206,1.84,15.587,0,0-1.848-13.84-3.363-13.917,0,0-6.108,9.17-6.742,15.463,0,0,.263-9.348,5.265-16.329,0,0-5.907,1.013-9.355,4.84,0,0,.951-6.479,10.863-7.044,0,0,5.049-6.958,6.394-7.384,0,0-9.85-.82-15.827,1.825,0,0,5.258-6.116,17.636-3.332l6.92-5.652s-12.974-1.771-18.479.186c0,0,6.332-5.412,20.342-1.469l7.531-4.5s-11.064-2.381-17.651-1.546c0,0,6.958-3.75,19.863.317l5.412-2.42s-8.1-1.593-10.477-1.848-2.5-.9-2.5-.9a28.1,28.1,0,0,1,15.224,1.693S898.456,124.544,898.255,123.825Z" transform="translate(-212.237 -123.74)" fill="#3cbbc0" opacity="0.1"/>
    <path id="Path_107" data-name="Path 107" d="M803.757,138.849s-29.38-1.778-25.94,18.834a5.04,5.04,0,0,0,2.606,5.3s.054-1.546,3.023-1.013a13.537,13.537,0,0,0,3.193.155,6.626,6.626,0,0,0,3.9-1.616h0s8.273-3.41,11.489-16.925c0,0,2.374-2.953,2.281-3.711L799.35,142s1.7,3.587.363,6.564c0,0-.162-6.433-1.113-6.278-.193,0-2.582,1.237-2.582,1.237s2.923,6.239.719,10.778c0,0,.835-7.685-1.631-10.322l-3.495,2.041s3.417,6.44,1.1,11.7c0,0,.6-8.064-1.832-11.2l-3.162,2.5s3.2,6.355,1.253,10.708c0,0-.255-9.386-1.941-10.09,0,0-2.768,2.443-3.193,3.448,0,0,2.2,4.639.835,7.036,0,0-.835-6.255-1.546-6.278,0,0-2.752,4.144-3.046,6.958a15.116,15.116,0,0,1,2.381-7.384,8.319,8.319,0,0,0-4.229,2.188s.433-2.923,4.91-3.185c0,0,2.32-3.139,2.892-3.332,0,0-4.453-.371-7.152.827,0,0,2.374-2.768,7.971-1.546l3.093-2.551s-5.861-.773-8.35.085c0,0,2.861-2.443,9.193-.665l3.4-2.033s-4.995-1.082-7.979-.688c0,0,3.147-1.7,8.976.139l2.435-1.09s-3.665-.727-4.739-.835-1.129-.41-1.129-.41a12.672,12.672,0,0,1,6.881.773S803.85,139.173,803.757,138.849Z" transform="translate(-198.026 -127.158)" fill="#3888c8" opacity="0.1"/>
    <ellipse id="Ellipse_17" data-name="Ellipse 17" cx="31.089" cy="5.258" rx="31.089" ry="5.258" transform="translate(677.273 492.63)" fill="#3cbbc0"/>
    <path id="Path_108" data-name="Path 108" d="M952.385,752.376a9,9,0,0,0,2.961-4.477,3.993,3.993,0,0,0-2.072-4.554c-1.9-.727-3.935.6-5.474,1.925s-3.309,2.853-5.319,2.567a8.118,8.118,0,0,0,2.505-7.585,3.185,3.185,0,0,0-.7-1.546c-1.059-1.129-2.969-.65-4.237.24-4.021,2.83-5.142,8.3-5.165,13.206-.4-1.77-.062-3.618-.07-5.412s-.51-3.866-2.049-4.817a6.116,6.116,0,0,0-3.093-.727c-1.8-.07-3.819.116-5.049,1.438-1.546,1.639-1.137,4.392.193,6.185s3.363,2.946,5.234,4.191a11.6,11.6,0,0,1,3.734,3.564,3.215,3.215,0,0,1,.278.642H945.4a31.525,31.525,0,0,0,6.982-4.84Z" transform="translate(-231.165 -263.086)" fill="#3cbbc0"/>
  </g>
</svg>
