<svg xmlns="http://www.w3.org/2000/svg" width="39.513" height="36.75" viewBox="0 0 39.513 36.75">
  <g id="ico_24_education_graduate" data-name="ico / 24 / education / graduate" transform="translate(-0.875 -0.5)">
    <path id="Fill_1" data-name="Fill 1" d="M28.225,36.75a4.235,4.235,0,0,1-1.411-8.227V25.4l-4.3,1.75a7.064,7.064,0,0,1-5.5,0L8.211,23.442a4.227,4.227,0,0,1-2.569-3.9V12.489L.858,10.472a1.412,1.412,0,0,1,0-2.6L19.206.111a1.423,1.423,0,0,1,1.1,0L38.655,7.874V7.9a1.413,1.413,0,0,1,0,2.6l-4.785,2.019v7.057a4.226,4.226,0,0,1-2.569,3.9l-1.666.706v4.347a4.235,4.235,0,0,1-1.411,8.227Zm0-5.7a1.411,1.411,0,0,0,0,2.823,1.41,1.41,0,0,0,1.411-1.412,1.413,1.413,0,0,0-1.412-1.411ZM8.464,13.689v5.886a1.406,1.406,0,0,0,.861,1.3L18.1,24.585a4.321,4.321,0,0,0,3.3,0L26.813,22.3V15.524l-6.507,2.71a1.423,1.423,0,0,1-1.1,0Zm22.583,0-1.411.607V21.17l.551-.3a1.406,1.406,0,0,0,.86-1.3V13.689ZM19.756,2.948,5.035,9.173l14.721,6.238L23.99,13.59l-4.87-2.456a1.411,1.411,0,0,1,1.271-2.512l7.057,3.528,7.029-2.977L19.756,2.948Z" transform="translate(0.875 0.5)" fill="#dfe4ec"/>
  </g>
</svg>
