<svg xmlns="http://www.w3.org/2000/svg" width="31.5" height="35" viewBox="0 0 31.5 35">
  <g id="ico_24_education_graduate" data-name="ico / 24 / education / graduate" transform="translate(-0.25 -0.5)">
    <path id="Icon_color" data-name="Icon color" d="M21.875,35H9.625a.876.876,0,0,1-.875-.875V32.375a.876.876,0,0,1,.875-.875H14v-7a7,7,0,0,1-6.755-5.25H7a7.008,7.008,0,0,1-7-7v-7A1.752,1.752,0,0,1,1.75,3.5H7V1.75A1.752,1.752,0,0,1,8.75,0h14A1.752,1.752,0,0,1,24.5,1.75V3.5H29.75A1.752,1.752,0,0,1,31.5,5.25v7a7.008,7.008,0,0,1-7,7h-.245A7,7,0,0,1,17.5,24.5v7h4.376a.876.876,0,0,1,.875.875v1.751A.876.876,0,0,1,21.875,35ZM10.5,3.5v14A3.5,3.5,0,0,0,14,21h3.5A3.5,3.5,0,0,0,21,17.5V3.5ZM24.5,7v8.75a3.5,3.5,0,0,0,3.5-3.5V7ZM3.5,7v5.25A3.5,3.5,0,0,0,7,15.75V7Z" transform="translate(0.25 0.5)" fill="#dfe4ec"/>
  </g>
</svg>
