<svg xmlns="http://www.w3.org/2000/svg" width="15" height="23" viewBox="0 0 15 23">
  <g id="Group_3" data-name="Group 3" transform="translate(0 0)">
    <path id="Fill_1" data-name="Fill 1" d="M7.5,23A7.593,7.593,0,0,1,0,15.333V7.667A7.593,7.593,0,0,1,7.5,0,7.594,7.594,0,0,1,15,7.667v7.666A7.594,7.594,0,0,1,7.5,23ZM7.5,1.1A6.509,6.509,0,0,0,1.071,7.667v7.666A6.509,6.509,0,0,0,7.5,21.905a6.509,6.509,0,0,0,6.429-6.572V7.667A6.509,6.509,0,0,0,7.5,1.1Z" fill="#fff"/>
    <path id="Fill_2" data-name="Fill 2" d="M.5,0A.54.54,0,0,0,0,.571V3.429A.54.54,0,0,0,.5,4,.54.54,0,0,0,1,3.429V.571A.54.54,0,0,0,.5,0Z" transform="translate(7 5)" fill="#fff"/>
  </g>
</svg>
