<svg xmlns="http://www.w3.org/2000/svg" width="62" height="95" viewBox="0 0 62 95">
  <g id="moreInformation" transform="translate(30 72)">
    <g id="Group_3" data-name="Group 3" transform="translate(-29.746 -71.677)">
      <path id="Fill_1" data-name="Fill 1" d="M31,95C13.906,95,0,80.794,0,63.332V31.668C0,14.206,13.906,0,31,0S62,14.206,62,31.668V63.332C62,80.794,48.093,95,31,95ZM31,4.524C16.347,4.524,4.427,16.7,4.427,31.668V63.332C4.427,78.3,16.347,90.476,31,90.476S57.57,78.3,57.57,63.332V31.668C57.57,16.7,45.65,4.524,31,4.524Z" transform="translate(-0.254 -0.323)" fill="#fff"/>
      <path id="Fill_2" data-name="Fill 2" d="M.5,0A.54.54,0,0,0,0,.571V3.429A.54.54,0,0,0,.5,4,.54.54,0,0,0,1,3.429V.571A.54.54,0,0,0,.5,0Z" transform="translate(30.373 23.862)" fill="#fff"/>
    </g>
  </g>
</svg>
