<svg xmlns="http://www.w3.org/2000/svg" width="67.849" height="73.533" viewBox="0 0 67.849 73.533">
  <g id="Group_3645" data-name="Group 3645" transform="translate(-0.047)">
    <path id="Path_3166" data-name="Path 3166" d="M61.245,1.5H23.652s-3.061,21.552,12.98,37.961H48.265C64.307,23.052,61.245,1.5,61.245,1.5Z" transform="translate(-8.478)" fill="none" stroke="#b7bcbe" stroke-linejoin="round" stroke-miterlimit="10" stroke-width="3"/>
    <path id="Path_3167" data-name="Path 3167" d="M65.2,9.5h7.531a47.843,47.843,0,0,1-3.184,16.348" transform="translate(-24.678 -3.102)" fill="none" stroke="#b7bcbe" stroke-linecap="round" stroke-linejoin="round" stroke-miterlimit="10" stroke-width="3"/>
    <path id="Path_3168" data-name="Path 3168" d="M61.708,111.272h0a8.558,8.558,0,0,0-8.572-8.572H30.972a8.558,8.558,0,0,0-8.572,8.572H61.708Z" transform="translate(-8.083 -39.238)" fill="none" stroke="#b7bcbe" stroke-linejoin="round" stroke-miterlimit="10" stroke-width="3"/>
    <path id="Path_3169" data-name="Path 3169" d="M57.4,82.3a5.774,5.774,0,0,0-1.837-1.837c-1.837-1.163-5.082-3.123-5.082-6.551,0-4.47,2.265-6.429,2.265-6.429l-.184-3.98H41.176l-.122,3.98s2.265,1.959,2.265,6.368c0,3.429-3.245,5.388-5.082,6.551A5.8,5.8,0,0,0,36.4,82.235a8.922,8.922,0,0,0-1.408,5.2H58.748A8.992,8.992,0,0,0,57.4,82.3Z" transform="translate(-12.96 -24.039)" fill="none" stroke="#b7bcbe" stroke-linejoin="round" stroke-miterlimit="10" stroke-width="3"/>
    <g id="Group_3648" data-name="Group 3648" transform="translate(1.554 8.664)">
      <g id="Group_3646" data-name="Group 3646" transform="translate(46.806)">
        <path id="Path_3170" data-name="Path 3170" d="M82.592,13.2H94.531A1.5,1.5,0,0,1,96,14.976c-.857,4.653-4.408,16.776-18,16.776" transform="translate(-78 -13.2)" fill="none" stroke="#b7bcbe" stroke-linejoin="round" stroke-miterlimit="10" stroke-width="3"/>
        <path id="Path_3171" data-name="Path 3171" d="M85.4,19.4h9.184a16.679,16.679,0,0,1-5.143,8.2" transform="translate(-80.869 -15.604)" fill="none" stroke="#b7bcbe" stroke-linecap="round" stroke-linejoin="round" stroke-miterlimit="10" stroke-width="3"/>
      </g>
      <g id="Group_3647" data-name="Group 3647">
        <path id="Path_3172" data-name="Path 3172" d="M14.929,13.2H3.051a1.5,1.5,0,0,0-1.469,1.776c.8,4.653,4.347,16.776,18,16.776" transform="translate(-1.554 -13.2)" fill="none" stroke="#b7bcbe" stroke-linejoin="round" stroke-miterlimit="10" stroke-width="3"/>
        <path id="Path_3173" data-name="Path 3173" d="M17.684,19.4H8.5a16.679,16.679,0,0,0,5.143,8.2" transform="translate(-4.247 -15.604)" fill="none" stroke="#b7bcbe" stroke-linecap="round" stroke-linejoin="round" stroke-miterlimit="10" stroke-width="3"/>
      </g>
    </g>
  </g>
</svg>
