<svg xmlns="http://www.w3.org/2000/svg" width="63.988" height="71.667" viewBox="0 0 63.988 71.667">
  <g id="Group_3642" data-name="Group 3642" transform="translate(0.045)">
    <path id="Path_3157" data-name="Path 3157" d="M78.374,45.81l2.747-2.694L69.5,40l3.116,11.621,2.694-2.747" transform="translate(-32.087 -18.164)" fill="none" stroke="#b7bcbe" stroke-linecap="round" stroke-linejoin="round" stroke-miterlimit="10" stroke-width="3"/>
    <g id="Group_3643" data-name="Group 3643" transform="translate(45.495 29.917)">
      <line id="Line_42" data-name="Line 42" x2="3.381" y2="3.381" stroke-width="3" stroke="#b7bcbe" stroke-linecap="round" stroke-linejoin="round" stroke-miterlimit="10" fill="none"/>
    </g>
    <path id="Path_3158" data-name="Path 3158" d="M10.934,1.5h-3.7A4.464,4.464,0,0,0,2.8,5.937V41.221a4.464,4.464,0,0,0,4.437,4.437H57.892a4.464,4.464,0,0,0,4.437-4.437V5.937A4.464,4.464,0,0,0,57.892,1.5H53.719" transform="translate(-0.618)" fill="none" stroke="#b7bcbe" stroke-linecap="round" stroke-linejoin="round" stroke-miterlimit="10" stroke-width="3"/>
    <path id="Path_3159" data-name="Path 3159" d="M27.994,85.1,25.3,91.967H61.06L58.366,85.1" transform="translate(-11.233 -39.442)" fill="none" stroke="#b7bcbe" stroke-linecap="round" stroke-linejoin="round" stroke-miterlimit="10" stroke-width="3"/>
    <path id="Path_3160" data-name="Path 3160" d="M56.957,107.9l5.176,9.349a2.082,2.082,0,0,1-1.849,3.116H3.608a2.109,2.109,0,0,1-1.849-3.116L6.936,107.9H56.957Z" transform="translate(0 -50.199)" fill="none" stroke="#b7bcbe" stroke-linecap="round" stroke-linejoin="round" stroke-miterlimit="10" stroke-width="3"/>
  </g>
</svg>
