<svg xmlns="http://www.w3.org/2000/svg" width="65.763" height="73.667" viewBox="0 0 65.763 73.667">
  <g id="Group_3644" data-name="Group 3644" transform="translate(0.046)">
    <path id="Path_3161" data-name="Path 3161" d="M11.171,1.5H7.366A4.594,4.594,0,0,0,2.8,6.066V42.378a4.594,4.594,0,0,0,4.566,4.566H59.5a4.594,4.594,0,0,0,4.566-4.566V6.066A4.594,4.594,0,0,0,59.5,1.5H55.2" transform="translate(-0.598)" fill="none" stroke="#b7bcbe" stroke-linecap="round" stroke-linejoin="round" stroke-miterlimit="10" stroke-width="3"/>
    <path id="Path_3162" data-name="Path 3162" d="M28.072,85.1,25.3,92.167H62.1L59.329,85.1" transform="translate(-10.867 -38.156)" fill="none" stroke="#b7bcbe" stroke-linecap="round" stroke-linejoin="round" stroke-miterlimit="10" stroke-width="3"/>
    <path id="Path_3163" data-name="Path 3163" d="M58.572,107.9l5.327,9.622a2.142,2.142,0,0,1-1.9,3.207H3.67a2.17,2.17,0,0,1-1.9-3.207L7.094,107.9H58.572Z" transform="translate(0 -48.562)" fill="none" stroke="#b7bcbe" stroke-linecap="round" stroke-linejoin="round" stroke-miterlimit="10" stroke-width="3"/>
    <rect id="Rectangle_1647" data-name="Rectangle 1647" width="22.45" height="15.873" transform="translate(22.804 13.785)" fill="none" stroke="#b7bcbe" stroke-miterlimit="10" stroke-width="3"/>
    <path id="Path_3164" data-name="Path 3164" d="M54.052,4.2h0A8.746,8.746,0,0,0,45.3,12.952v2.066H62.8V12.952A8.816,8.816,0,0,0,54.052,4.2Z" transform="translate(-19.995 -1.232)" fill="none" stroke="#b7bcbe" stroke-miterlimit="10" stroke-width="3"/>
    <path id="Path_3165" data-name="Path 3165" d="M61.818,33.409a2.609,2.609,0,0,0-5.218,0A2.64,2.64,0,0,0,58.122,35.8v3.642H60.3V35.8A2.737,2.737,0,0,0,61.818,33.409Z" transform="translate(-25.153 -13.373)" fill="none" stroke="#b7bcbe" stroke-miterlimit="10" stroke-width="3"/>
  </g>
</svg>
