<svg xmlns="http://www.w3.org/2000/svg" width="78" height="75.689" viewBox="0 0 78 75.689">
  <g id="Group_3640" data-name="Group 3640" transform="translate(0 0.004)">
    <path id="Path_3153" data-name="Path 3153" d="M76.5,43,39.03,62.221,1.5,43" transform="translate(0 -16.139)" fill="none" stroke="#b7bcbe" stroke-miterlimit="10" stroke-width="3"/>
    <path id="Path_3154" data-name="Path 3154" d="M76.5,26.861,39.03,1.8,1.5,26.861V71.995a2.181,2.181,0,0,0,2.19,2.19H74.31a2.181,2.181,0,0,0,2.19-2.19Z" fill="none" stroke="#b7bcbe" stroke-miterlimit="10" stroke-width="3"/>
    <g id="Group_3641" data-name="Group 3641" transform="translate(27.656 46.691)">
      <path id="Path_3155" data-name="Path 3155" d="M44.5,75.6l9.367,4.805a4.383,4.383,0,0,0,4.015,0L67.249,75.6" transform="translate(-44.5 -75.6)" fill="none" stroke="#b7bcbe" stroke-linecap="round" stroke-miterlimit="10" stroke-width="3"/>
    </g>
    <path id="Path_3156" data-name="Path 3156" d="M69.982,49.155V34.8H31.6V49.155" transform="translate(-11.791 -12.927)" fill="none" stroke="#b7bcbe" stroke-miterlimit="10" stroke-width="3"/>
    <line id="Line_40" data-name="Line 40" x2="21.715" transform="translate(28.142 28.807)" fill="none" stroke="#b7bcbe" stroke-miterlimit="10" stroke-width="3"/>
    <line id="Line_41" data-name="Line 41" x2="21.715" transform="translate(28.142 34.525)" fill="none" stroke="#b7bcbe" stroke-miterlimit="10" stroke-width="3"/>
  </g>
</svg>
