<svg id="Group_1" data-name="Group 1" xmlns="http://www.w3.org/2000/svg" width="75" height="69.268" viewBox="0 0 75 69.268">
  <path id="Path_3142" data-name="Path 3142" d="M48.031,60.336H5.449A3.957,3.957,0,0,1,1.5,56.387V5.449A3.957,3.957,0,0,1,5.449,1.5H69.494a3.957,3.957,0,0,1,3.949,3.949V50.034" fill="none" stroke="#258199" stroke-linecap="round" stroke-linejoin="round" stroke-miterlimit="10" stroke-width="3"/>
  <path id="Path_3143" data-name="Path 3143" d="M17.374,14.587a.687.687,0,1,0-.687.687A.7.7,0,0,0,17.374,14.587Z" transform="translate(-6.201 -5.303)" fill="none" stroke="#258199" stroke-linecap="round" stroke-linejoin="round" stroke-miterlimit="10" stroke-width="3"/>
  <path id="Path_3144" data-name="Path 3144" d="M30.874,14.587a.687.687,0,1,0-.687.687A.7.7,0,0,0,30.874,14.587Z" transform="translate(-11.975 -5.303)" fill="none" stroke="#258199" stroke-linecap="round" stroke-linejoin="round" stroke-miterlimit="10" stroke-width="3"/>
  <path id="Path_3145" data-name="Path 3145" d="M44.374,14.587a.687.687,0,1,0-.687.687A.739.739,0,0,0,44.374,14.587Z" transform="translate(-17.748 -5.303)" fill="none" stroke="#258199" stroke-linecap="round" stroke-linejoin="round" stroke-miterlimit="10" stroke-width="3"/>
  <line id="Line_29" data-name="Line 29" x2="72" transform="translate(1.5 17.182)" fill="none" stroke="#258199" stroke-linecap="round" stroke-linejoin="round" stroke-miterlimit="10" stroke-width="3"/>
  <line id="Line_30" data-name="Line 30" x2="28.674" transform="translate(37.843 9.341)" fill="none" stroke="#258199" stroke-linecap="round" stroke-linejoin="round" stroke-miterlimit="10" stroke-width="3"/>
  <g id="Group_3634" data-name="Group 3634" transform="translate(8.425 52.552)">
    <line id="Line_31" data-name="Line 31" y2="2.919" transform="translate(0)" fill="none" stroke="#258199" stroke-linecap="round" stroke-linejoin="round" stroke-miterlimit="10" stroke-width="3"/>
    <line id="Line_32" data-name="Line 32" y2="2.919" transform="translate(3.606)" fill="none" stroke="#258199" stroke-linecap="round" stroke-linejoin="round" stroke-miterlimit="10" stroke-width="3"/>
    <line id="Line_33" data-name="Line 33" x2="27.987" transform="translate(8.642 1.431)" fill="none" stroke="#258199" stroke-linecap="round" stroke-linejoin="round" stroke-miterlimit="10" stroke-width="3"/>
  </g>
  <g id="Group_3636" data-name="Group 3636" transform="translate(47.917 46.944)">
    <path id="Path_3146" data-name="Path 3146" d="M98.225,91.2l4.808-4.808L82.6,80.9l5.494,20.432,4.75-4.75" transform="translate(-82.6 -80.9)" fill="none" stroke="#258199" stroke-linecap="round" stroke-linejoin="round" stroke-miterlimit="10" stroke-width="3"/>
    <g id="Group_3635" data-name="Group 3635" transform="translate(14.194 14.251)">
      <line id="Line_34" data-name="Line 34" x2="6.01" y2="5.952" stroke-width="3" stroke="#258199" stroke-linecap="round" stroke-linejoin="round" stroke-miterlimit="10" fill="none"/>
    </g>
  </g>
</svg>
