<svg xmlns="http://www.w3.org/2000/svg" width="169.44" height="154.187" viewBox="0 0 169.44 154.187">
  <g id="Group_2" data-name="Group 2" transform="translate(-0.024)">
    <path id="Path_2353" data-name="Path 2353" d="M171.52,121.18c12.036-.514,17.728,9.361,18.105,16.562.377-14.333-7.852-20.917-18.311-20.917-14.025-.034-33.364,14.71-44.268,22.46C114.085,130.266,95.088,114.8,79.52,117c-10.458,1.474-15.6,10.493-15.088,20.163,1.817-8.5,5.829-14.985,15.533-15.808,13.064-1.1,30.072,14.71,39.639,23.523L105.889,156.19H123l4.046-4.218,4.218,4.183,16.768.034-13.51-11.35c8.675-7.852,25.2-22.906,37-23.66" transform="translate(-42.3 -76.74)" fill="#a59164" fill-rule="evenodd"/>
    <path id="Path_2354" data-name="Path 2354" d="M194.752,2.949C185.562,0,174.761,2.743,169,14.059c3.429-3.326,8.778-6.687,13.785-6.378-5.384,4.492-8.847,12-7.578,19.305.823-2.709,1.92-8.915,9.5-13.579-3.052,7.029-2.537,17.248,3.223,22.7a22.1,22.1,0,0,1,4.869-22.7c.1,5.178.274,17.179,3.052,22.666,2.846-6.206,2.983-13.647,2.812-22.529,6.721,5.075,7.818,16.974,4.9,22.906,6.344-6.481,6.241-16.871,3.258-22.94,4.046,1.817,8.675,8.092,9.361,13.716,1.817-9.4-2.64-15.053-7.407-19.614,4.183.137,11.281,3.12,13.716,6.549C218.172,3.875,206.822.171,196.843,2.915A16.747,16.747,0,0,0,195.746,0Z" transform="translate(-111.034)" fill="#008c64" fill-rule="evenodd"/>
    <path id="Path_2355" data-name="Path 2355" d="M186.7,125.867c7.407-5.624,17.728-1.132,24.106,3.086,12,7.887,17.865,20.951,32.438,26.472,10.527,4.012,20.951,1.372,25.135-9.053-6.652,8.332-13.236,7.99-22.529,2.195-11.761-7.338-18.517-18.345-29.627-25.683-9.6-6.412-22.22-6.892-29.524,2.983" transform="translate(-122.665 -77.69)" fill="#008c64" fill-rule="evenodd"/>
    <path id="Path_2356" data-name="Path 2356" d="M79.1,157.626l5.726,5.829,4.938-4.9,5.143,5.041,6.069-5.9-5.589-5.8-5.315,4.869L85.066,151.9Z" transform="translate(-51.961 -99.813)" fill="#008c64" fill-rule="evenodd"/>
    <path id="Path_2357" data-name="Path 2357" d="M110.635,403.306l2.366.1.034-6.652,6.961-.069v6.584l2.5.1V389.316l-2.435-.069-.034,6.309-6.961.1L113,389.282l-2.366.034Zm49.549-15.6v15.6l2.229.1.034-8.161c5.624-3.7,4.663.343,4.7,8.024l2.229.1c-.069-4.458.926-10.493-2.366-11.007-2.229-.343-3.463,1.234-4.595,1.817v-7.167A3.744,3.744,0,0,0,160.184,387.7ZM86.6,392.539c-7.029,1.886-4.629,12.79,3.018,10.973a5.877,5.877,0,0,0,4.183-7A5.676,5.676,0,0,0,86.6,392.539Zm-1.543,6.584c-1.406-6.584,5.178-8.161,6.206-2.229C92.5,403.855,86.255,404.747,85.055,399.123Zm52.5-3.12c2.572.72,1.2-1.269,2.435-2.606,2.5-1.1,3.258.686,3.189,2.983-2.5.583-6.172,1.474-6.447,4.252a2.539,2.539,0,0,0,2.3,2.983c2.229.309,2.572-.823,4.046-1.372.034.1.137.48.137.48l.343.686,1.886-.034c-.034-1.92,0-3.806,0-5.692,0-2.16.343-3.806-1.166-4.766C142.01,391.476,135.77,392.539,137.553,396Zm5.658,5.006c-1.406,1.406-4.286,2.057-4.218-.72.034-1.783,3.429-3.018,4.252-2.983Zm-119.4,2.332,2.126.069c.171-2.812-.377-7.475.48-8.367a5.222,5.222,0,0,1,2.023-1.1c3.292-.686,2.16,4.183,2.3,9.464H32.9c.206-5.178,1.2-12-3.806-10.973a7.434,7.434,0,0,0-3.086,1.852l-.1-1.783-1.989.034Zm111.271-3.84c-.411,0-.206-.1-.892.789a4.077,4.077,0,0,1-.96.926c-2.949,1.955-6.138-.034-6.172-4.218l8.058-.034c-.274-6.378-10.081-6.378-10.218,1.2a5.25,5.25,0,0,0,4.8,5.486C132.512,403.924,136.215,400.6,135.084,399.5Zm-2.743-3.532h-5.246C127.711,391.991,132.1,392.539,132.341,395.968ZM70.79,400.117,67.258,393.4c-.72-1.3-1.406-.857-2.88-.823.377,1.44,2.675,5.212,3.566,6.858,2.092,3.943,2.435,3.052,0,6.927-1.749-.034-3.669-1.406-3.5,1.406,3.943,2.537,5.658-2.743,6.927-5.555.617-1.406,3.978-8.778,3.978-9.7-1.406.034-.926-.274-2.5,3.326a24.069,24.069,0,0,1-1.92,4.115A.6.6,0,0,1,70.79,400.117Zm26.438-7.612c-1.509.034-2.195-.48-2.195.857l2.16.171.034,9.773,2.229.069V393.5l2.915-.034v-.823l-2.88-.137c-.069-2.332-.48-4.595,2.057-4.595.206.274,1.44,3.532,2.675,1.509C105.594,387.019,97.365,384.138,97.228,392.505ZM40.2,400.94c-.206.377-.069.206-.446.549,1.3,3.155,7.784,2.983,8.092-.72.171-2.023-1.337-2.915-2.812-3.566-1.68-.789-3.7-.994-3.292-3.326a2.708,2.708,0,0,1,2.915-.549c1.1.377,1.3,1.166,2.092,1.646l.686-.583c-3.738-5.349-10.7.446-6,3.6,1.132.754,5.006,1.749,4.183,3.806a2.232,2.232,0,0,1-2.709.96C41.129,402.243,41.884,401.249,40.2,400.94Zm111.854-7.578,1.783.206c.069,2.126-.24,6.584.1,8.367.583,3.018,5.075,1.543,4.766-.034l-.926.137a1.733,1.733,0,0,1-1.372,0c-.583-1.269-.514-6.927-.24-8.538.857-.069,1.646.137,2.332-.377-.377-.857.583-.411-1.029-.617-.137-.034-1.063.034-1.3,0-.206-1.166,0-2.057-.1-2.777l-.309-.926c-1.234.583-.171,2.709-2.435,3.772C152.3,393.088,152.263,392.539,152.057,393.362Zm-3.669-5.829-.034,15.842h2.195V386.95Zm-99.51,5.589c.411.411,0,.171.72.343.206.034.754.034,1.029.069.754,4.663-1.612,10.321,2.5,10.15,1.3-.069,2.4-.617,2.469-1.92-1.1.171-.309.206-1.132.377-.789.171-.514.171-1.063-.1-.789-.892-.72-6.892-.377-8.5.892-.069,1.68.137,2.332-.377-.309-.72.72-.583-2.332-.583-.343-1.543.171-2.846-.377-3.7-1.372.549-.171,2.435-2.3,3.669Zm8.161,10.218,2.229.069c-.034-1.68,0-3.36,0-5.006,0-2.846-.274-2.469,1.3-4.046,1.817-.1,1.612.96,3.326-.034.377-3.223-3.223-2.092-4.252-.171l-.446-1.577-2.092-.069Zm-37.959-10.39-.034,10.39,2.16.1.034-11.11A3.913,3.913,0,0,0,19.081,392.951Zm16.391-.1-.034,10.527,2.16.034V392.334ZM21,388.973c.446-.892.48-.789.034-1.715C18.052,386.367,18.086,389.865,21,388.973Zm14.608-.034a2.187,2.187,0,0,0,1.989-.171C38.317,386.093,34.34,386.539,35.609,388.939ZM.324,403.375l.926.034.034-11.247c.823,1.063,5.178,10.8,6.206,11.247,1.269-.72,4.766-9.773,6-11.076l.034,11.076,2.469-.034V389.419l-2.572-.137a44.637,44.637,0,0,1-2.572,5.349c-.926,1.817-1.886,3.7-2.709,5.418l-5.486-10.63L.118,389.35C.153,391.545-.225,402.346.324,403.375Z" transform="translate(0 -254.248)" fill="#a59164" fill-rule="evenodd"/>
    <path id="Path_2358" data-name="Path 2358" d="M5.983,277.312a1.693,1.693,0,0,0-1.132,2.4,1.786,1.786,0,0,0,2.469.994c1.955-.72.994-4.149-1.337-3.395m5.315.069a1.8,1.8,0,1,0,1.3,3.36C14.693,280.021,13.561,276.42,11.3,277.38Zm72.523,22.494H76.346c.446-3.943.617-7.612-1.3-10.664a7.158,7.158,0,0,0-8.813-3.017c-7.612,2.572-9.67,11.007-11.659,13.476l-.069-8.744-2.3-.069-.137,8.95-6.824.069c-.206-9.121-4.835-13.785-12.927-13.819-2.675,0-6.412-.206-8.984.034l-.069,1.955c6.138.377,19.545-2.949,19.374,11.761H13.527l-.069-15.225c-5.829-.411-11.9,1.68-13.03,8.024-1.406,7.921,8.058,11.59,9.978,7.2-2.435.034-4.389-.069-5.829-1.44C1.148,295.074,2.863,286.6,10.955,286.5c.446,3.189-.48,13.1.24,15.053.857.309,69.094.48,75.026.1l.034-27.123h-2.5Zm-9.978-.1-16.871.1C58.55,288.422,76.552,279.918,73.843,299.772ZM93.7,301.761l2.366-.034.1-27.192H93.731Zm19.785-24.346a1.708,1.708,0,0,0-.994,2.5,1.9,1.9,0,0,0,2.606.686C116.946,279.678,115.643,276.352,113.482,277.415Zm5.452-.034a1.8,1.8,0,1,0,1.269,3.36C122.158,280.089,121.266,276.455,118.934,277.38Zm2.057,24.38c.069-.48.343-15.088,0-16.631a.487.487,0,0,0-.069-.206.711.711,0,0,0-.069-.206c-2.812-.892-6.789.514-8.641,1.783-5.041,3.429-6.206,10.733-.926,14.025C113.962,302.241,117.529,301.658,120.992,301.761Zm-2.435-15.19.069,13.3c-2.4.034-4.595.069-6.172-1.2a6.045,6.045,0,0,1-1.92-5.452C110.945,289.108,114.1,286.5,118.557,286.57Zm20.094,15.19,2.332-.034.034-27.123-2.366-.1Zm10.939-24.277c-.446.24-.652.034-.96.789a1.822,1.822,0,0,0,2.606,2.332C153.122,279.643,151.716,276.352,149.59,277.483Zm-6,30.175c-.206,1.063-.206,1.132.069,1.68a7.8,7.8,0,0,0,5.8-.926c2.126-1.44,2.092-3.36,2.092-6.172V287.05l-2.435.034v12.962c0,1.886.24,4.458-.617,5.9-1.1,1.817-3.018,1.3-4.423,1.543Zm23.489-7.578c-.1,5.144.069,7.647-5.658,7.338-.1.892-.309,1.1-.034,1.886,6.447.926,8.127-2.366,8.092-7.715,0-5.384.1-10.836,0-16.185-2.5-.994-6.412.446-8.127,1.474-6.584,4.012-6.172,13.887,2.092,14.813,2.057.24,1.92-.137,2.709-.926Zm-.069-12.824.069,12.722c-2.5-.309-3.943.1-5.8-1.337C157.3,295.588,159.705,287.427,167.009,287.256ZM123.5,307.59l-.171,1.817c4.629.446,8.092-.789,8.092-5.418V287.153l-2.4.069c0,2.64.514,17.145-.583,18.894C127.4,307.658,125.587,307.178,123.5,307.59Z" transform="translate(-0.173 -180.374)" fill="#008c64" fill-rule="evenodd"/>
  </g>
</svg>
