<svg id="Group_3" data-name="Group 3" xmlns="http://www.w3.org/2000/svg" width="240.885" height="79.326" viewBox="0 0 240.885 79.326">
  <path id="Path_2537" data-name="Path 2537" d="M110.3,0H85.384C83.815,0,82.892.738,82.8,2.03s.923,2.215,2.584,2.215c3.046,0,6.091.092,9.229,0,1.108,0,1.292.277,1.292,1.292V30.457c0,1.661.738,2.492,2.03,2.492s2.03-.831,2.03-2.492V5.445c0-1.108.369-1.292,1.292-1.292,3.046.092,6,0,9.045,0,1.661,0,2.584-.738,2.492-2.123C112.795.738,111.964,0,110.3,0Z" transform="translate(-6.381 0.046)" fill="#167892"/>
  <path id="Path_2538" data-name="Path 2538" d="M147.79,28.792H126.378a2.816,2.816,0,0,1-3.138-2.953V8.21a3.9,3.9,0,0,1,3.784-3.969q7.476-.138,14.951,0a3.8,3.8,0,0,1,3.692,3.876V9.687c0,3.138-1.569,4.615-4.707,4.707H129.792a2.026,2.026,0,0,0-2.215,1.938c0,1.2.461,2.03,1.754,2.123h13.106a7.526,7.526,0,0,0,4.707-2.03c3.046-2.677,3.323-8.03,2.03-11.26A7.6,7.6,0,0,0,142.714.088c-5.538-.185-10.983-.185-16.52,0a7.974,7.974,0,0,0-7.2,7.753c-.092,6.091-.092,12.275,0,18.366a7.019,7.019,0,0,0,7.014,6.737h21.6a1.985,1.985,0,0,0,2.123-2.123C149.912,29.622,149.082,28.884,147.79,28.792Z" transform="translate(-9.165 0.05)" fill="#167892"/>
  <path id="Path_2539" data-name="Path 2539" d="M257.215,8.122A8.1,8.1,0,0,0,249,0h-20.12c-1.846,0-2.584.646-2.584,2.492,0,7.753-.092,15.6,0,23.35a6.788,6.788,0,0,0,6.184,6.922c.461,0,.923.092,1.384.092h20.4c.461,0,.831-.092,1.292-.092a1.957,1.957,0,0,0,1.569-2.215C257.307,23.166,257.307,15.69,257.215,8.122ZM230.542,25.381V5.261c0-.831.185-1.108,1.108-1.108H249a4.116,4.116,0,0,1,4.153,4.061V27.688c0,.923-.369,1.108-1.108,1.108H233.957C231.65,28.8,230.542,27.6,230.542,25.381Z" transform="translate(-17.437 0.046)" fill="#167892"/>
  <path id="Path_2540" data-name="Path 2540" d="M217.9,28.811H201.468c-2.953,0-4.615-1.661-4.615-4.615V5.83c0-1.2.277-1.569,1.477-1.477,6.461.092,12.829,0,19.289,0a2.288,2.288,0,0,0,2.492-1.477C220.573,1.4,219.557.2,217.711.2H195.93c-2.676,0-3.23.554-3.23,3.23V23.366c0,.923.092,1.938.185,2.861a8.127,8.127,0,0,0,7.107,6.83c4.061.277,8.122.092,12.183.092a50.55,50.55,0,0,0,6.461-.092,1.852,1.852,0,0,0,1.569-2.307A2.087,2.087,0,0,0,217.9,28.811Z" transform="translate(-14.851 0.031)" fill="#167892"/>
  <path id="Path_2541" data-name="Path 2541" d="M183.9,0H158.984c-1.661,0-2.584.831-2.584,2.123s.923,2.03,2.492,2.03c2.953,0,6,.092,8.952,0,1.2,0,1.477.277,1.477,1.477-.092,8.306,0,16.52,0,24.827,0,1.2.369,2.123,1.569,2.4a1.81,1.81,0,0,0,2.4-1.292h0c.369-.554.185-1.108.185-1.661V5.353c0-.923.185-1.2,1.107-1.2,3.046.092,6.091,0,9.229,0,1.661,0,2.584-.831,2.584-2.123S185.472,0,183.9,0Z" transform="translate(-12.054 0.046)" fill="#167892"/>
  <g id="Group_2677" data-name="Group 2677" transform="translate(0.092 0.046)">
    <g id="Group_2676" data-name="Group 2676">
      <path id="Path_2542" data-name="Path 2542" d="M56.03,0H41.447A10.29,10.29,0,0,0,37.11,1.292a29.845,29.845,0,0,0-9.322,7.66h3.138C29.08,7.291,27.234,5.538,25.3,3.969a14.939,14.939,0,0,0-6.368-2.953C15.328.277,11.637.738,7.945.738,6.1.738,4.253.738,2.407.554A2.328,2.328,0,0,0,.1,2.769v27.6a2.246,2.246,0,0,0,2.215,2.215H15.974c.461,0-.277-.092.092,0a15.889,15.889,0,0,1,7.66,4.522c1.015.923,1.938,1.846,2.953,2.769a7.443,7.443,0,0,0,1.292,1.108c1.938,1.108,3.969-1.477,5.261-2.677s2.584-2.307,3.784-3.507l.277-.277.369-.369c.092-.092.646-.554.461-.369a5.247,5.247,0,0,1,3.6-1.292c4.707.277,9.506.369,14.213.369,2.861,0,2.861-4.522,0-4.43-4.338,0-8.676.092-13.013-.277a10.233,10.233,0,0,0-4.43.369,12.976,12.976,0,0,0-3.876,2.4c-.923.831-1.846,1.754-2.769,2.584-1.477,1.292-2.861,2.677-4.338,3.969.554-.185,1.015-.461,1.569-.646h0c.554.185,1.015.461,1.569.646-3.876-3.692-7.66-7.845-13.106-9.137a15.063,15.063,0,0,0-4.061-.277H2.223l2.215,2.215V6.091a18.981,18.981,0,0,0,.185-3.323L2.407,4.984a29.237,29.237,0,0,0,4.061.185h4.707a28.683,28.683,0,0,1,5.63,0,11.607,11.607,0,0,1,5.538,2.123h0c.092.092.185.092.277.185s.185.185.277.185a10.105,10.105,0,0,1,1.015.923c1.292,1.2,2.677,2.307,3.969,3.507a2.287,2.287,0,0,0,3.138,0,30.043,30.043,0,0,1,7.845-6.645,5.441,5.441,0,0,0,.738-.369c.554-.277-.277.092.277-.092.369-.092.738-.277,1.108-.369.277-.092.554-.092.738-.185h14.4C58.891,4.43,58.891,0,56.03,0Z" transform="translate(-0.1)" fill="#167892"/>
      <path id="Path_2543" data-name="Path 2543" d="M44.021,22.63H56.942c2.861,0,2.861-4.43,0-4.43H44.021C41.16,18.2,41.16,22.63,44.021,22.63Z" transform="translate(-3.32 -1.403)" fill="#e85049"/>
      <path id="Path_2544" data-name="Path 2544" d="M48.221,13.53H61.142c2.861,0,2.861-4.43,0-4.43H48.221C45.36,9.1,45.36,13.53,48.221,13.53Z" transform="translate(-3.643 -0.701)" fill="#009b7c"/>
      <path id="Path_2545" data-name="Path 2545" d="M65.815,22.63h3.138a2.186,2.186,0,0,0,2.215-2.215A2.31,2.31,0,0,0,68.953,18.2H65.815A2.186,2.186,0,0,0,63.6,20.415,2.31,2.31,0,0,0,65.815,22.63Z" transform="translate(-4.993 -1.403)" fill="#f39432"/>
      <path id="Path_2546" data-name="Path 2546" d="M68.021,35.33h6c2.861,0,2.861-4.43,0-4.43h-6C65.16,30.9,65.16,35.33,68.021,35.33Z" transform="translate(-5.169 -2.381)" fill="#66b259"/>
    </g>
  </g>
  <g id="Group_2678" data-name="Group 2678" transform="translate(0.461 48.315)">
    <path id="Path_2547" data-name="Path 2547" d="M9.637,63.538a1.518,1.518,0,0,1-.923-.185,1.71,1.71,0,0,1-.646-.738h0a2.618,2.618,0,0,1-.831.923,3.082,3.082,0,0,1-1.384.277,3.7,3.7,0,0,1-1.384-.277,8.249,8.249,0,0,1-1.477-.831,4.5,4.5,0,0,0-.646.277.921.921,0,0,0-.369.461A.99.99,0,0,0,1.792,64v5.445H.5V64.922A5.676,5.676,0,0,1,.592,63.63c.092-.369.185-.646.277-.923a2.488,2.488,0,0,1,.646-.738,10.066,10.066,0,0,1,1.015-.554,4.411,4.411,0,0,1,.554-1.661,3.487,3.487,0,0,1,.831-1.108,1.915,1.915,0,0,1,.923-.554c.369,0,.646-.092.923-.092a3.318,3.318,0,0,1,1.015.185,5.072,5.072,0,0,1,.831.646,3.072,3.072,0,0,1,.554.923,4.676,4.676,0,0,1,.185,1.2v.369a2.01,2.01,0,0,0,.461.738,1.225,1.225,0,0,0,.923.277.489.489,0,0,1,.554.554c0,.277-.092.461-.185.461C10.006,63.538,9.914,63.538,9.637,63.538ZM7.145,60.953a1.571,1.571,0,0,0-.092-.646l-.277-.554a.921.921,0,0,0-.461-.369,1.334,1.334,0,0,0-.646-.185,1.625,1.625,0,0,0-1.2.554,3.793,3.793,0,0,0-.923,1.938,3.119,3.119,0,0,0,1.108.554,2.341,2.341,0,0,0,1.108.185,1.261,1.261,0,0,0,1.015-.369A1.56,1.56,0,0,0,7.145,60.953Z" transform="translate(-0.5 -52.739)" fill="#36606e"/>
    <path id="Path_2548" data-name="Path 2548" d="M10.354,63.908a.489.489,0,0,1-.554-.554c0-.277.092-.461.185-.461a.692.692,0,0,1,.461-.092h2.215a.489.489,0,0,1,.554.554c0,.277-.092.461-.185.461-.092.092-.185.092-.461.092Z" transform="translate(-1.217 -53.109)" fill="#36606e"/>
    <path id="Path_2549" data-name="Path 2549" d="M12.754,63.908a.489.489,0,0,1-.554-.554c0-.277.092-.461.185-.461a.692.692,0,0,1,.461-.092h2.215a.489.489,0,0,1,.554.554c0,.277-.092.461-.185.461a.692.692,0,0,1-.461.092Z" transform="translate(-1.402 -53.109)" fill="#36606e"/>
    <path id="Path_2550" data-name="Path 2550" d="M15.154,63.908a.489.489,0,0,1-.554-.554c0-.277.092-.461.185-.461a.692.692,0,0,1,.461-.092h2.215a.489.489,0,0,1,.554.554c0,.277-.092.461-.185.461a.692.692,0,0,1-.461.092Z" transform="translate(-1.587 -53.109)" fill="#36606e"/>
    <path id="Path_2551" data-name="Path 2551" d="M17.554,63.908A.489.489,0,0,1,17,63.354c0-.277.092-.461.185-.461a.692.692,0,0,1,.461-.092h2.123a.489.489,0,0,1,.554.554c0,.277-.092.461-.185.461,0,.092-.185.092-.369.092Z" transform="translate(-1.772 -53.109)" fill="#36606e"/>
    <path id="Path_2552" data-name="Path 2552" d="M19.954,63.908a.489.489,0,0,1-.554-.554c0-.277.092-.461.185-.461a.692.692,0,0,1,.461-.092h2.215a.489.489,0,0,1,.554.554c0,.277-.092.461-.185.461a.692.692,0,0,1-.461.092Z" transform="translate(-1.957 -53.109)" fill="#36606e"/>
    <path id="Path_2553" data-name="Path 2553" d="M22.354,63.908a.489.489,0,0,1-.554-.554c0-.277.092-.461.185-.461a.692.692,0,0,1,.461-.092h2.215a.489.489,0,0,1,.554.554c0,.277-.092.461-.185.461a1,1,0,0,1-.554.092Z" transform="translate(-2.142 -53.109)" fill="#36606e"/>
    <path id="Path_2554" data-name="Path 2554" d="M24.654,63.908a.489.489,0,0,1-.554-.554c0-.277.092-.461.185-.461a.692.692,0,0,1,.461-.092h2.215a.489.489,0,0,1,.554.554c0,.277-.092.461-.185.461-.092.092-.185.092-.461.092Z" transform="translate(-2.319 -53.109)" fill="#36606e"/>
    <path id="Path_2555" data-name="Path 2555" d="M27.054,63.908a.489.489,0,0,1-.554-.554c0-.277.092-.461.185-.461a.692.692,0,0,1,.461-.092h2.215a.489.489,0,0,1,.554.554c0,.277-.092.461-.185.461a.692.692,0,0,1-.461.092Z" transform="translate(-2.504 -53.109)" fill="#36606e"/>
    <path id="Path_2556" data-name="Path 2556" d="M29.454,63.908a.489.489,0,0,1-.554-.554c0-.277.092-.461.185-.461a.692.692,0,0,1,.461-.092h2.215a.489.489,0,0,1,.554.554c0,.277-.092.461-.185.461a.692.692,0,0,1-.461.092Z" transform="translate(-2.689 -53.109)" fill="#36606e"/>
    <path id="Path_2557" data-name="Path 2557" d="M31.854,63.908a.489.489,0,0,1-.554-.554c0-.277.092-.461.185-.461a.692.692,0,0,1,.461-.092h2.215a.489.489,0,0,1,.554.554c0,.277-.092.461-.185.461a.692.692,0,0,1-.461.092Z" transform="translate(-2.874 -53.109)" fill="#36606e"/>
    <path id="Path_2558" data-name="Path 2558" d="M34.254,63.908a.489.489,0,0,1-.554-.554c0-.277.092-.461.185-.461a.692.692,0,0,1,.461-.092h2.215a.489.489,0,0,1,.554.554c0,.277-.092.461-.185.461a.692.692,0,0,1-.461.092Z" transform="translate(-3.059 -53.109)" fill="#36606e"/>
    <path id="Path_2559" data-name="Path 2559" d="M36.654,63.908a.489.489,0,0,1-.554-.554c0-.277.092-.461.185-.461a.692.692,0,0,1,.461-.092h2.03a.489.489,0,0,1,.554.554c0,.277-.092.461-.185.461,0,.092-.092.092-.369.092Z" transform="translate(-3.244 -53.109)" fill="#36606e"/>
    <path id="Path_2560" data-name="Path 2560" d="M38.954,63.908a.489.489,0,0,1-.554-.554c0-.277.092-.461.185-.461a.692.692,0,0,1,.461-.092h2.215a.489.489,0,0,1,.554.554c0,.277-.092.461-.185.461-.092.092-.185.092-.461.092Z" transform="translate(-3.421 -53.109)" fill="#36606e"/>
    <path id="Path_2561" data-name="Path 2561" d="M41.354,63.908a.489.489,0,0,1-.554-.554c0-.277.092-.461.185-.461a.692.692,0,0,1,.461-.092h2.215a.489.489,0,0,1,.554.554c0,.277-.092.461-.185.461a.692.692,0,0,1-.461.092Z" transform="translate(-3.606 -53.109)" fill="#36606e"/>
    <path id="Path_2562" data-name="Path 2562" d="M43.754,63.908a.489.489,0,0,1-.554-.554c0-.277.092-.461.185-.461a.692.692,0,0,1,.461-.092h2.215a.489.489,0,0,1,.554.554c0,.277-.092.461-.185.461a.692.692,0,0,1-.461.092Z" transform="translate(-3.791 -53.109)" fill="#36606e"/>
    <path id="Path_2563" data-name="Path 2563" d="M46.154,63.908a.489.489,0,0,1-.554-.554c0-.277.092-.461.185-.461a.692.692,0,0,1,.461-.092h2.215a.489.489,0,0,1,.554.554c0,.277-.092.461-.185.461a.692.692,0,0,1-.461.092Z" transform="translate(-3.976 -53.109)" fill="#36606e"/>
    <path id="Path_2564" data-name="Path 2564" d="M48.554,63.908A.489.489,0,0,1,48,63.354c0-.277.092-.461.185-.461a.692.692,0,0,1,.461-.092h2.123a.489.489,0,0,1,.554.554c0,.277-.092.461-.185.461,0,.092-.185.092-.369.092Z" transform="translate(-4.161 -53.109)" fill="#36606e"/>
    <path id="Path_2565" data-name="Path 2565" d="M50.954,63.908a.489.489,0,0,1-.554-.554c0-.277.092-.461.185-.461a.692.692,0,0,1,.461-.092h2.215a.489.489,0,0,1,.554.554c0,.277-.092.461-.185.461a1,1,0,0,1-.554.092Z" transform="translate(-4.346 -53.109)" fill="#36606e"/>
    <path id="Path_2566" data-name="Path 2566" d="M53.254,63.53a.489.489,0,0,1-.554-.554c0-.277.092-.461.185-.461a.692.692,0,0,1,.461-.092h1.661c.185,0,.277-.092.461-.185a1.274,1.274,0,0,0,.277-.369,1.171,1.171,0,0,0,.092-.554V57.9h1.2v2.861a1.368,1.368,0,0,0,.092.646,1.312,1.312,0,0,0,.185.554c.092.185.277.277.369.369a1.368,1.368,0,0,0,.646.092.489.489,0,0,1,.554.554c0,.277-.092.461-.185.461a1,1,0,0,1-.554.092,1.378,1.378,0,0,1-.923-.277,1.068,1.068,0,0,1-.461-.646,1.811,1.811,0,0,1-.831.831,6.112,6.112,0,0,1-1.384.092Zm1.2,2.307a1.312,1.312,0,0,1,.185-.554.678.678,0,0,1,.554-.185,1.312,1.312,0,0,1,.554.185.678.678,0,0,1,.185.554,1.312,1.312,0,0,1-.185.554.678.678,0,0,1-.554.185.653.653,0,0,1-.738-.738Zm1.938,0a1.312,1.312,0,0,1,.185-.554.678.678,0,0,1,.554-.185,1.312,1.312,0,0,1,.554.185.678.678,0,0,1,.185.554,1.312,1.312,0,0,1-.185.554.678.678,0,0,1-.554.185.653.653,0,0,1-.738-.738Z" transform="translate(-4.523 -52.732)" fill="#36606e"/>
    <path id="Path_2567" data-name="Path 2567" d="M58.554,63.908A.489.489,0,0,1,58,63.354c0-.277.092-.461.185-.461a.692.692,0,0,1,.461-.092h2.123a.489.489,0,0,1,.554.554c0,.277-.092.461-.185.461,0,.092-.185.092-.369.092Z" transform="translate(-4.931 -53.109)" fill="#36606e"/>
    <path id="Path_2568" data-name="Path 2568" d="M60.954,63.121a.489.489,0,0,1-.554-.554c0-.277.092-.461.185-.461a.692.692,0,0,1,.461-.092h1.661a.653.653,0,0,0,.554-.554,1.171,1.171,0,0,0,.092-.554V52.6h1.2v7.753a2.309,2.309,0,0,0,.277,1.2,1.191,1.191,0,0,0,1.015.461.489.489,0,0,1,.554.554c0,.277-.092.461-.185.461-.092.092-.185.092-.461.092a1.378,1.378,0,0,1-.923-.277,1.068,1.068,0,0,1-.461-.646,1.811,1.811,0,0,1-.831.831,6.423,6.423,0,0,1-1.477.185H60.954Z" transform="translate(-5.116 -52.323)" fill="#36606e"/>
    <path id="Path_2569" data-name="Path 2569" d="M66.154,63.908a.489.489,0,0,1-.554-.554c0-.277.092-.461.185-.461a.692.692,0,0,1,.461-.092h2.215a.489.489,0,0,1,.554.554c0,.277-.092.461-.185.461a.692.692,0,0,1-.461.092Z" transform="translate(-5.517 -53.109)" fill="#36606e"/>
    <path id="Path_2570" data-name="Path 2570" d="M68.554,63.514A.489.489,0,0,1,68,62.961c0-.277.092-.461.185-.461a.692.692,0,0,1,.461-.092h.646a4.494,4.494,0,0,0,1.108-.092,3.272,3.272,0,0,0,1.015-.277l-1.846-2.123c0-.092.092-.185.092-.369a.7.7,0,0,1,.185-.369c.092-.092.092-.185.185-.277s.092-.185.185-.185a4.638,4.638,0,0,1,1.108-.738A3.826,3.826,0,0,1,72.8,57.7a3.442,3.442,0,0,1,1.108.185,3.741,3.741,0,0,1,.831.461,2.447,2.447,0,0,1,.461.554,1.711,1.711,0,0,1,.185.646,3.4,3.4,0,0,1-.461,1.569,4.3,4.3,0,0,1-1.292,1.292c.185,0,.461.092.738.092h2.123a.489.489,0,0,1,.554.554c0,.277-.092.461-.185.461H73.907a2.555,2.555,0,0,1-.831-.092,3.741,3.741,0,0,1-.831-.461,6.917,6.917,0,0,1-1.477.461,7.46,7.46,0,0,1-1.477.092Zm4.153-4.707a2.457,2.457,0,0,0-1.108.277,2.01,2.01,0,0,0-.831.646l1.846,1.938a5.752,5.752,0,0,0,1.108-.831,1.683,1.683,0,0,0,.461-1.015.8.8,0,0,0-.369-.646A1.471,1.471,0,0,0,72.707,58.808Z" transform="translate(-5.702 -52.716)" fill="#36606e"/>
    <path id="Path_2571" data-name="Path 2571" d="M77.054,63.252A.489.489,0,0,1,76.5,62.7c0-.277.092-.461.185-.461a.692.692,0,0,1,.461-.092h1.661c.185,0,.277-.092.461-.185a1.275,1.275,0,0,0,.277-.369,1.171,1.171,0,0,0,.092-.554V57.623h1.015v2.861a1.369,1.369,0,0,0,.092.646,1.312,1.312,0,0,0,.185.554c.092.185.277.277.369.369a1.368,1.368,0,0,0,.646.092.489.489,0,0,1,.554.554c0,.277-.092.461-.185.461,0,.092-.185.092-.369.092a1.378,1.378,0,0,1-.923-.277,1.068,1.068,0,0,1-.461-.646,1.811,1.811,0,0,1-.831.831,6.111,6.111,0,0,1-1.384.092Zm1.2-8.214a1.312,1.312,0,0,1,.185-.554.678.678,0,0,1,.554-.185,1.312,1.312,0,0,1,.554.185.678.678,0,0,1,.185.554,1.312,1.312,0,0,1-.185.554.678.678,0,0,1-.554.185,1.312,1.312,0,0,1-.554-.185A.78.78,0,0,1,78.254,55.038Zm1.938,0a1.312,1.312,0,0,1,.185-.554.678.678,0,0,1,.554-.185,1.312,1.312,0,0,1,.554.185.678.678,0,0,1,.185.554,1.312,1.312,0,0,1-.185.554.678.678,0,0,1-.554.185,1.312,1.312,0,0,1-.554-.185A.78.78,0,0,1,80.192,55.038Z" transform="translate(-6.357 -52.454)" fill="#36606e"/>
    <path id="Path_2572" data-name="Path 2572" d="M82.354,63.114a.489.489,0,0,1-.554-.554c0-.277.092-.461.185-.461a.692.692,0,0,1,.461-.092h2.307V52.5h1.2V63.114Z" transform="translate(-6.766 -52.315)" fill="#36606e"/>
    <path id="Path_2573" data-name="Path 2573" d="M89.7,52.5V63.114H88.5V52.5Z" transform="translate(-7.282 -52.315)" fill="#36606e"/>
    <path id="Path_2574" data-name="Path 2574" d="M107.39,63.33H98.346a7.46,7.46,0,0,1-1.477-.092,2.764,2.764,0,0,1-.923-.369,1.068,1.068,0,0,1-.461-.646,3.318,3.318,0,0,1-.185-1.015V58.9h1.2v1.846a1.8,1.8,0,0,0,.092.738,1.62,1.62,0,0,0,.369.461,1.739,1.739,0,0,0,.738.185h8.4V57.607h1.2V63.33Zm-7.66-7.291a1.312,1.312,0,0,1,.185-.554.678.678,0,0,1,.554-.185,1.312,1.312,0,0,1,.554.185.678.678,0,0,1,.185.554,1.312,1.312,0,0,1-.185.554.678.678,0,0,1-.554.185.653.653,0,0,1-.738-.738Zm1.938,0a1.312,1.312,0,0,1,.185-.554.678.678,0,0,1,.554-.185,1.312,1.312,0,0,1,.554.185.678.678,0,0,1,.185.554,1.312,1.312,0,0,1-.185.554.678.678,0,0,1-.554.185.653.653,0,0,1-.738-.738Z" transform="translate(-7.806 -52.531)" fill="#36606e"/>
    <path id="Path_2575" data-name="Path 2575" d="M113.838,62.452c0,.277-.092.461-.185.461a.692.692,0,0,1-.461.092h-.369a2.292,2.292,0,0,1-.831-.092,1.487,1.487,0,0,1-.646-.369,1.656,1.656,0,0,1-.461-.646,2.849,2.849,0,0,1-.185-1.015V52.3h1.2v8.214a1.986,1.986,0,0,0,.185.923c.092.185.461.277.831.277h.277C113.561,61.9,113.838,62.083,113.838,62.452Z" transform="translate(-8.993 -52.3)" fill="#36606e"/>
    <path id="Path_2576" data-name="Path 2576" d="M113.354,63.908a.489.489,0,0,1-.554-.554c0-.277.092-.461.185-.461a.692.692,0,0,1,.461-.092h2.215a.489.489,0,0,1,.554.554c0,.277-.092.461-.185.461a.692.692,0,0,1-.461.092Z" transform="translate(-9.155 -53.109)" fill="#36606e"/>
    <path id="Path_2577" data-name="Path 2577" d="M115.754,63.908a.489.489,0,0,1-.554-.554c0-.277.092-.461.185-.461a.692.692,0,0,1,.461-.092h2.215a.489.489,0,0,1,.554.554c0,.277-.092.461-.185.461a.692.692,0,0,1-.461.092Z" transform="translate(-9.34 -53.109)" fill="#36606e"/>
    <path id="Path_2578" data-name="Path 2578" d="M118.154,63.908a.489.489,0,0,1-.554-.554c0-.277.092-.461.185-.461a.692.692,0,0,1,.461-.092h2.215a.489.489,0,0,1,.554.554c0,.277-.092.461-.185.461a.692.692,0,0,1-.461.092Z" transform="translate(-9.525 -53.109)" fill="#36606e"/>
    <path id="Path_2579" data-name="Path 2579" d="M120.554,63.908a.489.489,0,0,1-.554-.554c0-.277.092-.461.185-.461a.692.692,0,0,1,.461-.092h2.215a.489.489,0,0,1,.554.554c0,.277-.092.461-.185.461a.692.692,0,0,1-.461.092Z" transform="translate(-9.71 -53.109)" fill="#36606e"/>
    <path id="Path_2580" data-name="Path 2580" d="M122.854,63.908a.489.489,0,0,1-.554-.554c0-.277.092-.461.185-.461a.692.692,0,0,1,.461-.092h2.215a.489.489,0,0,1,.554.554c0,.277-.092.461-.185.461a.692.692,0,0,1-.461.092Z" transform="translate(-9.887 -53.109)" fill="#36606e"/>
    <path id="Path_2581" data-name="Path 2581" d="M125.254,63.908a.489.489,0,0,1-.554-.554c0-.277.092-.461.185-.461a.692.692,0,0,1,.461-.092h2.215a.489.489,0,0,1,.554.554c0,.277-.092.461-.185.461a.692.692,0,0,1-.461.092Z" transform="translate(-10.072 -53.109)" fill="#36606e"/>
    <path id="Path_2582" data-name="Path 2582" d="M127.654,63.908a.489.489,0,0,1-.554-.554c0-.277.092-.461.185-.461a.692.692,0,0,1,.461-.092h2.215a.489.489,0,0,1,.554.554c0,.277-.092.461-.185.461a.692.692,0,0,1-.461.092Z" transform="translate(-10.257 -53.109)" fill="#36606e"/>
    <path id="Path_2583" data-name="Path 2583" d="M130.054,63.908a.489.489,0,0,1-.554-.554c0-.277.092-.461.185-.461a.692.692,0,0,1,.461-.092h2.215a.489.489,0,0,1,.554.554c0,.277-.092.461-.185.461a.692.692,0,0,1-.461.092Z" transform="translate(-10.442 -53.109)" fill="#36606e"/>
    <path id="Path_2584" data-name="Path 2584" d="M132.454,63.908a.489.489,0,0,1-.554-.554c0-.277.092-.461.185-.461a.692.692,0,0,1,.461-.092h2.215a.489.489,0,0,1,.554.554c0,.277-.092.461-.185.461a.692.692,0,0,1-.461.092Z" transform="translate(-10.627 -53.109)" fill="#36606e"/>
    <path id="Path_2585" data-name="Path 2585" d="M134.854,63.908a.489.489,0,0,1-.554-.554c0-.277.092-.461.185-.461a.692.692,0,0,1,.461-.092h2.215a.489.489,0,0,1,.554.554c0,.277-.092.461-.185.461a.692.692,0,0,1-.461.092Z" transform="translate(-10.812 -53.109)" fill="#36606e"/>
    <path id="Path_2586" data-name="Path 2586" d="M137.254,63.908a.489.489,0,0,1-.554-.554c0-.277.092-.461.185-.461a.692.692,0,0,1,.461-.092h2.215a.489.489,0,0,1,.554.554c0,.277-.092.461-.185.461a.692.692,0,0,1-.461.092Z" transform="translate(-10.997 -53.109)" fill="#36606e"/>
    <path id="Path_2587" data-name="Path 2587" d="M139.554,63.908a.489.489,0,0,1-.554-.554c0-.277.092-.461.185-.461a.692.692,0,0,1,.461-.092h2.215a.489.489,0,0,1,.554.554c0,.277-.092.461-.185.461a.692.692,0,0,1-.461.092Z" transform="translate(-11.174 -53.109)" fill="#36606e"/>
    <path id="Path_2588" data-name="Path 2588" d="M141.954,63.908a.489.489,0,0,1-.554-.554c0-.277.092-.461.185-.461a.692.692,0,0,1,.461-.092h2.215a.489.489,0,0,1,.554.554c0,.277-.092.461-.185.461a.692.692,0,0,1-.461.092Z" transform="translate(-11.359 -53.109)" fill="#36606e"/>
    <path id="Path_2589" data-name="Path 2589" d="M144.354,63.908a.489.489,0,0,1-.554-.554c0-.277.092-.461.185-.461a.692.692,0,0,1,.461-.092h2.215a.489.489,0,0,1,.554.554c0,.277-.092.461-.185.461a.692.692,0,0,1-.461.092Z" transform="translate(-11.544 -53.109)" fill="#36606e"/>
    <path id="Path_2590" data-name="Path 2590" d="M146.754,63.53a.489.489,0,0,1-.554-.554c0-.277.092-.461.185-.461a.692.692,0,0,1,.461-.092h1.661c.185,0,.277-.092.462-.185a1.275,1.275,0,0,0,.277-.369,1.171,1.171,0,0,0,.092-.554V57.9h1.2v2.861a1.369,1.369,0,0,0,.092.646,1.312,1.312,0,0,0,.185.554c.092.185.277.277.369.369a1.368,1.368,0,0,0,.646.092.489.489,0,0,1,.554.554c0,.277-.092.461-.185.461a.692.692,0,0,1-.461.092,1.378,1.378,0,0,1-.923-.277,1.068,1.068,0,0,1-.461-.646,1.811,1.811,0,0,1-.831.831,5.586,5.586,0,0,1-1.384.185h-1.384Zm1.2,2.307a1.312,1.312,0,0,1,.185-.554.678.678,0,0,1,.554-.185,1.312,1.312,0,0,1,.554.185.678.678,0,0,1,.185.554,1.312,1.312,0,0,1-.185.554.678.678,0,0,1-.554.185,1.312,1.312,0,0,1-.554-.185A.678.678,0,0,1,147.954,65.837Zm1.846,0a1.312,1.312,0,0,1,.185-.554.678.678,0,0,1,.554-.185,1.312,1.312,0,0,1,.554.185.678.678,0,0,1,.185.554,1.312,1.312,0,0,1-.185.554.678.678,0,0,1-.554.185.653.653,0,0,1-.738-.738Z" transform="translate(-11.729 -52.732)" fill="#36606e"/>
    <path id="Path_2591" data-name="Path 2591" d="M152.054,63.908a.489.489,0,0,1-.554-.554c0-.277.092-.461.185-.461a.692.692,0,0,1,.461-.092h2.215a.489.489,0,0,1,.554.554c0,.277-.092.461-.185.461a.692.692,0,0,1-.461.092Z" transform="translate(-12.137 -53.109)" fill="#36606e"/>
    <path id="Path_2592" data-name="Path 2592" d="M154.354,63.252a.489.489,0,0,1-.554-.554c0-.277.092-.461.185-.461a.692.692,0,0,1,.461-.092h1.661c.185,0,.277-.092.461-.185a1.274,1.274,0,0,0,.277-.369,1.171,1.171,0,0,0,.092-.554V57.623h1.2v2.861a1.368,1.368,0,0,0,.092.646,1.312,1.312,0,0,0,.185.554c.092.185.277.277.369.369a1.368,1.368,0,0,0,.646.092.489.489,0,0,1,.554.554c0,.277-.092.461-.185.461a.692.692,0,0,1-.461.092,1.378,1.378,0,0,1-.923-.277,1.068,1.068,0,0,1-.461-.646,1.811,1.811,0,0,1-.831.831,5.586,5.586,0,0,1-1.384.185h-1.384Zm2.307-8.214a1.312,1.312,0,0,1,.185-.554.678.678,0,0,1,.554-.185,1.312,1.312,0,0,1,.554.185.678.678,0,0,1,.185.554,1.312,1.312,0,0,1-.185.554.678.678,0,0,1-.554.185,1.312,1.312,0,0,1-.554-.185C156.661,55.5,156.661,55.315,156.661,55.038Z" transform="translate(-12.315 -52.454)" fill="#36606e"/>
    <path id="Path_2593" data-name="Path 2593" d="M159.654,63.908a.489.489,0,0,1-.554-.554c0-.277.092-.461.185-.461a.692.692,0,0,1,.461-.092h2.215a.489.489,0,0,1,.554.554c0,.277-.092.461-.185.461a.692.692,0,0,1-.461.092Z" transform="translate(-12.723 -53.109)" fill="#36606e"/>
    <path id="Path_2594" data-name="Path 2594" d="M162.054,63.252a.489.489,0,0,1-.554-.554c0-.277.092-.461.185-.461a.692.692,0,0,1,.461-.092h1.661c-.092-.185-.185-.461-.277-.646a2.555,2.555,0,0,1-.092-.831,4.634,4.634,0,0,1,.185-1.108,2.2,2.2,0,0,1,.554-1.015,3.614,3.614,0,0,1,.923-.738,2.68,2.68,0,0,1,1.292-.277,3.082,3.082,0,0,1,1.384.277,2.179,2.179,0,0,1,.831.738,3.412,3.412,0,0,1,.461,1.015,4.493,4.493,0,0,1,.092,1.108v1.569h1.108a.489.489,0,0,1,.554.554c0,.277-.092.461-.185.461a.692.692,0,0,1-.461.092h-8.122Zm2.307-8.214a1.312,1.312,0,0,1,.185-.554.678.678,0,0,1,.554-.185,1.312,1.312,0,0,1,.554.185.678.678,0,0,1,.185.554,1.312,1.312,0,0,1-.185.554.678.678,0,0,1-.554.185,1.312,1.312,0,0,1-.554-.185C164.361,55.5,164.361,55.315,164.361,55.038Zm.185,5.261a1.437,1.437,0,0,0,.554,1.292,2.205,2.205,0,0,0,1.292.461h1.384V60.576a2.032,2.032,0,0,0-.092-.738.838.838,0,0,0-.277-.646,1.112,1.112,0,0,0-.461-.461,1.843,1.843,0,0,0-.831-.185,1.371,1.371,0,0,0-1.2.554A1.7,1.7,0,0,0,164.546,60.3Zm1.754-5.261a1.312,1.312,0,0,1,.185-.554.678.678,0,0,1,.554-.185,1.312,1.312,0,0,1,.554.185.678.678,0,0,1,.185.554,1.312,1.312,0,0,1-.185.554.678.678,0,0,1-.554.185,1.312,1.312,0,0,1-.554-.185C166.3,55.5,166.3,55.315,166.3,55.038Z" transform="translate(-12.908 -52.454)" fill="#36606e"/>
    <path id="Path_2595" data-name="Path 2595" d="M170.754,63.252a.489.489,0,0,1-.554-.554c0-.277.092-.461.185-.461a.692.692,0,0,1,.461-.092h1.661c.185,0,.277-.092.461-.185a1.274,1.274,0,0,0,.277-.369,1.17,1.17,0,0,0,.092-.554V57.623h1.2v2.861a1.368,1.368,0,0,0,.092.646,1.312,1.312,0,0,0,.185.554c.092.185.277.277.369.369a1.368,1.368,0,0,0,.646.092.489.489,0,0,1,.554.554c0,.277-.092.461-.185.461a.692.692,0,0,1-.461.092,1.378,1.378,0,0,1-.923-.277,1.068,1.068,0,0,1-.461-.646,1.811,1.811,0,0,1-.831.831,5.586,5.586,0,0,1-1.384.185h-1.384Zm1.2-8.214a1.312,1.312,0,0,1,.185-.554.678.678,0,0,1,.554-.185,1.312,1.312,0,0,1,.554.185.678.678,0,0,1,.185.554,1.311,1.311,0,0,1-.185.554.678.678,0,0,1-.554.185,1.312,1.312,0,0,1-.554-.185A.78.78,0,0,1,171.954,55.038Zm1.938,0a1.311,1.311,0,0,1,.185-.554.678.678,0,0,1,.554-.185,1.312,1.312,0,0,1,.554.185.678.678,0,0,1,.185.554,1.312,1.312,0,0,1-.185.554.678.678,0,0,1-.554.185,1.312,1.312,0,0,1-.554-.185A.78.78,0,0,1,173.892,55.038Z" transform="translate(-13.579 -52.454)" fill="#36606e"/>
    <path id="Path_2596" data-name="Path 2596" d="M176.054,63.114a.489.489,0,0,1-.554-.554c0-.277.092-.461.185-.461a.692.692,0,0,1,.461-.092h2.307V52.5h1.2V63.114Z" transform="translate(-13.987 -52.315)" fill="#36606e"/>
    <path id="Path_2597" data-name="Path 2597" d="M190.222,63.592a2.2,2.2,0,0,1-.831-.185c-.185-.185-.369-.277-.461-.554a11.186,11.186,0,0,1-.092,1.846,3.62,3.62,0,0,1-.461,1.2,1.94,1.94,0,0,1-1.015.646,7.53,7.53,0,0,1-1.661.185v-1.2a3.442,3.442,0,0,0,1.108-.185,1.655,1.655,0,0,0,.646-.461c.092-.277.185-.554.277-.923V58.7h1.2v2.123a2.309,2.309,0,0,0,.277,1.2,1.191,1.191,0,0,0,1.015.461.489.489,0,0,1,.554.554c0,.277-.092.461-.185.461C190.592,63.592,190.407,63.592,190.222,63.592Z" transform="translate(-14.773 -52.793)" fill="#36606e"/>
    <path id="Path_2598" data-name="Path 2598" d="M190.554,63.908a.489.489,0,0,1-.554-.554c0-.277.092-.461.185-.461a.692.692,0,0,1,.461-.092h2.215a.489.489,0,0,1,.554.554c0,.277-.092.461-.185.461a.692.692,0,0,1-.461.092Z" transform="translate(-15.105 -53.109)" fill="#36606e"/>
    <path id="Path_2599" data-name="Path 2599" d="M192.954,63.908a.489.489,0,0,1-.554-.554c0-.277.092-.461.185-.461a.692.692,0,0,1,.461-.092h2.215a.489.489,0,0,1,.554.554c0,.277-.092.461-.185.461a.692.692,0,0,1-.461.092Z" transform="translate(-15.289 -53.109)" fill="#36606e"/>
    <path id="Path_2600" data-name="Path 2600" d="M195.254,63.908a.489.489,0,0,1-.554-.554c0-.277.092-.461.185-.461a.692.692,0,0,1,.462-.092h2.215a.489.489,0,0,1,.554.554c0,.277-.092.461-.185.461a.692.692,0,0,1-.461.092Z" transform="translate(-15.467 -53.109)" fill="#36606e"/>
    <path id="Path_2601" data-name="Path 2601" d="M197.654,63.908a.489.489,0,0,1-.554-.554c0-.277.092-.461.185-.461a.692.692,0,0,1,.461-.092h2.215a.489.489,0,0,1,.554.554c0,.277-.092.461-.185.461a.692.692,0,0,1-.461.092Z" transform="translate(-15.652 -53.109)" fill="#36606e"/>
    <path id="Path_2602" data-name="Path 2602" d="M200.054,63.908a.489.489,0,0,1-.554-.554c0-.277.092-.461.185-.461a.692.692,0,0,1,.461-.092h2.215a.489.489,0,0,1,.554.554c0,.277-.092.461-.185.461a.692.692,0,0,1-.461.092Z" transform="translate(-15.837 -53.109)" fill="#36606e"/>
    <path id="Path_2603" data-name="Path 2603" d="M202.454,63.908a.489.489,0,0,1-.554-.554c0-.277.092-.461.185-.461a.692.692,0,0,1,.461-.092h2.215a.489.489,0,0,1,.554.554c0,.277-.092.461-.185.461a.692.692,0,0,1-.461.092Z" transform="translate(-16.022 -53.109)" fill="#36606e"/>
    <path id="Path_2604" data-name="Path 2604" d="M204.854,63.908a.489.489,0,0,1-.554-.554c0-.277.092-.461.185-.461a.692.692,0,0,1,.461-.092h2.215a.489.489,0,0,1,.554.554c0,.277-.092.461-.185.461a.692.692,0,0,1-.461.092Z" transform="translate(-16.207 -53.109)" fill="#36606e"/>
    <path id="Path_2605" data-name="Path 2605" d="M207.254,63.908a.489.489,0,0,1-.554-.554c0-.277.092-.461.185-.461a.692.692,0,0,1,.461-.092h2.215a.489.489,0,0,1,.554.554c0,.277-.092.461-.185.461a.692.692,0,0,1-.461.092Z" transform="translate(-16.392 -53.109)" fill="#36606e"/>
    <path id="Path_2606" data-name="Path 2606" d="M209.554,63.908a.489.489,0,0,1-.554-.554c0-.277.092-.461.185-.461a.692.692,0,0,1,.461-.092h2.215a.489.489,0,0,1,.554.554c0,.277-.092.461-.185.461a.692.692,0,0,1-.461.092Z" transform="translate(-16.569 -53.109)" fill="#36606e"/>
    <path id="Path_2607" data-name="Path 2607" d="M211.954,63.908a.489.489,0,0,1-.554-.554c0-.277.092-.461.185-.461a.692.692,0,0,1,.461-.092h2.215a.489.489,0,0,1,.554.554c0,.277-.092.461-.185.461a.692.692,0,0,1-.461.092Z" transform="translate(-16.754 -53.109)" fill="#36606e"/>
    <path id="Path_2608" data-name="Path 2608" d="M214.354,63.908a.489.489,0,0,1-.554-.554c0-.277.092-.461.185-.461a.692.692,0,0,1,.461-.092h2.215a.489.489,0,0,1,.554.554c0,.277-.092.461-.185.461a.692.692,0,0,1-.461.092Z" transform="translate(-16.939 -53.109)" fill="#36606e"/>
    <path id="Path_2609" data-name="Path 2609" d="M216.754,63.908a.489.489,0,0,1-.554-.554c0-.277.092-.461.185-.461a.691.691,0,0,1,.461-.092h2.215a.489.489,0,0,1,.554.554c0,.277-.092.461-.185.461a.692.692,0,0,1-.461.092Z" transform="translate(-17.124 -53.109)" fill="#36606e"/>
    <path id="Path_2610" data-name="Path 2610" d="M219.154,63.53a.489.489,0,0,1-.554-.554c0-.277.092-.461.185-.461a.692.692,0,0,1,.461-.092h2.307V57.9h1.2v5.63Zm.554,2.307a1.312,1.312,0,0,1,.185-.554.678.678,0,0,1,.554-.185,1.312,1.312,0,0,1,.554.185.678.678,0,0,1,.185.554,1.312,1.312,0,0,1-.185.554.678.678,0,0,1-.554.185.653.653,0,0,1-.738-.738Zm1.938,0a1.312,1.312,0,0,1,.185-.554c.092-.185.369-.185.554-.185a1.312,1.312,0,0,1,.554.185.678.678,0,0,1,.185.554,1.312,1.312,0,0,1-.185.554.678.678,0,0,1-.554.185.653.653,0,0,1-.738-.738Z" transform="translate(-17.309 -52.732)" fill="#36606e"/>
    <path id="Path_2611" data-name="Path 2611" d="M230.438,63.514a3.146,3.146,0,0,1-.369,1.477,2.02,2.02,0,0,1-.831.923,3.1,3.1,0,0,1-1.292.461,10.17,10.17,0,0,1-1.661.185h-.646v-1.2h.461a5.676,5.676,0,0,0,1.292-.092,1.861,1.861,0,0,0,1.015-.277c.277-.092.461-.369.646-.554a1.378,1.378,0,0,0,.277-.923h-1.661a4.493,4.493,0,0,1-1.108-.092,2.887,2.887,0,0,1-.923-.461,1.344,1.344,0,0,1-.554-.831,2.533,2.533,0,0,1-.185-1.2,5.4,5.4,0,0,1,.185-1.2,2.967,2.967,0,0,1,1.477-1.754,2.555,2.555,0,0,1,1.2-.277,2.68,2.68,0,0,1,1.292.277,2.179,2.179,0,0,1,.831.738,4.637,4.637,0,0,1,.461,1.2,8.126,8.126,0,0,1,.185,1.569v.738h1.015a.489.489,0,0,1,.554.554c0,.277-.092.461-.185.461a.692.692,0,0,1-.461.092h-1.015Zm-4.522-2.677a1.528,1.528,0,0,0,.461,1.108,1.8,1.8,0,0,0,1.292.369h1.569V61.3a3.3,3.3,0,0,0-.369-1.754,1.308,1.308,0,0,0-1.292-.646,1.738,1.738,0,0,0-.738.185,2.447,2.447,0,0,0-.554.461,1.378,1.378,0,0,0-.277.646C226.008,60.376,225.915,60.653,225.915,60.838Z" transform="translate(-17.794 -52.716)" fill="#36606e"/>
    <path id="Path_2612" data-name="Path 2612" d="M232.054,63.908a.489.489,0,0,1-.554-.554c0-.277.092-.461.185-.461a.692.692,0,0,1,.461-.092h2.215a.489.489,0,0,1,.554.554c0,.277-.092.461-.185.461a.692.692,0,0,1-.461.092Z" transform="translate(-18.303 -53.109)" fill="#36606e"/>
    <path id="Path_2613" data-name="Path 2613" d="M234.454,63.908a.489.489,0,0,1-.554-.554c0-.277.092-.461.185-.461a.692.692,0,0,1,.461-.092h2.215a.489.489,0,0,1,.554.554c0,.277-.092.461-.185.461a.692.692,0,0,1-.461.092Z" transform="translate(-18.488 -53.109)" fill="#36606e"/>
    <path id="Path_2614" data-name="Path 2614" d="M236.854,63.908a.489.489,0,0,1-.554-.554c0-.277.092-.461.185-.461a.692.692,0,0,1,.461-.092h2.215a.489.489,0,0,1,.554.554c0,.277-.092.461-.185.461a.692.692,0,0,1-.461.092Z" transform="translate(-18.673 -53.109)" fill="#36606e"/>
    <path id="Path_2615" data-name="Path 2615" d="M239.254,63.908a.489.489,0,0,1-.554-.554c0-.277.092-.461.185-.461a.692.692,0,0,1,.461-.092h2.215a.489.489,0,0,1,.554.554c0,.277-.092.461-.185.461a.692.692,0,0,1-.461.092Z" transform="translate(-18.858 -53.109)" fill="#36606e"/>
    <path id="Path_2616" data-name="Path 2616" d="M241.554,63.908a.489.489,0,0,1-.554-.554c0-.277.092-.461.185-.461a.692.692,0,0,1,.461-.092h2.215a.489.489,0,0,1,.554.554c0,.277-.092.461-.185.461a.692.692,0,0,1-.461.092Z" transform="translate(-19.035 -53.109)" fill="#36606e"/>
    <path id="Path_2617" data-name="Path 2617" d="M243.954,63.114a.489.489,0,0,1-.554-.554c0-.277.092-.461.185-.461a.692.692,0,0,1,.461-.092h1.661V52.5h1.2v7.291a5.983,5.983,0,0,1,1.754-1.938,4.067,4.067,0,0,1,2.4-.646,2.619,2.619,0,0,1,2.215.923,3.694,3.694,0,0,1,.831,2.492v1.292h1.107a.489.489,0,0,1,.554.554c0,.277-.092.461-.185.461a.691.691,0,0,1-.461.092H243.954Zm8.952-1.2V60.9a2.845,2.845,0,0,0-.092-.923,1.854,1.854,0,0,0-.369-.738,4.012,4.012,0,0,0-.646-.554,3.318,3.318,0,0,0-1.015-.185,2.119,2.119,0,0,0-1.292.369,4.9,4.9,0,0,0-1.938,1.938,3.5,3.5,0,0,0-.554,1.2h5.907Z" transform="translate(-19.22 -52.315)" fill="#36606e"/>
    <path id="Path_2618" data-name="Path 2618" d="M256.154,63.252a.489.489,0,0,1-.554-.554c0-.277.092-.461.185-.461a.692.692,0,0,1,.461-.092h2.307V57.623h1.2v5.63Zm1.015-8.214a1.312,1.312,0,0,1,.185-.554.678.678,0,0,1,.554-.185,1.312,1.312,0,0,1,.554.185.678.678,0,0,1,.185.554,1.312,1.312,0,0,1-.185.554.678.678,0,0,1-.554.185,1.312,1.312,0,0,1-.554-.185A.78.78,0,0,1,257.169,55.038Zm1.938,0a1.312,1.312,0,0,1,.185-.554.678.678,0,0,1,.554-.185,1.312,1.312,0,0,1,.554.185.678.678,0,0,1,.185.554,1.312,1.312,0,0,1-.185.554.678.678,0,0,1-.554.185,1.312,1.312,0,0,1-.554-.185A.78.78,0,0,1,259.107,55.038Z" transform="translate(-20.16 -52.454)" fill="#36606e"/>
  </g>
  <g id="Group_2679" data-name="Group 2679" transform="translate(0 68.989)">
    <path id="Path_2619" data-name="Path 2619" d="M8.583,75.4a.245.245,0,0,1,.277.277v1.015c-.092.185-.185.185-.277.185H5.168V82.6a.245.245,0,0,1-.277.277H3.784a.245.245,0,0,1-.277-.277V76.877H.277c-.185,0-.277,0-.277-.185V75.677A.245.245,0,0,1,.277,75.4Z" transform="translate(0 -74.754)" fill="#36606e"/>
    <path id="Path_2620" data-name="Path 2620" d="M15.192,77.092a4.875,4.875,0,0,1,1.2.092,1.39,1.39,0,0,1,.738.369,1.655,1.655,0,0,1,.461.646,3.46,3.46,0,0,1,.092,1.015v3.323c0,.092-.092.185-.092.277a.339.339,0,0,1-.277.092H11.869a1.8,1.8,0,0,1-.738-.092,2.017,2.017,0,0,1-.461-.277,2.018,2.018,0,0,1-.277-.461,1.571,1.571,0,0,1-.092-.646v-.554c0-.185,0-.461.092-.554.092-.185.185-.277.277-.461a2.017,2.017,0,0,1,.461-.277,1.8,1.8,0,0,1,.738-.092h4.338v-.185a.832.832,0,0,0-.092-.461c0-.092-.092-.185-.185-.277s-.185-.092-.369-.185c-.185,0-.369-.092-.554-.092h-4.43a.2.2,0,0,1-.185-.185v-.923A.2.2,0,0,1,10.577,77h4.615ZM15.93,81.8a.339.339,0,0,0,.277-.092c0-.092.092-.185.092-.277v-.923H12.423a.692.692,0,0,0-.461.092c-.092.092-.092.185-.092.369v.185a.692.692,0,0,0,.092.461.692.692,0,0,0,.461.092H15.93Z" transform="translate(-0.794 -74.877)" fill="#36606e"/>
    <path id="Path_2621" data-name="Path 2621" d="M20.308,76.961V75.577a.245.245,0,0,1,.277-.277H21.6a.245.245,0,0,1,.277.277v1.384h1.846a.2.2,0,0,1,.185.185v.831a.2.2,0,0,1-.185.185H21.876v2.492a1.076,1.076,0,0,0,.185.646,1.193,1.193,0,0,0,.738.185h1.015a.2.2,0,0,1,.185.185V82.5a.2.2,0,0,1-.185.185H22.523a3.157,3.157,0,0,1-1.015-.092,1.414,1.414,0,0,1-1.015-1.015,2.845,2.845,0,0,1-.092-.923V78.161H19.385a.2.2,0,0,1-.185-.185v-.831a.2.2,0,0,1,.185-.185h.923Z" transform="translate(-1.48 -74.746)" fill="#36606e"/>
    <path id="Path_2622" data-name="Path 2622" d="M26.077,77.1c.092,0,.185.092.277.185l1.384,4.338a.09.09,0,0,0,.092.092h0c.092,0,.092,0,.092-.092L29.4,77.561c.092-.185.185-.369.277-.369a.692.692,0,0,1,.461-.092H31.43a.692.692,0,0,1,.461.092,1.274,1.274,0,0,1,.277.369l1.384,4.061c0,.092,0,.092.092.092h0c.092,0,.092,0,.092-.092l1.384-4.338c0-.092.092-.185.277-.185h1.2c.092,0,.185,0,.185.092v.185l-1.661,4.892a1.5,1.5,0,0,1-.277.554c-.092.092-.277.092-.554.092H32.906a.705.705,0,0,1-.461-.185,1.5,1.5,0,0,1-.277-.554L30.784,78.3a.09.09,0,0,0-.092-.092H30.6c-.092,0-.092,0-.092.092l-1.384,3.876a1.5,1.5,0,0,1-.277.554.705.705,0,0,1-.461.185H27a1.171,1.171,0,0,1-.554-.092,1.5,1.5,0,0,1-.277-.554L24.6,77.377v-.185a.322.322,0,0,1,.185-.092Z" transform="translate(-1.896 -74.885)" fill="#36606e"/>
    <path id="Path_2623" data-name="Path 2623" d="M43.83,77.1a2.845,2.845,0,0,1,.923.092,1.5,1.5,0,0,1,.554.277.789.789,0,0,1,.277.554,2.049,2.049,0,0,1,.092.831v1.015a.7.7,0,0,1-.185.461.692.692,0,0,1-.461.092H39.677V80.7a.908.908,0,0,0,.277.738c.185.185.461.185.923.185h4.43a.2.2,0,0,1,.185.185v.923a.2.2,0,0,1-.185.185H40.692a4.511,4.511,0,0,1-1.2-.092,1.855,1.855,0,0,1-.738-.369,1.656,1.656,0,0,1-.461-.646,3.461,3.461,0,0,1-.092-1.015V79.223a3.46,3.46,0,0,1,.092-1.015,1.068,1.068,0,0,1,.461-.646,1.855,1.855,0,0,1,.738-.369,4.511,4.511,0,0,1,1.2-.092H43.83Zm-4.153,2.492h4.338a.2.2,0,0,0,.185-.185v-.461a4,4,0,0,0-.092-.461c-.092-.092-.277-.092-.554-.092H40.877a1.986,1.986,0,0,0-.923.185.908.908,0,0,0-.277.738Z" transform="translate(-2.944 -74.885)" fill="#36606e"/>
    <path id="Path_2624" data-name="Path 2624" d="M52.93,77.1a2.845,2.845,0,0,1,.923.092,1.5,1.5,0,0,1,.554.277.789.789,0,0,1,.277.554,2.049,2.049,0,0,1,.092.831v1.015a.705.705,0,0,1-.185.461.692.692,0,0,1-.461.092H48.777V80.7a.908.908,0,0,0,.277.738c.185.185.461.185.923.185h4.43a.2.2,0,0,1,.185.185v.923a.2.2,0,0,1-.185.185H49.792a4.511,4.511,0,0,1-1.2-.092,1.855,1.855,0,0,1-.738-.369,1.656,1.656,0,0,1-.461-.646,3.461,3.461,0,0,1-.092-1.015V79.223a3.461,3.461,0,0,1,.092-1.015,1.068,1.068,0,0,1,.461-.646,1.855,1.855,0,0,1,.738-.369,4.511,4.511,0,0,1,1.2-.092H52.93Zm-4.153,2.492h4.338a.2.2,0,0,0,.185-.185v-.461a4,4,0,0,0-.092-.461c-.092-.092-.277-.092-.554-.092H49.977a1.985,1.985,0,0,0-.923.185.908.908,0,0,0-.277.738v.277Z" transform="translate(-3.645 -74.885)" fill="#36606e"/>
    <path id="Path_2625" data-name="Path 2625" d="M62.03,77.1a.2.2,0,0,1,.185.185v.923a.2.2,0,0,1-.185.185H59.169a1.171,1.171,0,0,0-.554.092.653.653,0,0,0-.554.554c0,.185-.092.369-.092.554V82.73a.245.245,0,0,1-.277.277H56.677a.245.245,0,0,1-.277-.277V79.315a3.461,3.461,0,0,1,.092-1.015,1.068,1.068,0,0,1,.461-.646,1.855,1.855,0,0,1,.738-.369,4.511,4.511,0,0,1,1.2-.092H62.03Z" transform="translate(-4.347 -74.885)" fill="#36606e"/>
    <path id="Path_2626" data-name="Path 2626" d="M75.053,75.4a.245.245,0,0,1,.277.277v1.015a.245.245,0,0,1-.277.277H70.438a1.369,1.369,0,0,0-.646.092c-.185.092-.369.092-.461.277a.7.7,0,0,0-.185.461c0,.185-.092.461-.092.738v.092h6a.245.245,0,0,1,.277.277v.831a.245.245,0,0,1-.277.277h-6V80.2a1.8,1.8,0,0,0,.092.738.7.7,0,0,0,.185.461,2.018,2.018,0,0,0,.461.277c.185,0,.369.092.646.092h4.615a.245.245,0,0,1,.277.277V83.06a.245.245,0,0,1-.277.277H70.346a5.587,5.587,0,0,1-1.384-.185,2.887,2.887,0,0,1-.923-.461c-.277-.185-.369-.554-.554-.831a5.447,5.447,0,0,1-.185-1.292V78.723a4.811,4.811,0,0,1,.185-1.292,1.344,1.344,0,0,1,.554-.831,2.887,2.887,0,0,1,.923-.461,5.586,5.586,0,0,1,1.384-.185h4.707Z" transform="translate(-5.187 -74.754)" fill="#36606e"/>
    <path id="Path_2627" data-name="Path 2627" d="M83.768,76.915V74.977a.245.245,0,0,1,.277-.277H85.06a.245.245,0,0,1,.277.277v5.63a3.461,3.461,0,0,1-.092,1.015,1.068,1.068,0,0,1-.461.646,1.855,1.855,0,0,1-.738.369,4.875,4.875,0,0,1-1.2.092H79.892a4.511,4.511,0,0,1-1.2-.092,1.855,1.855,0,0,1-.738-.369,1.655,1.655,0,0,1-.461-.646,3.46,3.46,0,0,1-.092-1.015V79.038a3.46,3.46,0,0,1,.092-1.015,1.068,1.068,0,0,1,.461-.646,1.855,1.855,0,0,1,.738-.369,4.512,4.512,0,0,1,1.2-.092h3.876Zm-1.2,4.615c.277,0,.461,0,.554-.092a.653.653,0,0,0,.554-.554c0-.185.092-.369.092-.554V78.207H79.892a1.171,1.171,0,0,0-.554.092.653.653,0,0,0-.554.554c0,.185-.092.369-.092.554v.923a1.171,1.171,0,0,0,.092.554.653.653,0,0,0,.554.554c.185,0,.369.092.554.092Z" transform="translate(-5.965 -74.7)" fill="#36606e"/>
    <path id="Path_2628" data-name="Path 2628" d="M88.592,77.1a.245.245,0,0,1,.277.277v3.6a.653.653,0,0,0,.554.554c.185,0,.369.092.554.092h2.769c.277,0,.461,0,.554-.092a.653.653,0,0,0,.554-.554c0-.185.092-.369.092-.554V77.377a.245.245,0,0,1,.277-.277h1.015a.245.245,0,0,1,.277.277v3.415a3.46,3.46,0,0,1-.092,1.015,1.068,1.068,0,0,1-.461.646,1.855,1.855,0,0,1-.738.369,4.875,4.875,0,0,1-1.2.092h-3.23a4.511,4.511,0,0,1-1.2-.092,1.855,1.855,0,0,1-.738-.369,1.655,1.655,0,0,1-.461-.646,3.461,3.461,0,0,1-.092-1.015V77.377a.245.245,0,0,1,.277-.277Z" transform="translate(-6.728 -74.885)" fill="#36606e"/>
    <path id="Path_2629" data-name="Path 2629" d="M103.937,77.1a.2.2,0,0,1,.185.185v.923a.2.2,0,0,1-.185.185H99.784c-.277,0-.461,0-.554.092a.653.653,0,0,0-.554.554c0,.185-.092.369-.092.554v.923a1.171,1.171,0,0,0,.092.554.653.653,0,0,0,.554.554c.185,0,.369.092.554.092h4.153a.2.2,0,0,1,.185.185v.923a.2.2,0,0,1-.185.185H99.692a4.511,4.511,0,0,1-1.2-.092,1.855,1.855,0,0,1-.738-.369,1.656,1.656,0,0,1-.461-.646,3.461,3.461,0,0,1-.092-1.015V79.315a3.461,3.461,0,0,1,.092-1.015,1.068,1.068,0,0,1,.461-.646,1.855,1.855,0,0,1,.738-.369,4.511,4.511,0,0,1,1.2-.092h4.245Z" transform="translate(-7.491 -74.885)" fill="#36606e"/>
    <path id="Path_2630" data-name="Path 2630" d="M110.492,77.092a4.875,4.875,0,0,1,1.2.092,1.39,1.39,0,0,1,.738.369,1.655,1.655,0,0,1,.461.646,3.46,3.46,0,0,1,.092,1.015v3.323c0,.092-.092.185-.092.277a.339.339,0,0,1-.277.092h-5.445a1.8,1.8,0,0,1-.738-.092,1.109,1.109,0,0,1-.738-.738,1.571,1.571,0,0,1-.092-.646v-.554c0-.185,0-.461.092-.554.092-.185.185-.277.277-.461a2.018,2.018,0,0,1,.461-.277,1.8,1.8,0,0,1,.738-.092h4.338v-.185a.832.832,0,0,0-.092-.461c0-.092-.092-.185-.185-.277s-.185-.092-.369-.185c-.185,0-.369-.092-.554-.092h-4.43a.2.2,0,0,1-.185-.185v-.923a.2.2,0,0,1,.185-.185h4.615Zm.738,4.707a.339.339,0,0,0,.277-.092c0-.092.092-.185.092-.277v-.923h-3.876a.692.692,0,0,0-.461.092c-.092.092-.092.185-.092.369v.185a.424.424,0,0,0,.554.554h3.507Z" transform="translate(-8.138 -74.877)" fill="#36606e"/>
    <path id="Path_2631" data-name="Path 2631" d="M115.6,76.961V75.577a.245.245,0,0,1,.277-.277h1.015a.245.245,0,0,1,.277.277v1.384h1.846a.2.2,0,0,1,.185.185v.831a.2.2,0,0,1-.185.185h-1.846v2.492a1.076,1.076,0,0,0,.185.646,1.193,1.193,0,0,0,.738.185h1.015a.2.2,0,0,1,.185.185V82.5a.2.2,0,0,1-.185.185h-1.384a3.157,3.157,0,0,1-1.015-.092,1.414,1.414,0,0,1-1.015-1.015,2.845,2.845,0,0,1-.092-.923V78.161h-1.015a.2.2,0,0,1-.185-.185v-.831a.2.2,0,0,1,.185-.185H115.6Z" transform="translate(-8.817 -74.746)" fill="#36606e"/>
    <path id="Path_2632" data-name="Path 2632" d="M121.792,74.8a.245.245,0,0,1,.277.277v1.015a.245.245,0,0,1-.277.277h-1.015a.245.245,0,0,1-.277-.277V75.077a.245.245,0,0,1,.277-.277Zm0,2.123a.245.245,0,0,1,.277.277v5.353a.245.245,0,0,1-.277.277h-1.015a.245.245,0,0,1-.277-.277V77.2a.245.245,0,0,1,.277-.277Z" transform="translate(-9.287 -74.708)" fill="#36606e"/>
    <path id="Path_2633" data-name="Path 2633" d="M129.038,77.1a4.876,4.876,0,0,1,1.2.092,1.39,1.39,0,0,1,.738.369,1.655,1.655,0,0,1,.461.646,3.461,3.461,0,0,1,.092,1.015v1.569a3.461,3.461,0,0,1-.092,1.015,1.068,1.068,0,0,1-.461.646,1.855,1.855,0,0,1-.738.369,4.876,4.876,0,0,1-1.2.092h-3.046a4.511,4.511,0,0,1-1.2-.092,1.855,1.855,0,0,1-.738-.369,1.655,1.655,0,0,1-.461-.646,3.461,3.461,0,0,1-.092-1.015V79.223a3.461,3.461,0,0,1,.092-1.015,1.068,1.068,0,0,1,.461-.646,1.855,1.855,0,0,1,.738-.369,4.511,4.511,0,0,1,1.2-.092Zm-3.969,3.415a1.171,1.171,0,0,0,.092.554.653.653,0,0,0,.554.554c.185,0,.369.092.554.092h2.676c.277,0,.461,0,.554-.092a.653.653,0,0,0,.554-.554c0-.185.092-.369.092-.554V79.5a1.171,1.171,0,0,0-.092-.554.653.653,0,0,0-.554-.554c-.185,0-.369-.092-.554-.092h-2.676a1.171,1.171,0,0,0-.554.092.653.653,0,0,0-.554.554c0,.185-.092.369-.092.554Z" transform="translate(-9.518 -74.885)" fill="#36606e"/>
    <path id="Path_2634" data-name="Path 2634" d="M139.122,77.1a4.876,4.876,0,0,1,1.2.092,1.39,1.39,0,0,1,.738.369,1.655,1.655,0,0,1,.461.646,3.46,3.46,0,0,1,.092,1.015v3.415a.245.245,0,0,1-.277.277h-.923a.245.245,0,0,1-.277-.277v-3.6a.653.653,0,0,0-.554-.554c-.185,0-.369-.092-.554-.092h-2.861a1.171,1.171,0,0,0-.554.092c-.185.092-.277.092-.369.185a.48.48,0,0,0-.185.369c0,.185-.092.369-.092.554v3.046a.245.245,0,0,1-.277.277h-1.015a.245.245,0,0,1-.277-.277V79.223a3.459,3.459,0,0,1,.092-1.015,1.068,1.068,0,0,1,.461-.646,1.855,1.855,0,0,1,.738-.369,4.512,4.512,0,0,1,1.2-.092Z" transform="translate(-10.281 -74.885)" fill="#36606e"/>
    <path id="Path_2635" data-name="Path 2635" d="M148.492,77.092a4.876,4.876,0,0,1,1.2.092,1.39,1.39,0,0,1,.738.369,1.656,1.656,0,0,1,.461.646,3.46,3.46,0,0,1,.092,1.015v3.323c0,.092-.092.185-.092.277a.339.339,0,0,1-.277.092h-5.445a1.8,1.8,0,0,1-.738-.092,1.109,1.109,0,0,1-.738-.738,1.571,1.571,0,0,1-.092-.646v-.554c0-.185,0-.461.092-.554.092-.185.185-.277.277-.461a2.018,2.018,0,0,1,.461-.277,1.8,1.8,0,0,1,.738-.092h4.338v-.185a.832.832,0,0,0-.092-.461c0-.092-.092-.185-.185-.277s-.185-.092-.369-.185c-.185,0-.369-.092-.554-.092h-4.43a.2.2,0,0,1-.185-.185v-.923a.2.2,0,0,1,.185-.185h4.615Zm.738,4.707a.339.339,0,0,0,.277-.092c0-.092.092-.185.092-.277v-.923h-3.876a.692.692,0,0,0-.461.092c-.092.092-.092.185-.092.369v.185a.424.424,0,0,0,.554.554h3.507Z" transform="translate(-11.067 -74.877)" fill="#36606e"/>
    <path id="Path_2636" data-name="Path 2636" d="M154.192,74.8a.245.245,0,0,1,.277.277v7.476a.245.245,0,0,1-.277.277h-1.015a.245.245,0,0,1-.277-.277V75.077a.245.245,0,0,1,.277-.277Z" transform="translate(-11.784 -74.708)" fill="#36606e"/>
    <path id="Path_2637" data-name="Path 2637" d="M167.876,75.392a.245.245,0,0,1,.277.277v1.015a.245.245,0,0,1-.277.277h-3.323v5.722a.245.245,0,0,1-.277.277h-1.2a.245.245,0,0,1-.277-.277V76.869h-3.323a.245.245,0,0,1-.277-.277V75.577a.245.245,0,0,1,.277-.277h8.4Z" transform="translate(-12.269 -74.746)" fill="#36606e"/>
    <path id="Path_2638" data-name="Path 2638" d="M175.03,77.1a2.845,2.845,0,0,1,.923.092,1.5,1.5,0,0,1,.554.277.789.789,0,0,1,.277.554,2.048,2.048,0,0,1,.092.831v1.015a.705.705,0,0,1-.185.461.692.692,0,0,1-.461.092h-5.353V80.7a.908.908,0,0,0,.277.738c.185.185.461.185.923.185h4.43a.2.2,0,0,1,.185.185v.923a.2.2,0,0,1-.185.185h-4.615a4.511,4.511,0,0,1-1.2-.092,1.855,1.855,0,0,1-.738-.369,1.656,1.656,0,0,1-.461-.646,3.46,3.46,0,0,1-.092-1.015V79.223a3.46,3.46,0,0,1,.092-1.015,1.068,1.068,0,0,1,.461-.646,1.855,1.855,0,0,1,.738-.369,4.511,4.511,0,0,1,1.2-.092h3.138Zm-4.153,2.492h4.338a.2.2,0,0,0,.185-.185v-.461a.692.692,0,0,0-.092-.461c-.092-.092-.277-.092-.554-.092h-2.676a1.985,1.985,0,0,0-.923.185.908.908,0,0,0-.277.738Z" transform="translate(-13.055 -74.885)" fill="#36606e"/>
    <path id="Path_2639" data-name="Path 2639" d="M185.237,77.1a.2.2,0,0,1,.185.185v.923a.2.2,0,0,1-.185.185h-4.153c-.277,0-.461,0-.554.092a.653.653,0,0,0-.554.554c0,.185-.092.369-.092.554v.923a1.171,1.171,0,0,0,.092.554c.092.185.092.277.185.369a.479.479,0,0,0,.369.185c.185,0,.369.092.554.092h4.153a.2.2,0,0,1,.185.185v.923a.2.2,0,0,1-.185.185h-4.245a4.511,4.511,0,0,1-1.2-.092,1.855,1.855,0,0,1-.738-.369,1.656,1.656,0,0,1-.461-.646,3.46,3.46,0,0,1-.092-1.015V79.315a3.46,3.46,0,0,1,.092-1.015,1.068,1.068,0,0,1,.461-.646,1.855,1.855,0,0,1,.738-.369,4.511,4.511,0,0,1,1.2-.092h4.245Z" transform="translate(-13.757 -74.885)" fill="#36606e"/>
    <path id="Path_2640" data-name="Path 2640" d="M188.384,74.8a.245.245,0,0,1,.277.277v1.938h3.969a4.876,4.876,0,0,1,1.2.092,1.39,1.39,0,0,1,.738.369,1.656,1.656,0,0,1,.461.646,3.46,3.46,0,0,1,.092,1.015v3.415a.245.245,0,0,1-.277.277H193.83a.245.245,0,0,1-.277-.277v-3.6A.653.653,0,0,0,193,78.4c-.185,0-.369-.092-.554-.092h-3.876v4.245a.245.245,0,0,1-.277.277h-1.015a.245.245,0,0,1-.277-.277V75.077a.245.245,0,0,1,.277-.277h1.107Z" transform="translate(-14.412 -74.708)" fill="#36606e"/>
    <path id="Path_2641" data-name="Path 2641" d="M202.814,77.1a4.876,4.876,0,0,1,1.2.092,1.39,1.39,0,0,1,.738.369,1.655,1.655,0,0,1,.461.646,3.46,3.46,0,0,1,.092,1.015v3.415a.245.245,0,0,1-.277.277h-1.015a.245.245,0,0,1-.277-.277v-3.6a.653.653,0,0,0-.554-.554c-.185,0-.369-.092-.554-.092h-2.861a1.171,1.171,0,0,0-.554.092c-.185.092-.277.092-.369.185a.479.479,0,0,0-.185.369c0,.185-.092.369-.092.554v3.046a.245.245,0,0,1-.277.277h-1.015a.245.245,0,0,1-.277-.277V79.223a3.46,3.46,0,0,1,.092-1.015,1.068,1.068,0,0,1,.461-.646,1.855,1.855,0,0,1,.738-.369,4.511,4.511,0,0,1,1.2-.092Z" transform="translate(-15.182 -74.885)" fill="#36606e"/>
    <path id="Path_2642" data-name="Path 2642" d="M212.838,77.1a4.876,4.876,0,0,1,1.2.092,1.39,1.39,0,0,1,.738.369,1.655,1.655,0,0,1,.461.646,3.46,3.46,0,0,1,.092,1.015v1.569a3.46,3.46,0,0,1-.092,1.015,1.068,1.068,0,0,1-.461.646,1.855,1.855,0,0,1-.738.369,4.876,4.876,0,0,1-1.2.092h-3.046a4.511,4.511,0,0,1-1.2-.092,1.855,1.855,0,0,1-.738-.369,1.656,1.656,0,0,1-.461-.646,3.46,3.46,0,0,1-.092-1.015V79.223a3.46,3.46,0,0,1,.092-1.015,1.068,1.068,0,0,1,.461-.646,1.855,1.855,0,0,1,.738-.369,4.511,4.511,0,0,1,1.2-.092Zm-3.969,3.415a1.17,1.17,0,0,0,.092.554.653.653,0,0,0,.554.554c.185,0,.369.092.554.092h2.676c.277,0,.461,0,.554-.092a.653.653,0,0,0,.554-.554c0-.185.092-.369.092-.554V79.5a1.171,1.171,0,0,0-.092-.554.653.653,0,0,0-.554-.554c-.185,0-.369-.092-.554-.092h-2.676a1.171,1.171,0,0,0-.554.092.653.653,0,0,0-.554.554c0,.185-.092.369-.092.554Z" transform="translate(-15.976 -74.885)" fill="#36606e"/>
    <path id="Path_2643" data-name="Path 2643" d="M218.692,74.8a.245.245,0,0,1,.277.277v7.476a.245.245,0,0,1-.277.277h-1.015a.245.245,0,0,1-.277-.277V75.077a.245.245,0,0,1,.277-.277Z" transform="translate(-16.755 -74.708)" fill="#36606e"/>
    <path id="Path_2644" data-name="Path 2644" d="M225.938,77.1a4.876,4.876,0,0,1,1.2.092,1.39,1.39,0,0,1,.738.369,1.656,1.656,0,0,1,.461.646,3.46,3.46,0,0,1,.092,1.015v1.569a3.46,3.46,0,0,1-.092,1.015,1.068,1.068,0,0,1-.461.646,1.855,1.855,0,0,1-.738.369,4.876,4.876,0,0,1-1.2.092h-3.046a4.511,4.511,0,0,1-1.2-.092,1.855,1.855,0,0,1-.738-.369,1.655,1.655,0,0,1-.461-.646,3.46,3.46,0,0,1-.092-1.015V79.223a3.46,3.46,0,0,1,.092-1.015,1.068,1.068,0,0,1,.461-.646,1.855,1.855,0,0,1,.738-.369,4.512,4.512,0,0,1,1.2-.092Zm-3.969,3.415a1.17,1.17,0,0,0,.092.554.653.653,0,0,0,.554.554c.185,0,.369.092.554.092h2.676c.277,0,.461,0,.554-.092a.653.653,0,0,0,.554-.554c0-.185.092-.369.092-.554V79.5a1.171,1.171,0,0,0-.092-.554c-.092-.185-.092-.277-.185-.369a.48.48,0,0,0-.369-.185c-.185,0-.369-.092-.554-.092h-2.676a1.171,1.171,0,0,0-.554.092.653.653,0,0,0-.554.554c0,.185-.092.369-.092.554Z" transform="translate(-16.986 -74.885)" fill="#36606e"/>
    <path id="Path_2645" data-name="Path 2645" d="M235.953,77.1a4.511,4.511,0,0,1,1.2.092,1.855,1.855,0,0,1,.738.369,1.656,1.656,0,0,1,.461.646,3.459,3.459,0,0,1,.092,1.015V83.1a3.459,3.459,0,0,1-.092,1.015,1.068,1.068,0,0,1-.461.646,1.855,1.855,0,0,1-.738.369,4.511,4.511,0,0,1-1.2.092h-4.984a.2.2,0,0,1-.185-.185v-.923a.2.2,0,0,1,.185-.185h4.892c.277,0,.461,0,.554-.092a.653.653,0,0,0,.554-.554c0-.185.092-.369.092-.554v-.185h-3.969a4.511,4.511,0,0,1-1.2-.092,1.855,1.855,0,0,1-.738-.369,1.656,1.656,0,0,1-.461-.646,3.46,3.46,0,0,1-.092-1.015V79.315a3.46,3.46,0,0,1,.092-1.015,1.068,1.068,0,0,1,.461-.646,1.856,1.856,0,0,1,.738-.369,4.511,4.511,0,0,1,1.2-.092h2.861Zm-3.969,3.323a.692.692,0,0,0,.092.461c0,.092.092.185.185.277a.48.48,0,0,0,.369.185c.185,0,.369.092.554.092h3.876v-2.03a1.128,1.128,0,0,0-.277-.831,1.225,1.225,0,0,0-.923-.277h-2.676a1.171,1.171,0,0,0-.554.092.48.48,0,0,0-.369.185c-.092.092-.185.185-.185.277a4,4,0,0,0-.092.461Z" transform="translate(-17.772 -74.885)" fill="#36606e"/>
    <path id="Path_2646" data-name="Path 2646" d="M241.792,74.8a.245.245,0,0,1,.277.277v1.015a.245.245,0,0,1-.277.277h-1.015a.245.245,0,0,1-.277-.277V75.077a.245.245,0,0,1,.277-.277Zm0,2.123a.245.245,0,0,1,.277.277v5.353a.245.245,0,0,1-.277.277h-1.015a.245.245,0,0,1-.277-.277V77.2a.245.245,0,0,1,.277-.277Z" transform="translate(-18.535 -74.708)" fill="#36606e"/>
    <path id="Path_2647" data-name="Path 2647" d="M249.03,77.1a2.846,2.846,0,0,1,.923.092,1.5,1.5,0,0,1,.554.277.789.789,0,0,1,.277.554,2.048,2.048,0,0,1,.092.831v1.015a.705.705,0,0,1-.185.461.692.692,0,0,1-.461.092h-5.353V80.7a.909.909,0,0,0,.277.738c.185.185.461.185.923.185h4.43a.2.2,0,0,1,.185.185v.923a.2.2,0,0,1-.185.185h-4.615a4.511,4.511,0,0,1-1.2-.092,1.855,1.855,0,0,1-.738-.369,1.656,1.656,0,0,1-.461-.646,3.46,3.46,0,0,1-.092-1.015V79.223a3.46,3.46,0,0,1,.092-1.015,1.068,1.068,0,0,1,.461-.646,1.855,1.855,0,0,1,.738-.369,4.511,4.511,0,0,1,1.2-.092h3.138Zm-4.153,2.492h4.338a.2.2,0,0,0,.185-.185v-.461a.692.692,0,0,0-.092-.461c-.092-.092-.277-.092-.554-.092h-2.677a1.986,1.986,0,0,0-.923.185.909.909,0,0,0-.277.738Z" transform="translate(-18.758 -74.885)" fill="#36606e"/>
    <path id="Path_2648" data-name="Path 2648" d="M259.422,77.092a.2.2,0,0,1,.185.185v.831a.2.2,0,0,1-.185.185h-4.8a.692.692,0,0,0-.461.092c-.092.092-.092.185-.092.369v.185c0,.185,0,.277.092.369a.691.691,0,0,0,.461.092h3.6a1.8,1.8,0,0,1,1.292.369,1.261,1.261,0,0,1,.369,1.015v.554a1.368,1.368,0,0,1-.092.646,2.016,2.016,0,0,1-.277.461,1.5,1.5,0,0,1-.554.277,2.048,2.048,0,0,1-.831.092h-5.445a.2.2,0,0,1-.185-.185V81.8a.2.2,0,0,1,.185-.185h5.076a.692.692,0,0,0,.461-.092c.092-.092.092-.185.092-.369v-.277c0-.185,0-.277-.092-.369a.692.692,0,0,0-.461-.092h-3.6a1.8,1.8,0,0,1-1.292-.369,1.471,1.471,0,0,1-.369-1.108v-.461a1.57,1.57,0,0,1,.092-.646,2.018,2.018,0,0,1,.277-.461,1.5,1.5,0,0,1,.554-.277,2.048,2.048,0,0,1,.831-.092h5.168Z" transform="translate(-19.46 -74.877)" fill="#36606e"/>
  </g>
</svg>
